<svg width="812" height="597" viewBox="0 0 812 597" fill="none" xmlns="http://www.w3.org/2000/svg">
<path d="M-19.0886 523.731C-19.0886 523.731 59.4469 508.241 99.7832 462.037C140.119 415.834 200.49 364.288 226.135 386.723C251.779 409.157 272.081 412.629 285.704 404.082C299.328 395.269 301.999 400.877 379.466 364.822C456.933 328.768 491.392 306.333 491.392 306.333L538.941 349.332C538.941 349.332 559.777 318.352 564.852 323.426C569.928 328.5 745.164 507.173 810.877 534.414C523.982 534.147 -45 534.147 -45 534.147L-19.0886 523.731Z" fill="#A7CFEA" fill-opacity="0.16"/>
<path d="M-45 534.147H811.144C811.144 534.147 764.931 595.04 366.109 596.642C-32.7122 598.245 -45 534.147 -45 534.147Z" fill="#A7CFEA" fill-opacity="0.16"/>
<path d="M-19.0886 523.731C-19.0886 523.731 59.4469 508.241 99.7832 462.037C131.304 425.715 175.113 386.455 205.031 381.648C213.312 380.313 220.525 381.648 226.135 386.723C251.779 409.424 272.081 412.629 285.704 404.082C299.328 395.269 301.999 400.877 379.466 364.822C456.933 328.768 491.392 306.333 491.392 306.333L538.941 349.332C538.941 349.332 559.777 318.352 564.852 323.426C569.928 328.5 668.765 507.173 734.478 534.414C447.316 534.147 -45 534.147 -45 534.147L-19.0886 523.731Z" fill="#C4E0F7" fill-opacity="0.25"/>
<path d="M344.739 527.737C344.739 527.737 206.902 458.298 196.751 383.784C207.703 374.704 222.662 384.051 226.135 386.722C229.607 389.393 291.581 498.626 344.739 527.737Z" fill="#A7CFEA" fill-opacity="0.16"/>
<path d="M491.393 306.333L538.941 349.332C538.941 349.332 575.271 454.559 623.888 486.608C570.195 462.838 499.406 339.45 491.393 306.333Z" fill="#A7CFEA" fill-opacity="0.16"/>
<path d="M693.663 116.711C690.19 114.842 688.053 114.04 688.053 114.04L689.122 111.637C689.122 111.637 691.259 112.705 694.999 114.307L693.663 116.711Z" fill="#8DC0DB"/>
<path d="M208.291 471.651C205.887 468.179 203.483 464.44 201.613 460.701L203.75 459.366C205.887 462.838 208.024 466.577 210.428 470.049L208.291 471.651ZM195.202 449.484C193.332 445.745 191.462 441.739 189.86 437.733L192.264 436.664C193.867 440.403 195.736 444.409 197.606 448.149L195.202 449.484ZM185.586 425.981C184.25 421.975 182.914 417.702 182.113 413.696L184.517 413.162C185.586 417.168 186.654 421.174 187.99 425.18L185.586 425.981ZM705.95 402.746C701.676 402.746 697.402 402.212 693.128 401.678L693.395 399.007C697.669 399.541 701.943 399.808 705.95 400.075V402.746ZM718.772 402.479L718.505 399.808C722.779 399.541 726.786 398.74 730.793 397.939L731.327 400.342C727.32 401.411 723.046 402.212 718.772 402.479ZM179.442 401.144C178.64 396.87 178.106 392.597 177.839 388.324L180.51 388.057C180.777 392.33 181.312 396.336 182.113 400.609L179.442 401.144ZM680.306 399.541C677.635 399.007 674.964 398.206 672.292 397.672C670.957 397.405 669.354 396.87 668.018 396.336L668.82 393.933C670.155 394.467 671.758 394.734 673.094 395.268C675.765 396.069 678.436 396.603 681.107 397.137L680.306 399.541ZM743.882 397.137L743.081 394.734C747.088 393.398 750.828 391.529 754.568 389.659L755.903 391.796C751.629 393.933 747.889 395.535 743.882 397.137ZM655.73 392.33C651.991 390.995 647.984 389.392 643.977 387.523L645.045 385.119C649.052 386.722 653.059 388.324 656.799 389.926L655.73 392.33ZM766.321 384.852L764.718 382.716C767.924 380.312 771.397 377.641 774.335 374.703L776.205 376.573C773.266 379.778 769.794 382.448 766.321 384.852ZM632.49 382.181C628.75 380.312 625.011 378.442 621.004 376.306L622.339 374.169C626.079 376.306 629.819 378.175 633.559 380.045L632.49 382.181ZM179.709 375.505H177.037C177.037 371.231 177.305 366.958 177.572 362.685L180.243 362.952C179.976 367.225 179.709 371.498 179.709 375.505ZM609.784 370.163C606.045 368.026 602.572 365.89 598.832 363.753L600.168 361.617C603.908 363.753 607.38 365.89 611.12 368.026L609.784 370.163ZM785.02 367.225L782.883 365.623C785.554 362.418 787.958 358.946 790.096 355.474L792.233 356.809C790.096 360.281 787.691 363.753 785.02 367.225ZM588.147 356.809C584.674 354.406 580.935 352.269 577.462 349.865L578.798 347.729C582.27 350.133 586.01 352.536 589.483 354.673L588.147 356.809ZM181.846 350.4L179.442 349.865C180.243 345.592 181.044 341.586 182.113 337.313L184.517 337.847C183.449 342.12 182.647 346.394 181.846 350.4ZM798.376 345.325L795.972 344.257C797.842 340.518 799.445 336.512 800.781 332.773L803.185 333.574C801.849 337.58 800.246 341.586 798.376 345.325ZM567.044 342.654C563.571 340.251 560.099 337.847 556.626 335.443L558.229 333.307C561.701 335.711 565.174 338.114 568.647 340.518L567.044 342.654ZM546.208 327.965C542.735 325.562 539.263 322.891 536.057 320.487L537.66 318.351C541.133 320.754 544.605 323.425 547.811 325.829L546.208 327.965ZM188.257 326.096L185.853 325.295C187.188 321.289 188.791 317.283 190.394 313.276L192.798 314.345C190.928 318.084 189.592 322.09 188.257 326.096ZM807.192 321.289L804.788 320.754C805.856 316.748 806.657 312.742 807.459 308.469L809.863 309.003C809.062 313.009 808.26 317.283 807.192 321.289ZM525.639 313.009L515.488 305.531L517.091 303.395L527.242 310.873L525.639 313.009ZM198.141 302.861L195.736 301.792C197.606 298.053 199.743 294.314 202.147 290.575L204.284 291.911C202.147 295.382 200.01 299.122 198.141 302.861ZM505.07 297.786C501.598 295.382 498.125 292.712 494.652 290.308L496.255 288.171C499.728 290.575 503.2 293.246 506.673 295.65L505.07 297.786ZM811.466 295.917L808.794 295.65C809.062 291.376 809.329 287.37 809.329 283.097H812C812 287.37 812 291.911 811.466 295.917ZM484.501 282.83C481.029 280.426 477.556 277.756 474.083 275.352L475.686 273.215C479.159 275.619 482.632 278.023 486.104 280.693L484.501 282.83ZM211.23 281.495L209.093 279.892C211.497 276.42 214.168 272.948 216.84 269.743L218.709 271.346C216.305 274.551 213.634 278.023 211.23 281.495ZM809.329 270.545C809.062 266.271 808.794 262.265 808.26 257.992L810.932 257.725C811.466 261.998 812 266.271 812 270.545H809.329ZM463.665 268.141C460.193 265.737 456.72 263.334 453.247 260.93L454.583 258.793C458.056 261.197 461.528 263.601 465.268 266.004L463.665 268.141ZM227.257 261.998L225.388 260.129C228.326 256.924 231.264 253.986 234.47 251.048L236.34 252.918C233.134 255.856 230.196 259.06 227.257 261.998ZM442.562 254.253C439.09 251.849 435.35 249.713 431.877 247.576L433.213 245.44C436.686 247.576 440.425 249.98 444.165 252.117L442.562 254.253ZM806.123 245.44C805.322 241.434 804.253 237.16 803.185 233.154L805.589 232.353C806.925 236.359 807.726 240.632 808.794 244.906L806.123 245.44ZM245.956 244.906L244.354 242.769C247.559 240.098 251.032 237.428 254.505 235.024L255.84 237.16C252.635 239.831 249.162 242.235 245.956 244.906ZM420.925 240.899C417.185 238.763 413.445 236.626 409.706 234.757L411.041 232.353C414.781 234.223 418.521 236.359 422.261 238.496L420.925 240.899ZM266.792 230.484L265.457 228.347C269.197 226.21 272.936 224.074 276.676 222.204L277.745 224.608C274.005 226.478 270.265 228.347 266.792 230.484ZM398.486 229.148C394.479 227.279 390.74 225.409 387 223.807L388.068 221.403C391.808 223.006 395.815 224.875 399.822 226.745L398.486 229.148ZM798.911 221.403C797.308 217.664 795.705 213.658 793.835 209.919L796.239 208.851C798.109 212.59 799.979 216.596 801.582 220.602L798.911 221.403ZM289.231 219.534L288.43 217.13C292.437 215.528 296.444 214.192 300.718 213.124L301.519 215.527C297.245 216.596 293.238 218.198 289.231 219.534ZM375.246 219.267C371.239 217.931 367.232 216.596 363.225 215.26L364.027 212.857C368.034 213.925 372.041 215.26 376.048 216.863L375.246 219.267ZM313.54 212.59L313.005 210.186C317.28 209.385 321.554 208.851 325.828 208.584L326.095 211.254C321.821 211.254 317.814 212.056 313.54 212.59ZM350.938 212.323C346.931 211.521 342.657 210.987 338.65 210.987V208.317C342.924 208.584 347.198 209.118 351.472 209.652L350.938 212.323ZM787.691 198.969C785.554 195.497 783.15 192.025 780.746 188.553L782.883 186.951C785.287 190.423 787.691 194.162 789.828 197.634L787.691 198.969ZM772.999 178.404C770.328 175.199 767.657 171.995 764.718 168.79L766.588 166.92C769.527 170.125 772.465 173.33 775.136 176.535L772.999 178.404ZM755.636 159.976C752.698 157.038 749.492 154.368 746.287 151.43L747.889 149.56C751.095 152.231 754.3 155.169 757.506 158.107L755.636 159.976ZM736.403 143.418C733.197 140.747 729.725 138.343 726.252 135.94L727.855 133.803C731.327 136.207 734.8 138.877 738.273 141.281L736.403 143.418ZM715.567 128.996C712.094 126.859 708.354 124.455 704.615 122.586L705.95 120.449C709.69 122.586 713.163 124.723 716.903 127.126L715.567 128.996Z" fill="#8DC0DB"/>
<path d="M219.778 487.409C218.443 485.806 217.107 483.937 215.771 482.335L217.908 480.732C219.244 482.335 220.58 484.204 221.915 485.806L219.778 487.409Z" fill="#8DC0DB"/>
<path d="M584.408 440.404H556.894C551.017 440.404 545.941 435.597 545.941 429.454V342.121C545.941 336.246 550.75 331.171 556.894 331.171H584.408C590.284 331.171 595.36 335.979 595.36 342.121V429.454C595.36 435.597 590.552 440.404 584.408 440.404ZM556.894 337.314C553.955 337.314 551.818 339.718 551.818 342.388V429.721C551.818 432.659 554.222 434.796 556.894 434.796H584.408C587.346 434.796 589.483 432.392 589.483 429.721V342.388C589.483 339.451 587.079 337.314 584.408 337.314H556.894Z" fill="#232221"/>
<path d="M608.983 545.899H532.585C525.373 545.899 519.496 540.023 519.496 532.812V403.548C519.496 396.337 525.373 390.462 532.585 390.462H608.983C616.196 390.462 622.073 396.337 622.073 403.548V532.812C622.073 540.023 616.196 545.899 608.983 545.899Z" fill="#6953AA"/>
<path d="M611.922 545.899H535.524C528.311 545.899 522.435 540.023 522.435 532.812V403.549C522.435 396.338 528.311 390.462 535.524 390.462H611.922C619.135 390.462 625.012 396.338 625.012 403.549V532.812C625.012 540.023 619.135 545.899 611.922 545.899Z" fill="#4B3A8E"/>
<path d="M608.984 548.569H532.585C525.373 548.569 519.496 542.694 519.496 535.483V406.219C519.496 399.008 525.373 393.133 532.585 393.133H608.984C616.196 393.133 622.073 399.008 622.073 406.219V535.483C622.073 542.694 616.196 548.569 608.984 548.569Z" fill="#6953AA"/>
<path d="M540.866 531.477C538.462 531.477 536.859 529.608 536.859 527.471V408.356C536.859 405.953 538.729 404.35 540.866 404.35C543.27 404.35 544.873 406.22 544.873 408.356V527.471C545.14 529.608 543.27 531.477 540.866 531.477Z" fill="#8272C4"/>
<path d="M560.634 531.477C558.229 531.477 556.627 529.608 556.627 527.471V408.356C556.627 405.953 558.497 404.35 560.634 404.35C563.038 404.35 564.641 406.22 564.641 408.356V527.471C564.641 529.608 562.771 531.477 560.634 531.477Z" fill="#8272C4"/>
<path d="M580.401 531.477C577.997 531.477 576.395 529.608 576.395 527.471V408.356C576.395 405.953 578.264 404.35 580.401 404.35C582.806 404.35 584.408 406.22 584.408 408.356V527.471C584.408 529.608 582.538 531.477 580.401 531.477Z" fill="#8272C4"/>
<path d="M599.902 531.477C597.498 531.477 595.895 529.608 595.895 527.471V408.356C595.895 405.953 597.765 404.35 599.902 404.35C602.306 404.35 603.909 406.22 603.909 408.356V527.471C604.176 529.608 602.306 531.477 599.902 531.477Z" fill="#8272C4"/>
<path d="M404.631 323.426H332.506C320.218 323.426 310.068 313.277 310.068 300.992V180.275C310.068 167.989 320.218 157.841 332.506 157.841H404.631C416.919 157.841 427.069 167.989 427.069 180.275V300.725C427.069 313.277 416.919 323.426 404.631 323.426Z" fill="#4E3E75"/>
<path d="M335.444 392.866C335.444 392.866 337.581 421.176 335.979 433.728C334.376 446.548 334.91 503.167 339.451 530.409C339.986 535.483 336.246 549.371 336.246 549.371L356.815 550.973C356.815 550.973 353.876 540.291 353.876 530.409C353.876 520.527 360.02 488.745 360.287 472.454C360.821 456.162 359.486 441.74 360.02 434.529C360.554 427.318 362.959 391.263 362.959 391.263L335.444 392.866Z" fill="#F6B283"/>
<path d="M338.116 539.222C338.116 539.222 330.369 550.172 327.163 561.656C323.958 573.14 355.212 570.737 362.958 569.134C370.705 567.532 356.013 542.427 354.143 540.023C352.54 541.893 349.068 528.272 338.116 539.222Z" fill="#00928D"/>
<path d="M362.958 562.725C356.28 564.06 332.773 566.197 327.965 559.52C327.697 560.321 327.43 561.123 327.163 561.924C323.958 573.408 355.212 571.004 362.958 569.402C365.63 568.868 365.63 565.663 364.561 561.657C364.294 561.924 363.76 562.458 362.958 562.725Z" fill="#E2E2E2"/>
<path d="M413.445 387.791C413.445 387.791 409.973 421.175 411.308 433.995C412.911 446.814 412.644 503.434 408.103 530.676C407.569 535.75 411.575 549.638 411.575 549.638L391.007 551.507C391.007 551.507 393.945 540.824 393.945 530.943C393.945 521.061 387.801 489.279 387.267 472.988C386.733 456.696 388.068 442.274 387.534 435.063C387 427.852 385.931 386.723 385.931 386.723L413.445 387.791Z" fill="#F6B283"/>
<path d="M408.903 539.222C408.903 539.222 416.65 550.172 419.855 561.656C423.061 573.141 391.807 570.737 384.06 569.135C376.313 567.532 391.005 542.427 392.875 540.023C394.478 541.893 397.951 528.272 408.903 539.222Z" fill="#00928D"/>
<path d="M384.062 562.725C390.74 564.061 414.247 566.197 419.055 559.52C419.323 560.322 419.59 561.123 419.857 561.924C423.062 573.408 391.808 571.004 384.062 569.402C381.39 568.868 381.39 565.663 382.459 561.657C382.993 561.924 383.26 562.458 384.062 562.725Z" fill="#E2E2E2"/>
<path d="M330.369 308.47C330.369 308.47 323.958 366.425 328.232 396.872C347.466 408.356 373.644 399.809 373.644 399.809V381.916L380.322 400.344C380.322 400.344 407.836 403.281 419.323 395.269C423.063 364.022 415.583 305.8 415.583 305.8L330.369 308.47Z" fill="#4E3E75"/>
<path d="M328.499 183.48L355.479 173.331H379.521L411.576 183.213C411.576 183.213 408.637 230.752 408.637 250.249C408.637 269.745 419.857 327.433 419.857 327.433C419.857 327.433 374.979 350.134 326.629 332.507C322.89 272.416 327.965 251.584 328.232 222.473C328.766 193.362 328.499 183.48 328.499 183.48Z" fill="#00928D"/>
<path d="M356.548 160.512L355.479 177.071C355.479 177.071 368.835 185.617 379.253 179.741C381.123 166.121 379.253 157.574 379.253 157.574L356.548 160.512Z" fill="#F6B283"/>
<path d="M387.267 124.99C387.267 124.99 390.472 121.251 392.61 122.853C394.479 124.456 392.342 141.014 388.603 136.741C384.596 132.468 387.267 124.99 387.267 124.99Z" fill="#F6B283"/>
<path d="M346.396 124.99C346.396 124.99 343.191 121.251 341.054 122.853C339.184 124.456 341.321 141.014 345.061 136.741C348.801 132.468 346.396 124.99 346.396 124.99Z" fill="#F6B283"/>
<path d="M351.205 110.034C351.205 110.034 346.931 131.4 351.205 144.754C355.479 158.108 367.499 155.704 373.376 155.437C379.253 155.17 385.397 148.76 386.198 138.077C387 127.394 385.13 104.96 385.13 104.96C385.13 104.96 357.349 99.8855 351.205 110.034Z" fill="#F6B283"/>
<path d="M346.664 112.705C346.664 112.705 352.541 107.897 354.144 107.096C352.541 114.841 351.472 129.53 351.472 133.269C351.739 137.008 359.219 142.35 370.705 140.213C382.192 137.81 383.795 135.139 383.795 128.729C383.795 122.319 381.925 104.693 381.925 104.693C381.925 104.693 385.932 105.494 388.603 109.5C388.336 128.462 388.336 140.48 387.267 151.163C386.199 161.846 372.842 167.188 368.034 169.324C360.02 167.722 347.198 165.051 346.664 152.499C346.13 139.946 346.664 112.705 346.664 112.705Z" fill="#BF723D"/>
<path d="M359.486 143.419C359.486 143.419 372.575 143.953 377.651 141.015C373.377 149.828 362.959 147.425 359.486 143.419Z" fill="white"/>
<path d="M362.691 130.866C362.157 131.934 361.623 133.003 361.356 134.071C361.088 135.139 360.821 136.207 361.356 137.276C361.623 138.344 362.958 138.611 364.027 138.878C365.095 139.145 366.164 139.145 367.232 139.145C368.301 139.145 369.369 138.878 370.438 138.611C371.506 138.344 372.575 137.543 372.575 136.742C372.575 135.673 372.041 134.605 371.774 133.537C371.239 132.468 370.705 131.4 370.171 130.599C371.506 132.468 372.575 134.338 372.842 136.742C372.842 137.276 372.575 137.81 372.041 138.344C371.506 138.611 370.972 138.878 370.438 139.145C369.369 139.412 368.301 139.679 366.965 139.679C365.897 139.679 364.561 139.679 363.493 139.412C362.424 139.145 361.088 138.611 360.821 137.543C360.287 136.474 360.554 135.139 361.088 134.071C361.623 132.735 362.157 131.667 362.691 130.866Z" fill="#BF723D"/>
<path d="M372.575 113.506C372.575 113.506 379.787 113.773 381.657 119.649C379.52 119.115 378.451 117.78 374.445 117.78C370.438 117.78 370.438 112.972 372.575 113.506Z" fill="#BF723D"/>
<path d="M362.157 113.507C362.157 113.507 354.945 113.774 353.075 119.649C355.212 119.115 356.28 117.78 360.287 117.78C364.294 117.78 364.561 112.973 362.157 113.507Z" fill="#BF723D"/>
<path d="M374.444 123.389C375.625 123.389 376.581 122.432 376.581 121.252C376.581 120.072 375.625 119.115 374.444 119.115C373.264 119.115 372.307 120.072 372.307 121.252C372.307 122.432 373.264 123.389 374.444 123.389Z" fill="white"/>
<path d="M376.314 120.183C376.047 119.649 375.246 119.115 374.444 119.115C373.91 119.115 373.376 119.382 373.109 119.649C373.109 119.916 373.109 119.916 373.109 120.183C373.109 121.252 373.91 122.053 374.711 122.053C375.513 122.32 376.314 121.252 376.314 120.183Z" fill="#894A20"/>
<path d="M374.444 121.519C374.592 121.519 374.711 121.4 374.711 121.252C374.711 121.105 374.592 120.985 374.444 120.985C374.297 120.985 374.177 121.105 374.177 121.252C374.177 121.4 374.297 121.519 374.444 121.519Z" fill="white"/>
<path d="M358.951 123.389C360.131 123.389 361.088 122.432 361.088 121.252C361.088 120.072 360.131 119.115 358.951 119.115C357.771 119.115 356.814 120.072 356.814 121.252C356.814 122.432 357.771 123.389 358.951 123.389Z" fill="white"/>
<path d="M357.348 120.183C357.616 119.649 358.417 119.115 359.218 119.115C359.753 119.115 360.287 119.382 360.554 119.649C360.554 119.916 360.554 119.916 360.554 120.183C360.554 121.252 359.753 122.053 358.951 122.053C358.15 122.32 357.348 121.252 357.348 120.183Z" fill="#894A20"/>
<path d="M359.218 121.519C359.366 121.519 359.485 121.4 359.485 121.252C359.485 121.105 359.366 120.985 359.218 120.985C359.071 120.985 358.951 121.105 358.951 121.252C358.951 121.4 359.071 121.519 359.218 121.519Z" fill="white"/>
<path d="M346.397 96.6811C346.397 96.6811 349.602 81.725 366.965 80.6567C384.329 79.5884 388.87 96.9482 388.603 99.0847C388.068 100.954 346.397 96.6811 346.397 96.6811Z" fill="#3A1152"/>
<path d="M346.397 117.246C346.397 117.246 351.472 108.165 367.767 106.563C379.521 105.495 387.534 113.24 388.603 114.041C388.603 118.047 388.603 123.388 388.603 123.388C388.603 123.388 402.494 120.451 408.103 111.103C413.713 101.756 388.336 85.197 357.616 90.8055C326.896 96.4141 325.561 106.296 325.828 112.171C326.095 118.047 346.664 123.388 346.664 123.388L346.397 117.246Z" fill="#4F2E64"/>
<path d="M347.999 119.65C347.999 119.65 354.678 115.911 364.561 119.116C362.959 127.662 359.753 128.73 354.143 128.196C348.534 127.662 347.465 123.389 347.999 119.65Z" fill="#392818"/>
<path d="M386.199 119.65C386.199 119.65 379.521 115.911 369.637 119.116C371.24 127.662 374.445 128.73 380.055 128.196C385.664 127.662 386.733 123.389 386.199 119.65Z" fill="#392818"/>
<path d="M362.424 118.849C362.424 118.849 367.766 118.315 372.575 119.116C372.04 121.52 371.239 123.656 371.239 123.656C371.239 123.656 369.636 120.718 367.499 120.718C365.362 120.718 363.759 121.52 362.958 123.656C362.157 122.588 362.424 118.849 362.424 118.849Z" fill="#392818"/>
<path d="M392.877 177.337C392.877 177.337 389.939 241.434 414.514 295.65C420.926 294.582 422.261 286.303 422.261 286.303C422.261 286.303 409.973 270.011 407.569 220.335C406.768 191.759 407.569 180.542 407.569 180.542C407.569 180.542 400.09 173.865 392.877 177.337Z" fill="#6953AA"/>
<path d="M346.931 177.337C346.931 177.337 349.869 241.435 325.294 295.651C318.883 294.582 317.547 286.303 317.547 286.303C317.547 286.303 329.835 270.012 332.239 220.336C333.04 191.759 332.239 180.542 332.239 180.542C332.239 180.542 339.719 173.865 346.931 177.337Z" fill="#6953AA"/>
<path d="M410.775 183.48C410.775 183.48 417.987 185.883 421.727 193.094C425.467 200.038 431.344 232.087 439.892 259.062C448.44 286.036 413.713 353.071 413.713 353.071L407.569 338.382C407.569 338.382 424.666 288.974 422.261 270.279C419.857 251.583 412.111 240.366 409.706 224.342C407.302 208.585 410.775 183.48 410.775 183.48Z" fill="#F6B283"/>
<path d="M328.499 183.48C328.499 183.48 321.287 185.883 317.547 193.094C313.807 200.038 307.931 232.087 299.382 259.062C290.834 286.036 329.034 353.071 329.034 353.071L334.91 339.184C334.91 339.184 314.342 288.707 316.746 270.279C319.15 251.583 326.897 240.366 329.301 224.342C331.972 208.585 328.499 183.48 328.499 183.48Z" fill="#F6B283"/>
<path d="M356.014 168.257C356.014 168.257 348.534 171.996 347.198 182.679C345.061 201.107 345.061 256.391 345.061 256.391H349.068C349.068 256.391 350.137 202.442 350.404 193.629C350.671 184.815 353.075 176.803 355.746 173.331C355.746 172.53 356.014 168.257 356.014 168.257Z" fill="#FFD110"/>
<path d="M380.055 167.99C380.055 167.99 390.473 171.996 391.542 182.679C393.679 201.107 393.679 256.658 393.679 256.658H389.672C389.672 256.658 388.603 202.709 388.336 193.896C388.069 185.083 385.932 177.337 379.788 173.866C379.788 171.996 380.055 167.99 380.055 167.99Z" fill="#FFD110"/>
<path d="M391.275 282.297H347.466C346.13 282.297 345.061 281.229 345.061 279.893V256.391C345.061 255.055 346.13 253.987 347.466 253.987H391.275C392.61 253.987 393.679 255.055 393.679 256.391V279.626C393.679 281.229 392.61 282.297 391.275 282.297Z" fill="#5E544F"/>
<path d="M358.685 251.316H352.541V255.322H358.685V251.316Z" fill="#5E544F"/>
<path d="M388.336 282.297H350.404C349.069 282.297 348 281.229 348 279.893V256.391C348 255.055 349.069 253.987 350.404 253.987H388.604C389.939 253.987 391.008 255.055 391.008 256.391V279.893C390.741 281.229 389.672 282.297 388.336 282.297Z" fill="#443B36"/>
<path d="M359.754 256.925H349.336V261.465H359.754V256.925Z" fill="#877B76"/>
<path d="M374.713 279.893C380.761 279.893 385.665 274.99 385.665 268.943C385.665 262.895 380.761 257.993 374.713 257.993C368.664 257.993 363.76 262.895 363.76 268.943C363.76 274.99 368.664 279.893 374.713 279.893Z" fill="#877B76"/>
<path d="M374.713 279.092C380.319 279.092 384.863 274.548 384.863 268.943C384.863 263.338 380.319 258.794 374.713 258.794C369.106 258.794 364.562 263.338 364.562 268.943C364.562 274.548 369.106 279.092 374.713 279.092Z" fill="#1E1C1B"/>
<path d="M374.713 276.955C379.139 276.955 382.727 273.368 382.727 268.943C382.727 264.518 379.139 260.931 374.713 260.931C370.287 260.931 366.699 264.518 366.699 268.943C366.699 273.368 370.287 276.955 374.713 276.955Z" fill="#302E2D"/>
<path d="M374.713 275.887C378.549 275.887 381.658 272.778 381.658 268.943C381.658 265.108 378.549 261.999 374.713 261.999C370.877 261.999 367.767 265.108 367.767 268.943C367.767 272.778 370.877 275.887 374.713 275.887Z" fill="#877B76"/>
<path d="M373.644 267.607C375.12 267.607 376.316 266.651 376.316 265.471C376.316 264.291 375.12 263.334 373.644 263.334C372.169 263.334 370.973 264.291 370.973 265.471C370.973 266.651 372.169 267.607 373.644 267.607Z" fill="#B7ACA9"/>
<path d="M557.16 198.703C557.16 198.703 575.592 215.262 577.729 216.063C579.866 216.864 648.785 197.902 652.525 197.101C656.532 204.846 654.662 209.119 654.662 209.119C654.662 209.119 599.1 231.553 583.339 236.361C567.578 241.168 545.14 213.926 545.14 213.926L557.16 198.703Z" fill="#F6B283"/>
<path d="M650.923 197.368C650.923 197.368 654.128 197.101 657.601 191.492C661.074 185.884 662.409 181.343 668.286 177.871C674.163 174.399 677.368 174.399 676.567 176.803C675.766 179.207 673.629 180.008 671.492 182.145C669.355 184.281 689.122 176.803 696.334 176.002C700.074 176.002 698.739 178.94 695.8 180.008C692.862 181.076 683.512 183.48 682.711 184.281C685.115 185.082 685.115 187.753 684.047 188.821C686.451 190.691 685.649 193.095 684.314 193.896C685.916 196.032 684.581 197.635 683.779 198.436C682.978 199.237 679.505 202.709 673.361 203.243C667.218 203.777 656.8 208.051 654.663 208.852C652.526 209.653 650.923 197.368 650.923 197.368Z" fill="#F6B283"/>
<path d="M512.55 366.158C512.55 366.158 511.749 409.958 510.68 413.964C509.612 417.97 444.7 510.11 441.227 517.855C434.282 519.458 427.871 508.508 427.871 508.508C427.871 508.508 456.186 439.069 480.228 417.436C484.502 409.424 482.365 366.158 482.365 366.158H512.55Z" fill="#F6B283"/>
<path d="M538.996 364.823C538.996 364.823 538.729 365.357 538.462 366.425C536.592 373.102 529.379 400.611 525.105 417.703C520.297 437.2 514.955 505.303 517.359 516.52C508.811 519.992 499.728 518.123 499.728 518.123C499.728 518.123 495.454 482.602 499.728 422.778C504.002 362.953 504.002 362.686 504.002 362.686L538.996 364.823Z" fill="#F6B283"/>
<path d="M499.728 518.122C499.728 518.122 494.118 541.625 494.919 549.637C526.173 552.308 553.42 554.711 556.092 549.637C558.763 544.563 549.681 541.091 539.263 540.022C528.845 538.954 518.16 519.992 517.625 516.52C514.153 514.917 499.728 518.122 499.728 518.122Z" fill="#BF723D"/>
<path d="M495.187 544.564C494.92 546.433 494.92 548.303 495.187 549.371C526.441 552.042 553.688 554.445 556.359 549.371C557.16 547.769 556.893 546.433 555.825 545.098C550.749 549.371 524.571 546.967 495.187 544.564Z" fill="#E2E2E2"/>
<path d="M474.885 227.814C474.885 227.814 452.98 271.08 449.508 295.651C452.98 297.52 454.85 297.787 454.85 297.787C454.85 297.787 464.467 261.465 478.358 234.224C479.693 224.609 474.885 227.814 474.885 227.814Z" fill="#E65520"/>
<path d="M481.564 263.335C481.564 263.335 469.543 284.701 472.481 323.159C475.42 361.618 474.084 368.829 474.084 368.829C474.084 368.829 500.53 371.767 516.29 370.431C516.824 358.947 520.03 327.165 520.03 327.165L516.557 364.823C516.557 364.823 533.119 370.698 547.01 368.829C552.352 335.979 556.359 297.52 544.873 261.465C523.503 261.732 481.564 263.335 481.564 263.335Z" fill="#311F68"/>
<path d="M519.495 295.651L532.05 284.434L557.427 299.657L559.831 306.334L542.735 319.688L517.091 303.663L519.495 295.651Z" fill="#232221"/>
<path d="M555.825 312.477L555.023 310.875L554.756 310.607C554.756 310.34 553.688 308.738 553.42 308.738C551.551 306.868 547.276 307.403 543.537 309.806C540.331 311.943 538.996 314.881 539.53 316.75L540.598 318.353C540.598 318.353 540.598 318.353 540.598 318.62L541.667 320.756L542.735 320.222C544.872 320.756 548.078 319.955 550.749 318.353C552.886 317.017 554.222 315.148 554.756 313.278L555.825 312.477Z" fill="#635C59"/>
<path d="M551.087 320.501C554.962 318.361 557.12 314.847 555.907 312.652C554.694 310.457 550.571 310.412 546.696 312.552C542.822 314.691 540.664 318.205 541.876 320.4C543.089 322.595 547.213 322.64 551.087 320.501Z" fill="#877B76"/>
<path d="M550.693 319.826C553.535 318.257 555.144 315.729 554.288 314.179C553.432 312.63 550.435 312.646 547.594 314.215C544.752 315.783 543.143 318.311 543.999 319.861C544.855 321.41 547.852 321.395 550.693 319.826Z" fill="#A09490"/>
<path d="M523.235 303.129L535.523 291.912L559.564 306.334H559.831L557.427 299.657L532.05 284.434L519.495 295.651L517.091 303.663L522.166 306.868L523.235 303.129Z" fill="#353333"/>
<path d="M535.523 291.912L559.565 306.334H559.832L557.428 299.657L532.051 284.434L535.523 291.912Z" fill="#3F3D3D"/>
<path d="M545.941 303.396C544.872 302.061 542.468 302.862 540.064 303.396C543.002 302.061 543.27 299.123 541.4 298.589C539.53 298.055 535.256 300.191 531.249 299.924C527.509 299.657 520.831 295.384 522.434 293.248C524.036 291.111 527.242 288.974 528.043 287.906C528.845 286.838 530.715 282.565 528.043 283.366C525.372 284.167 519.762 288.707 517.358 290.043C514.687 291.111 506.673 289.508 506.673 289.508C498.926 284.968 463.665 264.136 459.659 258.528C455.385 252.118 460.193 218.734 460.193 218.734H440.96C440.96 218.734 435.35 253.186 438.021 265.472C440.158 276.155 491.18 296.452 502.933 300.993C517.358 314.346 527.776 314.079 532.852 314.613C537.927 314.88 541.667 314.346 542.201 313.011C542.735 311.676 541.934 311.409 540.331 311.141C545.139 310.34 545.941 309.539 545.674 308.471C545.407 307.402 545.139 306.868 542.468 307.135C545.139 306.334 547.276 304.732 545.941 303.396Z" fill="#F6B283"/>
<path d="M546.742 220.603L550.749 223.274C550.749 223.274 558.229 206.448 565.708 201.107C553.153 184.014 534.455 167.722 528.043 166.387C521.632 165.052 519.495 173.331 519.495 173.331L546.742 220.603Z" fill="#48A7C3"/>
<path d="M476.755 163.182C476.755 163.182 455.118 158.909 447.104 179.207C439.09 199.504 435.884 222.206 435.884 222.206C435.884 222.206 459.125 221.938 466.337 227.547C470.077 220.069 469.81 222.473 469.81 222.473C469.81 222.473 482.899 246.242 479.961 266.54C509.345 280.695 547.01 267.875 547.01 267.875C547.01 267.875 549.414 215.262 550.482 200.84C551.551 186.418 528.044 166.387 528.044 166.387L502.132 161.313L476.755 163.182Z" fill="url(#paint0_linear)"/>
<path d="M514.954 163.45C514.954 163.45 530.181 176.803 529.646 200.306C529.112 223.808 489.577 292.179 473.549 305.8C477.824 309.005 477.824 309.005 477.824 309.005C477.824 309.005 499.728 287.906 517.091 253.721C534.455 219.535 537.66 205.113 536.859 194.43C536.057 183.747 526.708 168.524 524.838 165.319C522.701 162.381 515.489 162.381 514.954 163.45Z" fill="#E65520"/>
<path d="M489.844 295.918C492.516 292.713 495.454 288.974 498.392 284.701C496.79 283.632 494.92 282.564 492.783 281.496C489.844 286.036 486.906 290.042 484.235 293.781C486.105 294.315 487.974 295.117 489.844 295.918Z" fill="#F6B283"/>
<path d="M442.83 514.651C442.83 514.651 439.357 548.837 442.83 562.457C443.097 569.668 427.871 572.072 422.795 563.793C417.72 555.246 415.583 525.868 415.583 521.862C415.583 517.856 428.138 504.77 429.206 505.037C430.008 511.714 440.693 514.384 442.83 514.651Z" fill="#BF723D"/>
<path d="M424.665 557.383C420.124 549.638 417.72 524.8 417.453 517.322C416.384 519.192 415.583 520.794 415.583 521.862C415.583 525.868 417.72 555.514 422.795 563.793C427.871 572.339 443.097 569.669 442.83 562.458C442.563 561.923 442.563 561.389 442.563 560.588C438.021 564.06 428.405 563.793 424.665 557.383Z" fill="#E2E2E2"/>
<path d="M454.583 287.371L484.234 302.06C484.234 302.06 486.104 343.189 475.419 359.748C449.24 366.692 427.336 340.519 427.336 340.519C427.336 340.519 430.274 304.998 454.583 287.371Z" fill="#E65520"/>
<path d="M458.59 285.768C458.59 285.768 445.233 288.439 439.089 298.054C443.363 311.408 464.734 319.687 464.734 319.687C464.734 319.687 470.343 304.998 479.693 299.923C476.487 292.979 458.59 285.768 458.59 285.768Z" fill="#F4764E"/>
<path d="M506.673 96.4136C506.673 96.4136 516.557 99.6185 515.488 110.034C514.42 120.45 516.022 119.649 518.426 126.593C520.831 133.537 520.029 138.344 519.228 140.481C518.426 142.35 524.036 153.3 519.762 164.517C509.077 163.449 499.727 159.443 499.727 159.443L489.577 135.139L496.522 96.4136H506.673Z" fill="#311F68"/>
<path d="M477.022 134.338L475.686 163.182C475.686 163.182 501.063 185.082 510.413 188.287C520.564 182.144 510.413 162.915 510.413 162.915L505.07 159.977L502.933 135.674L477.022 134.338Z" fill="#F6B283"/>
<path d="M504.269 97.2147C504.269 97.2147 516.022 117.512 510.413 145.288C508.543 150.095 481.296 149.828 474.083 132.735C469.542 134.605 460.994 131.934 462.063 125.525C463.131 119.115 470.611 119.916 470.611 119.916L468.741 109.233C468.741 109.233 493.584 95.8794 504.269 97.2147Z" fill="#F6B283"/>
<path d="M495.186 98.2836C495.186 98.2836 495.988 105.762 487.44 110.569C478.892 115.109 485.303 120.718 482.364 128.196C479.426 135.674 481.296 140.214 484.501 145.556C487.707 150.897 487.707 151.164 486.104 157.841C484.768 164.518 488.775 171.195 494.118 175.201C499.46 179.207 498.926 181.343 497.59 188.287C496.255 195.231 498.926 200.573 501.865 201.374C494.118 205.113 477.022 203.511 475.686 189.623C473.282 188.821 476.755 201.908 478.624 203.243C473.549 200.306 468.741 197.635 469.008 187.219C469.275 177.07 470.343 174.934 466.871 173.331C463.398 171.729 451.644 169.058 445.768 183.48C443.898 173.598 456.453 153.301 454.583 147.959C454.316 147.425 457.788 131.935 457.788 124.19C457.788 116.445 455.117 108.165 455.117 108.165L495.186 98.2836Z" fill="#311F68"/>
<path d="M504.002 92.4076C504.002 92.4076 495.988 75.3149 472.213 80.6564C448.439 85.9979 453.782 116.177 453.782 116.177L504.002 92.4076Z" fill="#FFD110"/>
<path d="M456.987 131.133C456.987 131.133 456.987 122.32 469.275 116.444C485.303 108.699 505.337 102.557 513.084 112.171C513.618 114.575 513.618 119.649 517.091 122.053C526.707 119.649 540.331 98.2834 525.639 89.47C510.947 80.6566 488.241 83.8615 467.939 91.6066C445.501 100.153 436.953 118.848 439.09 131.935C441.227 145.021 451.377 148.493 454.316 147.959C455.651 143.419 456.186 135.14 456.987 131.133Z" fill="#FFA912"/>
<path d="M506.406 116.978H519.495C519.495 116.978 520.297 124.456 515.755 126.86C511.214 129.263 505.07 123.388 506.406 116.978Z" fill="#392818"/>
<path d="M485.837 116.978H501.865C501.865 116.978 502.933 125.257 497.323 127.661C491.714 130.331 484.234 123.922 485.837 116.978Z" fill="#392818"/>
<path d="M499.995 117.512C499.995 117.512 504.269 114.574 508.543 118.046C507.742 119.382 507.742 119.916 507.742 119.916C507.742 119.916 505.337 116.177 501.063 119.382C499.194 120.45 499.995 117.512 499.995 117.512Z" fill="#392818"/>
<path d="M485.837 116.978L474.885 122.586L475.152 124.189L486.371 119.916L485.837 116.978Z" fill="#392818"/>
<path d="M575.86 24.571C568.113 22.9685 563.305 28.0429 561.969 30.1795C561.969 30.1795 561.969 30.1795 561.702 30.4466C561.435 30.7137 561.435 30.7137 561.435 30.7137C560.099 32.8503 557.161 39.26 561.702 45.6698C564.106 49.1417 571.853 54.7503 600.168 72.1101C628.484 89.4698 690.457 124.991 690.457 124.991L694.197 119.382L694.731 118.581L698.471 112.972C698.471 112.972 641.84 69.7064 614.86 49.943C588.147 30.4466 580.134 25.3722 575.86 24.571Z" fill="#A7CFEA"/>
<path d="M569.879 36.5185C572.091 33.2066 571.398 28.8615 568.331 26.8135C565.264 24.7654 560.984 25.79 558.771 29.1019C556.559 32.4137 557.252 36.7588 560.319 38.8068C563.386 40.8549 567.666 39.8304 569.879 36.5185Z" fill="#A7CFEA"/>
<path d="M682.443 104.159L711.56 88.4015L716.101 92.9417L693.395 119.382L682.443 104.159Z" fill="#A7CFEA"/>
<path d="M612.723 51.5452L678.704 0L686.985 5.60854L636.23 70.2403L612.723 51.5452Z" fill="#A7CFEA"/>
<path d="M676.032 113.773L672.56 146.623L678.437 149.294L694.197 118.046L676.032 113.773Z" fill="#A7CFEA"/>
<path d="M600.702 69.4392L578.264 150.095L586.812 155.971L627.148 84.1282L600.702 69.4392Z" fill="#A7CFEA"/>
<path d="M608.449 106.562C607.113 108.432 604.709 108.966 602.839 107.63L585.476 96.1463C583.606 94.8109 583.072 92.4073 584.407 90.5377C585.743 88.6682 588.147 88.1341 590.017 89.4694L607.38 100.954C609.25 102.289 609.784 104.693 608.449 106.562Z" fill="#A7CFEA"/>
<path d="M600.969 131.133C599.634 133.002 597.23 133.537 595.36 132.201L577.996 120.717C576.126 119.382 575.592 116.978 576.928 115.109C578.263 113.239 580.668 112.705 582.538 114.04L599.901 125.524C601.504 126.86 602.038 129.263 600.969 131.133Z" fill="#A7CFEA"/>
<path d="M649.853 44.8684C651.189 42.9989 650.655 40.5952 648.785 39.2599L631.422 27.7757C629.552 26.4404 627.148 26.9745 625.812 28.844C624.476 30.7135 625.011 33.1172 626.88 34.4526L644.244 45.9367C646.114 47.2721 648.518 46.7379 649.853 44.8684Z" fill="#A7CFEA"/>
<path d="M669.621 28.3098C670.957 26.4403 670.423 24.0367 668.553 22.7013L651.189 11.2171C649.32 9.88176 646.915 10.4159 645.58 12.2854C644.244 14.1549 644.778 16.5586 646.648 17.894L664.012 29.3781C665.881 30.7135 668.286 30.1793 669.621 28.3098Z" fill="#A7CFEA"/>
<defs>
<linearGradient id="paint0_linear" x1="493.201" y1="161.313" x2="493.201" y2="273.197" gradientUnits="userSpaceOnUse">
<stop stop-color="#4EB0C6"/>
<stop offset="1" stop-color="#368DB8"/>
</linearGradient>
</defs>
</svg>
