<svg width="515" height="423" viewBox="0 0 515 423" fill="none" xmlns="http://www.w3.org/2000/svg">
<path opacity="0.5" d="M235.156 44.9112C233.236 36.6012 225.812 30.4333 216.948 30.4333C215.323 30.4333 213.735 30.6549 212.22 31.0242C207.825 21.6431 198.333 15.1797 187.327 15.1797C184.483 15.1797 181.713 15.6229 179.128 16.4354C173.182 6.57418 162.397 0 150.098 0C135.435 0 122.952 9.30726 118.224 22.3079C114.863 20.4243 111.022 19.3901 106.923 19.3901C94.0698 19.3901 83.6545 29.8054 83.6545 42.6583C83.6545 43.4339 83.6915 44.1726 83.7654 44.9112H235.156Z" fill="white"/>
<path opacity="0.5" d="M441.504 189.986C442.427 185.997 446.01 183.006 450.257 183.006C451.033 183.006 451.808 183.116 452.51 183.301C454.615 178.795 459.195 175.656 464.513 175.656C465.88 175.656 467.21 175.877 468.465 176.247C471.309 171.519 476.517 168.343 482.463 168.343C489.517 168.343 495.538 172.812 497.791 179.091C499.416 178.204 501.262 177.687 503.22 177.687C509.388 177.687 514.411 182.71 514.411 188.878C514.411 189.247 514.374 189.617 514.374 189.949H441.504V189.986Z" fill="white"/>
<path opacity="0.5" d="M313.529 138.021C312.384 133.109 307.989 129.452 302.745 129.452C301.784 129.452 300.861 129.563 299.938 129.821C297.352 124.281 291.702 120.44 285.201 120.44C283.502 120.44 281.877 120.699 280.363 121.179C276.854 115.38 270.465 111.465 263.189 111.465C254.509 111.465 247.123 116.969 244.316 124.688C242.321 123.58 240.068 122.952 237.631 122.952C230.022 122.952 223.854 129.12 223.854 136.728C223.854 137.171 223.891 137.614 223.928 138.058H313.529V138.021Z" fill="white"/>
<path opacity="0.5" d="M488.003 80.3674C486.489 73.7194 480.543 68.8072 473.452 68.8072C472.159 68.8072 470.903 68.9919 469.684 69.2873C466.176 61.7898 458.604 56.6191 449.777 56.6191C447.487 56.6191 445.308 56.9515 443.24 57.6163C438.512 49.7495 429.87 44.5049 420.046 44.5049C408.338 44.5049 398.366 51.9285 394.561 62.3438C391.902 60.8665 388.8 60.017 385.513 60.017C375.245 60.017 366.935 68.327 366.935 78.5946C366.935 79.1855 366.972 79.8134 367.009 80.4043H488.003V80.3674Z" fill="white"/>
<path opacity="0.5" d="M0 161.326C0.775605 158.039 3.73031 155.564 7.239 155.564C7.9038 155.564 8.53166 155.638 9.1226 155.786C10.8585 152.055 14.6626 149.47 19.0577 149.47C20.2027 149.47 21.2738 149.655 22.3079 149.95C24.6716 146.035 28.9559 143.413 33.8681 143.413C39.7036 143.413 44.6897 147.106 46.5733 152.314C47.9029 151.575 49.4541 151.132 51.0792 151.132C56.2129 151.132 60.3495 155.269 60.3495 160.402C60.3495 160.698 60.3495 160.993 60.3126 161.289H0V161.326Z" fill="white"/>
<path d="M231.415 197.448V195.648H225.337V197.448H231.415Z" fill="#F7CC7F"/>
<path d="M238.15 237.88V195.451C238.15 192.652 235.87 190.373 233.071 190.373H224.234C221.434 190.373 219.155 192.652 219.155 195.451V237.88C219.155 240.679 221.434 242.959 224.234 242.959H233.071C235.87 242.959 238.15 240.679 238.15 237.88Z" fill="#F47458"/>
<path d="M228.672 242.959H233.751C236.19 242.959 238.15 241.879 238.15 240.559V192.772C238.15 191.452 236.75 190.373 234.351 190.373H228.672V242.959Z" fill="#B75742"/>
<path d="M229.525 222.071V209.834H227.286V222.071H229.525Z" fill="#1A1A1A"/>
<path d="M256.224 237.8V206.928C256.224 204.089 253.905 201.769 251.066 201.769H242.388C239.549 201.769 237.229 204.089 237.229 206.928V237.8C237.229 240.639 239.549 242.958 242.388 242.958H251.066C253.905 242.958 256.224 240.639 256.224 237.8Z" fill="#355389"/>
<path d="M246.747 242.958H251.825C254.265 242.958 256.224 242.118 256.224 241.079V203.689C256.224 202.649 254.265 201.809 251.825 201.809H246.747V242.958Z" fill="#5184CE"/>
<path d="M249.486 207.276V205.876H243.408V207.276H249.486Z" fill="#F7CC7F"/>
<path d="M247.582 226.605V217.007H245.343V226.605H247.582Z" fill="#1A1A1A"/>
<path d="M156.931 243.598H156.012V252.836H156.931V243.598Z" fill="#13375B"/>
<path d="M266.902 243.598H265.982V252.836H266.902V243.598Z" fill="#13375B"/>
<path d="M227.193 223.964H164.53C161.45 223.964 158.971 226.443 158.971 229.522V237.36C158.971 240.439 161.45 242.919 164.53 242.919H227.233C230.312 242.919 232.791 240.439 232.791 237.36V229.522C232.791 226.443 230.272 223.964 227.193 223.964Z" fill="#B75742"/>
<path d="M232.791 233.441V228.363C232.791 225.923 231.272 223.964 229.432 223.964H162.33C160.491 223.964 158.971 225.923 158.971 228.363V233.441H232.791Z" fill="#91342A"/>
<path d="M170.847 230.682H168.328V236.76H170.847V230.682Z" fill="#F7CC7F"/>
<path d="M223.394 230.682H220.874V236.76H223.394V230.682Z" fill="#F7CC7F"/>
<path d="M203.439 232.601H186.244V234.84H203.439V232.601Z" fill="#1A1A1A"/>
<path d="M216.155 204.969H175.565C172.246 204.969 169.607 207.648 169.607 210.927V217.965C169.607 221.284 172.286 223.923 175.565 223.923H216.155C219.474 223.923 222.113 221.244 222.113 217.965V210.927C222.153 207.648 219.474 204.969 216.155 204.969Z" fill="#4E9B87"/>
<path d="M222.154 214.446V209.367C222.154 206.928 221.074 204.969 219.755 204.969H171.967C170.648 204.969 169.568 206.928 169.568 209.367V214.446H222.154Z" fill="#3C8F7C"/>
<path d="M176.646 211.687H174.846V217.765H176.646V211.687Z" fill="#F7CC7F"/>
<path d="M262.863 242.919L219.394 242.879L218.675 223.524H262.863C268.221 223.524 272.58 227.883 272.58 233.242C272.58 238.56 268.221 242.919 262.863 242.919Z" fill="#FAE0B2"/>
<path d="M228.672 233.202C228.672 238.561 224.673 242.919 219.754 242.919C214.835 242.919 210.836 238.561 210.836 233.202C210.836 227.843 214.835 223.485 219.754 223.485C224.673 223.485 228.672 227.843 228.672 233.202Z" fill="#F7CC7F"/>
<path d="M237.869 243.839C237.469 243.519 237.389 242.959 237.669 242.519C240.628 238.36 241.428 233.922 240.108 229.363C239.388 226.803 238.109 224.884 237.429 223.924C237.149 223.524 237.189 223.005 237.549 222.685C237.949 222.325 238.588 222.365 238.948 222.845C239.748 223.924 241.068 226.044 241.908 228.803C242.987 232.402 243.307 237.881 239.228 243.679C238.908 244.039 238.308 244.159 237.869 243.839Z" fill="#F47458"/>
<path d="M253.785 243.839C253.385 243.519 253.305 242.959 253.585 242.519C256.544 238.36 257.344 233.922 256.024 229.363C255.305 226.803 254.025 224.884 253.345 223.924C253.065 223.524 253.105 223.005 253.465 222.685C253.865 222.325 254.505 222.365 254.865 222.845C255.665 223.924 256.984 226.044 257.824 228.803C258.904 232.402 259.224 237.881 255.145 243.679C254.785 244.039 254.185 244.159 253.785 243.839Z" fill="#F47458"/>
<path d="M227.112 231.482C226.632 228.442 224.992 226.883 223.672 226.123C221.753 225.003 219.234 224.843 217.034 225.683C214.915 226.483 213.235 228.362 212.595 230.522C212.036 232.441 212.435 234.441 213.715 236.08C215.835 238.84 219.114 238.4 220.713 237.72C222.153 237.08 223.233 235.6 223.473 233.961C223.672 232.601 223.033 231.322 221.873 230.562C220.713 229.802 219.234 229.802 218.114 230.562C217.274 231.122 216.434 232.161 217.234 234.201L217.874 233.961C217.354 232.681 217.554 231.761 218.474 231.162C219.394 230.562 220.553 230.562 221.513 231.162C222.473 231.761 222.953 232.801 222.793 233.881C222.593 235.32 221.673 236.6 220.433 237.12C219.034 237.72 216.115 238.12 214.235 235.72C212.795 233.841 212.875 232.001 213.235 230.802C213.795 228.842 215.355 227.123 217.234 226.403C219.274 225.603 221.553 225.763 223.313 226.763C224.992 227.722 226.072 229.402 226.392 231.641C226.832 234.521 226.312 236.8 224.792 238.44C221.953 241.519 215.955 241.479 214.915 241.439C215.275 241.679 215.675 241.919 216.075 242.119H216.115C217.954 242.119 222.593 241.799 225.272 238.88C226.992 237.08 227.591 234.561 227.112 231.482Z" fill="#F47458"/>
<path d="M215.475 211.687H213.676V217.765H215.475V211.687Z" fill="#F7CC7F"/>
<path d="M201.279 213.606H189.042V215.845H201.279V213.606Z" fill="#1A1A1A"/>
<path d="M185.131 204.172L164.461 243.363L165.062 243.68L185.732 204.489L185.131 204.172Z" fill="black"/>
<path d="M208.329 203.874L207.728 204.191L228.943 244.407L229.545 244.09L208.329 203.874Z" fill="black"/>
<path d="M251.985 201.215L251.356 201.471L268.545 243.653L269.175 243.397L251.985 201.215Z" fill="black"/>
<path d="M231.408 190L230.767 190.226L249.606 243.623L250.247 243.397L231.408 190Z" fill="black"/>
<path d="M271.101 242.879H151.972V244.119H271.101V242.879Z" fill="#13375B"/>
<path d="M68.2349 376.242C68.2349 376.242 159.131 391.318 160.25 390.678C161.33 390.038 173.127 339.212 173.127 339.212C173.127 339.212 97.947 325.696 96.7473 325.696C95.5476 325.696 79.192 338.772 78.9521 339.652C78.7121 340.532 68.2349 376.242 68.2349 376.242Z" fill="#183658"/>
<path d="M345.561 389.16C347.76 389.359 457.851 387 457.851 387L449.573 361.687C449.573 361.687 434.297 338.613 426.259 339.013C418.181 339.453 370.234 331.655 361.957 337.413C353.679 343.172 346.281 338.573 342.322 352.329C338.403 366.046 335.324 367.605 338.403 375.883C341.402 384.121 345.561 389.16 345.561 389.16Z" fill="#183658"/>
<path d="M114.144 422.75C134.838 422.75 151.614 405.974 151.614 385.28C151.614 364.586 134.838 347.81 114.144 347.81C93.4496 347.81 76.6737 364.586 76.6737 385.28C76.6737 405.974 93.4496 422.75 114.144 422.75Z" fill="#1A1A1A"/>
<path d="M114.144 411.353C128.544 411.353 140.217 399.68 140.217 385.28C140.217 370.88 128.544 359.207 114.144 359.207C99.7442 359.207 88.0709 370.88 88.0709 385.28C88.0709 399.68 99.7442 411.353 114.144 411.353Z" fill="#9E9DA2"/>
<path d="M114.144 402.715C123.773 402.715 131.579 394.909 131.579 385.28C131.579 375.651 123.773 367.845 114.144 367.845C104.514 367.845 96.7084 375.651 96.7084 385.28C96.7084 394.909 104.514 402.715 114.144 402.715Z" fill="#D8D9DD"/>
<path d="M402.666 422.75C423.36 422.75 440.136 405.974 440.136 385.28C440.136 364.586 423.36 347.81 402.666 347.81C381.972 347.81 365.196 364.586 365.196 385.28C365.196 405.974 381.972 422.75 402.666 422.75Z" fill="#1A1A1A"/>
<path d="M402.666 411.353C417.066 411.353 428.74 399.68 428.74 385.28C428.74 370.88 417.066 359.207 402.666 359.207C388.267 359.207 376.593 370.88 376.593 385.28C376.593 399.68 388.267 411.353 402.666 411.353Z" fill="#9E9DA2"/>
<path d="M385.231 385.28C385.231 394.917 393.029 402.715 402.666 402.715C412.304 402.715 420.102 394.917 420.102 385.28C420.102 375.643 412.304 367.845 402.666 367.845C393.029 367.845 385.231 375.643 385.231 385.28Z" fill="#D8D9DD"/>
<path d="M488.683 349.61C485.523 328.735 475.286 324.337 444.974 318.258C411.543 311.58 369.115 289.786 369.115 289.786C369.115 289.786 296.734 254.315 279.019 250.236C261.303 246.158 217.675 247.317 181.045 247.637C144.415 247.917 122.9 258.114 104.305 272.63C85.7103 287.147 53.439 298.224 53.439 298.224L47.5605 299.263C41.5222 300.343 37.1633 305.582 37.1633 311.7V363.526C37.1633 369.405 41.1223 374.523 46.8007 376.043L67.9951 381.641C69.7146 381.921 71.3142 380.722 71.5141 378.962C73.8335 357.768 92.1486 341.652 114.023 341.652C137.257 341.692 156.331 360.767 156.331 384.041C156.331 386.68 156.092 389.279 155.612 391.759C155.132 394.358 157.131 396.717 159.771 396.717H354.718C358.517 396.717 361.437 393.398 360.957 389.639C360.717 387.84 360.597 386 360.597 384.121C360.517 361.167 379.112 342.132 402.066 341.652C425.859 341.172 445.294 360.287 445.294 384.001C445.294 385.56 445.214 387.12 445.054 388.639C444.574 392.958 447.933 396.717 452.252 396.717H480.285C485.363 396.717 489.522 392.598 489.522 387.48V360.327C489.442 356.768 489.242 353.169 488.683 349.61Z" fill="#F7CC7F"/>
<path d="M38.4031 317.859H61.477C63.4364 317.859 64.7961 319.858 64.0363 321.697L61.437 327.896C58.9576 333.814 53.1992 337.653 46.8009 337.653H38.4031C36.7636 337.653 35.4039 336.334 35.4039 334.654V320.858C35.4039 319.178 36.7636 317.859 38.4031 317.859Z" fill="#CF283C"/>
<path d="M451.973 327.416C464.69 329.376 479.326 341.412 479.326 341.412C482.845 345.171 479.925 351.29 474.807 350.97L450.013 349.41C444.855 349.09 440.456 345.571 439.056 340.613C436.617 332.255 438.657 325.417 451.973 327.416Z" fill="#EAFCFC"/>
<path d="M37.2837 365.486C35.6841 365.446 34.5644 367.045 35.1642 368.525C36.8038 372.724 40.3628 376.003 44.9216 377.203L68.6753 383.481C70.5947 383.801 72.3943 382.441 72.6342 380.482C73.0741 376.443 74.0338 372.604 75.4335 368.965C75.9133 367.725 74.9936 366.406 73.7139 366.366L37.2837 365.486Z" fill="#EAB054"/>
<path d="M445.454 375.243C443.655 375.203 442.255 376.763 442.495 378.562C442.735 380.562 442.895 382.561 442.895 384.641C442.895 386.4 442.815 388.08 442.615 389.799C442.095 394.598 445.814 398.797 450.613 398.797H481.724C487.363 398.797 491.962 394.198 491.962 388.56V380.482C491.962 378.202 490.122 376.323 487.843 376.283L445.454 375.243Z" fill="#EAB054"/>
<path opacity="0.5" d="M369.154 301.783C368.755 301.543 327.526 278.949 300.213 266.272C273.14 253.756 242.948 255.075 241.668 255.115C238.189 255.035 165.929 253.476 143.735 260.394C121.341 267.352 92.2285 299.143 90.9888 300.503L90.6689 300.863L98.5068 337.653L99.3466 337.613C122.14 336.334 139.576 342.412 149.813 355.168C157.531 364.806 158.491 375.003 158.491 375.123L158.571 376.003L240.749 378.122H241.708L242.708 378.162L357.238 380.402V379.402C357.797 342.172 369.594 303.342 369.674 302.942L369.914 302.183L369.154 301.783ZM160.29 374.083C159.89 371.324 158.171 362.606 151.373 354.049C144.055 344.851 129.179 334.214 100.066 335.654L92.7883 301.503C96.1474 297.864 123.74 268.752 144.335 262.313C164.929 255.875 231.911 256.955 240.749 257.115V376.163L160.29 374.083ZM355.238 378.402L242.668 376.203V257.075C247.947 256.915 275.02 256.755 299.413 268.072C324.726 279.789 361.996 300.103 367.555 303.142C365.875 308.741 355.958 344.091 355.238 378.402Z" fill="#FEB546"/>
<path opacity="0.5" d="M35.1639 368.524C36.8034 372.723 40.3625 376.002 44.9213 377.202L68.6749 383.48C70.5944 383.8 72.3939 382.441 72.6339 380.481C72.7938 378.922 73.0338 377.402 73.3537 375.922L35.1639 368.524Z" fill="#FEB546"/>
<path opacity="0.5" d="M442.816 386.84C442.776 387.84 442.696 388.8 442.576 389.799C442.056 394.598 445.775 398.797 450.574 398.797H481.685C487.324 398.797 491.923 394.198 491.923 388.56V386.88H442.816V386.84Z" fill="#FEB546"/>
<path d="M362.397 386.84C362.397 384.72 362.556 382.641 362.836 380.601C363.196 378.162 361.357 375.923 358.877 375.843L156.092 370.884C153.892 370.844 152.293 372.923 152.893 375.083C153.932 378.802 154.492 382.721 154.492 386.76C154.492 389.439 154.252 392.038 153.772 394.598C153.292 397.237 155.292 399.716 157.971 399.716H356.398C360.277 399.716 363.236 396.277 362.716 392.398C362.516 390.559 362.397 388.719 362.397 386.84Z" fill="#EAB054"/>
<path opacity="0.5" d="M362.397 386.84C362.397 386.8 362.397 386.76 362.397 386.72H154.492C154.492 389.399 154.252 391.999 153.773 394.558C153.293 397.197 155.292 399.677 157.971 399.677H356.398C360.277 399.677 363.237 396.237 362.717 392.358C362.517 390.559 362.397 388.719 362.397 386.84Z" fill="#FEB546"/>
<path d="M114.943 305.261L226.993 306.301C226.993 306.301 233.871 306.101 234.791 299.663C235.711 293.225 235.631 265.552 235.631 265.552C235.631 265.552 234.831 259.993 229.512 259.914C226.273 259.874 199.201 257.954 172.888 261.153C151.413 263.752 131.539 273.59 116.463 288.666L108.505 296.624C108.505 296.664 103.146 305.141 114.943 305.261Z" fill="#EAFCFC"/>
<path d="M248.106 269.112V298.104C248.106 301.863 250.986 304.982 254.665 305.102L342.721 308.661C344.761 308.741 346.72 307.822 347.88 306.102C349.479 303.783 349.639 299.944 341.761 294.785C328.045 285.867 293.134 266.513 280.218 264.673C271.98 263.473 261.223 262.954 254.505 262.754C251.026 262.634 248.106 265.513 248.106 269.112Z" fill="#EAFCFC"/>
<path d="M131.538 291.745C131.538 291.745 204.559 283.428 206.118 284.867C207.678 286.307 217.835 310.06 219.675 316.539L133.658 315.739L127.619 306.621L131.538 291.745Z" fill="#B75742"/>
<path d="M286.376 298.264C286.376 298.264 293.095 306.221 295.014 314.779L292.895 318.218L288.656 313.739L286.376 298.264Z" fill="#263D60"/>
<path d="M293.534 277.429C292.255 269.032 284.657 262.993 276.739 267.072C274.939 267.992 272.54 269.832 271.3 271.431C267.981 275.71 267.101 280.989 263.662 285.147C264.942 286.107 266.462 287.107 268.261 288.067L270.42 285.187L269.701 288.746C275.019 291.306 282.537 293.385 292.854 293.345C294.134 287.547 294.214 281.908 293.534 277.429Z" fill="#1A1A1A"/>
<path d="M275.74 295.904C275.74 295.904 268.102 295.424 265.103 298.703C262.064 301.982 271.821 328.015 272.341 332.174C272.901 336.373 267.822 344.691 267.822 344.691C267.822 344.691 288.817 354.528 293.975 351.129C293.975 351.129 293.136 317.578 292.616 314.619C292.096 311.66 287.497 299.463 286.377 298.263C285.258 297.063 275.74 295.904 275.74 295.904Z" fill="#355389"/>
<path d="M278.26 285.707C278.26 285.707 278.22 285.947 278.14 286.307C277.78 288.146 276.5 294.225 275.621 295.904C274.541 297.944 279.3 304.382 283.858 303.582C285.218 303.342 282.699 297.664 282.819 297.064C283.059 295.904 283.378 294.345 283.698 292.705C283.898 291.785 284.058 290.866 284.218 289.986C284.698 287.506 285.098 285.507 285.098 285.507L278.26 285.707Z" fill="#F7A491"/>
<path d="M132.099 293.145C132.019 292.625 131.819 292.185 131.539 291.745L120.702 302.622C120.702 302.622 112.544 315.539 130.499 315.739L135.418 315.779L132.099 293.145Z" fill="#B75742"/>
<path opacity="0.3" d="M278.14 286.306C278.22 285.907 278.26 285.707 278.26 285.707L285.098 285.547C285.098 285.547 284.698 287.546 284.218 290.025C284.058 290.905 283.858 291.785 283.698 292.705C282.659 292.545 281.539 292.025 280.419 291.065C279.219 290.025 278.42 288.746 277.94 287.386C278.02 286.946 278.1 286.586 278.14 286.306Z" fill="#F47458"/>
<path d="M282.858 270.191C282.858 270.191 279.658 269.831 277.619 272.431C275.62 275.03 273.42 283.108 278.459 287.467C283.457 291.865 288.416 286.907 289.176 281.628C289.896 276.389 290.176 269.991 282.858 270.191Z" fill="#F7A491"/>
<path d="M290.616 281.548C290.016 282.708 289.016 283.348 288.377 282.988C287.737 282.628 287.697 281.388 288.297 280.228C288.896 279.069 289.896 278.429 290.536 278.789C291.176 279.149 291.216 280.388 290.616 281.548Z" fill="#F7A491"/>
<path d="M283.218 269.352C283.218 269.352 278.9 277.029 275.86 277.349C272.781 277.709 272.381 281.788 272.381 281.788C272.381 281.788 273.501 272.391 276.54 270.591C279.579 268.792 283.218 269.352 283.218 269.352Z" fill="#1A1A1A"/>
<path d="M276.659 279.269C276.899 280.629 276.419 281.868 275.54 282.068C274.66 282.228 273.74 281.268 273.5 279.909C273.26 278.549 273.74 277.309 274.62 277.109C275.5 276.949 276.419 277.909 276.659 279.269Z" fill="#F7A491"/>
<path d="M265.822 333.094C265.822 333.014 268.701 320.738 269.861 318.018C271.02 315.299 275.579 302.662 275.579 302.662L269.701 301.383C269.701 301.383 265.902 311.26 264.182 315.739C262.463 320.218 263.182 328.455 263.102 330.775C263.102 330.815 262.862 332.734 262.862 332.774C262.822 333.014 262.743 333.254 262.743 333.294C262.663 333.414 262.463 334.174 262.463 334.254C262.463 334.334 262.263 334.574 262.223 334.694C262.143 334.814 261.983 336.373 261.943 336.653C261.903 336.893 262.023 337.493 262.023 337.493L261.943 338.533C261.903 339.293 262.702 339.093 262.702 339.093C262.702 339.453 262.822 339.652 263.022 339.732C263.222 339.812 263.462 339.732 263.502 339.772C263.542 339.772 263.542 339.892 263.542 339.892C263.502 340.132 263.782 340.292 263.942 340.332C264.102 340.372 264.422 340.252 264.502 340.132C264.582 340.012 264.662 340.052 264.662 340.052C264.822 340.212 265.502 340.172 265.662 339.972C265.822 339.772 265.942 338.653 266.022 338.533C266.102 338.413 266.222 338.253 266.262 338.093C266.302 337.933 266.821 336.773 266.861 336.573C266.901 336.333 266.541 335.574 266.501 335.094C266.421 334.614 265.982 333.934 265.862 333.694C265.782 333.654 265.822 333.374 265.822 333.094Z" fill="#F48C7F"/>
<path d="M285.257 284.187L280.299 283.947C280.299 283.947 280.299 285.827 282.498 285.987C285.137 286.187 285.257 284.187 285.257 284.187Z" fill="white"/>
<path d="M258.224 287.946L256.425 299.783C256.425 299.783 262.943 313.859 266.862 312.659C270.141 311.619 268.102 299.183 268.102 299.183C268.102 299.183 266.302 292.504 266.862 289.145C267.382 285.786 258.224 287.946 258.224 287.946Z" fill="#F7A491"/>
<path d="M266.863 289.106C267.382 285.747 258.225 287.946 258.225 287.946L258.065 288.946C258.345 289.586 258.665 290.146 259.065 290.586C261.104 292.785 264.303 294.145 267.102 294.225C266.823 292.425 266.663 290.506 266.863 289.106Z" fill="#F47458"/>
<path d="M256.705 271.231C256.465 271.151 254.626 284.707 258.065 288.426C261.504 292.145 268.262 293.385 270.662 290.426C273.341 287.187 273.181 272.591 267.822 268.752C262.464 264.953 256.705 271.231 256.705 271.231Z" fill="#F7A491"/>
<path d="M265.822 261.513C261.664 262.353 258.984 264.912 257.985 265.992C256.105 266.232 253.546 267.272 250.906 271.67C247.667 277.069 250.067 283.067 253.826 286.027C257.625 288.946 257.545 292.345 257.545 292.345L258.145 290.585C258.584 289.266 258.784 287.826 258.624 286.466C258.544 285.627 258.344 284.707 258.025 283.987C257.105 282.028 259.984 280.708 260.784 279.068C261.384 277.829 261.424 274.95 262.423 272.87L263.583 271.271C263.583 271.271 266.262 269.191 268.902 269.751C271.501 270.351 271.141 260.433 265.822 261.513Z" fill="#13375B"/>
<path d="M260.584 281.468C260.624 283.108 259.864 284.467 258.904 284.507C257.945 284.507 257.145 283.188 257.145 281.548C257.145 279.909 257.865 278.549 258.825 278.509C259.784 278.509 260.584 279.829 260.584 281.468Z" fill="#F7A491"/>
<path d="M266.222 285.307L271.421 285.027C271.421 285.027 271.421 287.027 269.102 287.187C266.342 287.426 266.222 285.307 266.222 285.307Z" fill="white"/>
<path d="M254.946 299.303C255.426 298.423 256.305 297.824 257.305 297.704C261.664 297.304 273.701 297.304 279.859 307.941C280.819 309.62 281.539 311.42 282.019 313.3L283.298 318.618L251.627 317.578L251.667 314.059C251.427 308.981 252.506 303.862 254.946 299.303Z" fill="#3C8F7C"/>
<path d="M330.125 320.578L334.724 301.903C335.044 300.663 334.284 299.383 333.005 299.064C331.765 298.744 330.485 299.503 330.165 300.783L325.367 320.338L330.125 320.578Z" fill="#1A1A1A"/>
<path d="M318.248 320.058C319.567 319.258 320.607 318.578 321.327 318.138C321.367 318.098 324.686 316.499 324.766 316.499C325.246 316.339 325.646 316.179 325.726 316.179C325.966 316.179 327.405 315.699 327.525 315.619C327.645 315.579 328.245 315.579 328.485 315.579C328.725 315.579 331.404 314.219 331.844 313.979C332.284 313.779 333.084 312.98 333.084 312.98L334.803 311.98C336.083 311.26 334.923 310.18 334.923 310.18C335.523 309.821 335.683 309.421 335.603 309.021C335.483 308.621 335.163 308.301 335.123 308.221C335.123 308.141 335.283 308.021 335.283 308.021C335.683 307.821 335.683 307.221 335.563 306.901C335.443 306.581 334.963 306.221 334.683 306.221C334.443 306.181 334.403 306.062 334.403 306.062C334.443 305.622 333.764 304.622 333.284 304.582C332.804 304.542 330.884 305.502 330.644 305.502C330.404 305.502 330.005 305.422 329.725 305.582C329.445 305.702 327.085 306.022 326.685 306.221C326.286 306.421 325.406 307.741 324.766 308.301C324.126 308.901 323.446 310.34 323.246 310.74C323.166 310.9 322.727 311.14 322.247 311.38C322.167 311.46 307.731 316.659 299.213 319.218L318.248 320.058Z" fill="#F7A491"/>
<path d="M273.261 318.258C272.381 312.9 271.261 307.261 270.062 304.622C267.462 298.904 258.705 295.504 254.426 299.063C252.147 300.943 253.106 309.981 255.066 317.778L273.261 318.258Z" fill="#50BFA5"/>
<path d="M146.054 287.146C146.054 287.146 135.337 286.866 131.698 289.306C128.059 291.705 128.499 315.699 128.499 315.699L132.018 316.378C132.018 316.378 133.298 332.894 136.057 333.734C138.816 334.614 156.811 329.055 160.57 324.416C164.329 319.778 152.652 285.547 152.652 285.547L146.054 287.146Z" fill="#3C8F7C"/>
<path d="M165.13 268.152C166.049 265.273 166.689 256.515 166.889 253.516C166.729 253.316 165.969 252.036 166.049 249.517C166.089 247.757 164.89 244.838 166.009 245.038C167.129 245.238 167.209 248.277 167.889 247.757C168.569 247.237 168.889 240.839 169.888 240.999C170.928 241.159 170.208 247.197 170.808 246.718C171.408 246.238 171.448 240.679 172.887 240.959C174.327 241.199 172.248 247.477 173.007 247.637C173.767 247.757 175.007 243.798 176.167 243.998C177.326 244.198 174.247 249.357 174.607 249.117C174.967 248.837 177.446 246.718 177.846 247.197C178.326 247.717 172.568 253.796 172.568 255.355C173.047 259.394 174.007 266.672 172.688 271.271C171.088 276.869 167.009 289.346 167.009 289.346L158.331 287.267C158.331 287.307 164.01 271.591 165.13 268.152Z" fill="#F7A491"/>
<path d="M168.808 248.956C169.248 249.156 169.608 249.436 169.888 249.796C169.928 249.876 171.007 250.876 170.728 252.555C170.568 251.516 170.328 250.396 168.808 248.956Z" fill="#F48C7F"/>
<path d="M113.263 291.866C113.263 291.866 113.503 290.466 112.303 288.306C111.543 286.907 111.343 284.108 110.544 284.707C109.744 285.307 110.944 287.787 110.224 287.627C109.504 287.467 106.705 282.468 106.025 283.028C105.305 283.588 108.264 288.107 107.584 287.987C106.945 287.867 104.705 283.428 103.705 284.188C102.706 284.947 106.785 289.146 106.265 289.586C105.745 289.986 103.226 287.307 102.426 287.907C101.626 288.546 106.025 291.466 105.625 291.386C105.225 291.306 102.506 290.586 102.386 291.146C102.226 291.746 107.944 293.545 108.584 294.825C109.224 296.104 119.021 308.701 121.821 308.741C124.62 308.741 137.176 300.263 138.096 297.464C139.016 294.705 137.856 291.786 136.057 291.386C134.217 290.986 122.5 299.423 121.941 299.304C121.381 299.184 113.263 291.866 113.263 291.866Z" fill="#F7A491"/>
<path d="M110.344 288.786C110.064 289.146 109.904 289.586 109.784 290.026C109.784 290.106 109.344 291.545 110.424 292.825C110.104 291.905 109.704 290.785 110.344 288.786Z" fill="#F48C7F"/>
<path d="M139.697 309.3C139.697 309.3 150.974 318.258 152.213 320.097C153.133 321.457 150.054 336.893 150.054 336.893C150.054 336.893 145.575 337.013 143.536 335.453C143.536 335.453 144.775 324.776 144.216 324.376C143.696 323.976 131.299 318.458 131.299 318.458L132.099 312.139L139.697 309.3Z" fill="#B75742"/>
<path d="M161.371 277.029C161.371 277.029 163.33 277.389 170.009 284.667L162.251 300.463L155.053 287.306L161.371 277.029Z" fill="#9BC1F9"/>
<path d="M148.774 288.146C148.774 288.146 153.853 287.026 155.652 286.147C157.452 285.267 173.967 324.216 169.808 325.576C161.091 328.455 138.497 336.053 138.497 336.053C138.497 336.053 137.857 333.814 138.657 329.695C140.096 322.577 139.617 306.701 139.297 303.942C139.137 302.302 129.499 307.021 129.499 307.021L125.7 294.704C125.7 294.704 136.697 290.945 140.376 289.786C141.456 289.426 148.774 288.146 148.774 288.146Z" fill="#9BC1F9"/>
<path d="M167.608 312.26C165.529 305.822 151.893 287.387 151.773 287.187L154.012 285.667C154.492 286.387 165.649 302.063 167.808 308.861L167.608 312.26Z" fill="#3C8F7C"/>
<path d="M137.977 324.176L136.577 322.377C136.657 322.297 146.175 314.699 146.455 306.261C146.695 297.743 139.856 289.546 139.776 289.466L141.536 287.986C141.856 288.346 149.054 296.904 148.774 306.341C148.454 315.819 138.417 323.816 137.977 324.176Z" fill="#3C8F7C"/>
<path d="M146.335 262.114C146.335 262.114 150.374 259.114 154.173 263.993C157.212 267.872 156.812 266.632 158.332 268.592C159.851 270.511 162.131 270.671 162.451 273.91C162.811 277.11 161.371 277.789 161.371 277.789C161.371 277.789 163.011 280.149 161.771 282.868C160.531 285.587 157.052 288.227 153.893 288.187C153.893 288.187 149.494 291.266 144.655 290.546C139.817 289.826 141.456 289.666 139.537 289.866C137.617 290.066 132.139 287.987 132.579 284.068C132.579 284.068 129.02 280.629 131.739 277.23C134.498 273.831 135.978 271.431 137.297 267.112C138.617 262.753 144.096 261.354 146.335 262.114Z" fill="#1A1A1A"/>
<path d="M151.734 284.268C151.734 284.268 152.174 289.946 152.773 290.426C153.373 290.906 154.213 291.706 153.573 293.145C152.933 294.585 149.454 294.105 147.775 293.465C146.175 292.865 145.056 291.626 145.056 291.626L144.896 282.548L151.734 284.268Z" fill="#F7A491"/>
<path d="M149.733 286.867C148.613 286.587 146.614 286.067 144.894 283.828L144.854 282.548L151.732 284.268C151.732 284.268 151.852 285.667 152.012 287.107C151.093 287.187 150.253 286.987 149.733 286.867Z" fill="#F48C7F"/>
<path d="M142.056 277.589C142.056 277.589 141.536 274.27 139.536 275.15C137.537 276.03 139.656 280.908 141.336 280.549C143.055 280.149 142.056 277.589 142.056 277.589Z" fill="#F7A491"/>
<path d="M148.255 264.673C148.255 264.673 151.454 264.273 153.373 266.593C155.293 268.912 157.812 275.87 155.653 281.069C153.453 286.267 149.894 285.428 148.415 285.108C146.935 284.748 144.016 283.948 142.096 279.509C140.137 275.03 140.057 264.553 148.255 264.673Z" fill="#F7A491"/>
<path d="M213.677 317.739L219.595 345.931L209.398 344.931L204.519 319.178L213.677 317.739Z" fill="#F7A491"/>
<path d="M215.436 318.578L204.519 319.178C204.519 319.178 203.719 311.62 203.519 308.021C203.279 303.662 203.359 297.983 203.919 298.063C205.439 298.343 207.478 299.023 208.718 300.623C213.117 306.101 215.436 318.578 215.436 318.578Z" fill="#5184CE"/>
<path d="M208.238 307.062C208.518 308.381 215.436 345.212 215.436 345.212C199.08 354.209 186.564 346.531 186.564 346.531C186.564 346.531 187.203 321.778 186.364 318.339C185.804 316.059 183.804 301.103 185.244 300.623C187.123 299.984 189.963 299.024 192.322 298.664C194.361 298.344 202.239 297.824 203.679 298.224C203.679 298.184 207.158 301.463 208.238 307.062Z" fill="#EAFCFC"/>
<path d="M202.359 271.911C202.359 271.911 208.998 271.791 208.438 277.309C208.438 277.309 213.357 279.229 210.077 283.668C210.077 283.668 213.596 288.426 207.478 293.025C207.478 293.025 205.839 299.423 198.96 296.384C198.96 296.384 196.921 297.904 194.082 295.864C191.242 293.825 190.883 292.625 190.883 292.625C190.883 292.625 184.644 291.426 185.484 285.707C185.484 285.707 182.205 282.908 187.164 279.389C187.164 279.389 187.084 271.511 193.762 272.551C193.802 272.551 197.721 266.512 202.359 271.911Z" fill="#13375B"/>
<path d="M192.003 284.827C191.843 286.227 190.923 287.266 189.963 287.147C189.004 287.027 188.404 285.787 188.564 284.387C188.724 282.988 189.643 281.948 190.603 282.068C191.563 282.188 192.203 283.428 192.003 284.827Z" fill="#F7A491"/>
<path d="M207.558 289.106C206.958 290.386 205.798 291.106 204.918 290.706C204.039 290.306 203.799 288.946 204.399 287.667C204.998 286.387 206.158 285.667 207.038 286.067C207.918 286.467 208.118 287.826 207.558 289.106Z" fill="#F7A491"/>
<path d="M199.56 293.385C199.56 293.465 200.12 297.104 200.4 298.983C200.52 299.703 200.12 300.383 199.44 300.623C197.641 301.303 194.122 302.142 191.922 299.823C191.722 299.623 191.642 299.303 191.642 299.023L192.562 290.586L199.56 293.385Z" fill="#F7A491"/>
<path d="M200.12 297.024C198.2 297.824 192.682 297.144 192.242 293.665L192.562 290.626L199.56 293.385C199.56 293.425 199.96 295.904 200.12 297.024Z" fill="#F48C7F"/>
<path d="M201.36 276.19C201.36 276.19 198.441 275.55 195.682 277.269C192.882 278.989 188.364 285.787 192.163 291.706C195.922 297.624 202.36 294.705 204.599 290.026C206.839 285.387 207.798 278.429 201.36 276.19Z" fill="#F7A491"/>
<path d="M199.561 290.825L195.682 290.586C195.682 290.586 195.682 292.065 197.401 292.225C199.481 292.425 199.561 290.825 199.561 290.825Z" fill="white"/>
<path d="M206.319 279.509C206.319 279.509 203.48 277.989 201.4 278.189C199.281 278.389 192.443 283.388 191.443 282.548C190.443 281.708 191.723 277.309 192.522 276.67C193.322 276.03 196.481 274.11 196.761 274.07C197.041 274.03 199.921 274.07 200.4 274.23C200.88 274.35 204.479 276.07 204.479 276.07L206.319 279.509Z" fill="#13375B"/>
<path d="M165.289 348.53C165.329 348.37 165.489 348.37 165.649 348.33C167.089 348.25 168.528 348.13 169.968 347.89C170.208 347.851 170.448 347.771 170.648 347.691C171.048 347.531 171.448 347.491 171.848 347.611C172.087 347.651 172.287 347.651 172.527 347.651C173.247 347.611 175.327 346.851 176.366 346.651C176.606 346.611 176.806 346.411 176.846 346.171C177.766 341.972 179.725 332.615 179.925 329.535C180.165 325.616 182.325 307.861 182.325 307.861L189.603 309.661C189.603 309.661 187.043 322.777 186.404 329.135C185.924 334.014 181.365 344.531 179.925 347.571C179.246 349.81 177.566 349.93 177.206 349.97C176.966 350.01 176.766 350.13 176.646 350.29C176.406 350.61 176.086 350.89 175.766 351.13C175.527 351.29 175.327 351.529 175.167 351.769C174.887 352.209 174.607 352.689 174.367 353.169C174.207 353.489 174.007 353.609 173.727 353.529C173.447 353.449 173.287 353.249 173.287 352.889C173.287 352.369 173.447 351.889 173.687 351.45C173.927 351.01 173.887 350.77 173.607 350.41C173.447 350.21 173.247 350.01 173.047 349.81C172.807 349.65 172.607 349.53 172.287 349.57C171.768 349.73 171.248 349.85 170.728 349.93L170.288 350.05L170.048 350.09C170.008 350.09 169.248 350.21 168.968 350.21C168.768 350.21 168.408 350.25 168.129 350.25C167.849 350.29 167.289 350.17 167.289 350.17C167.049 350.17 166.809 350.09 166.609 349.93C166.529 349.85 166.449 349.77 166.489 349.65C166.529 349.53 166.609 349.49 166.729 349.45C166.889 349.41 167.809 349.29 167.769 349.25C167.489 349.25 166.649 349.25 166.409 349.25C166.049 349.25 165.729 349.13 165.489 348.89C165.369 348.77 165.249 348.69 165.289 348.53Z" fill="#F7A491"/>
<path d="M177.446 318.539L188.004 323.657C188.004 323.657 189.643 315.899 190.883 311.101C191.962 306.982 186.684 299.624 184.924 300.623C181.045 302.863 177.446 318.539 177.446 318.539Z" fill="#5184CE"/>
<path d="M248.867 304.861L342.842 308.86C342.842 308.86 334.644 336.293 334.444 337.653C334.244 339.012 303.412 355.848 295.654 355.648C287.896 355.448 269.821 348.97 265.942 347.81C262.063 346.65 251.946 338.772 252.546 333.934C253.186 329.095 248.867 304.861 248.867 304.861Z" fill="#F7CC7F"/>
<path d="M275.901 318.778H250.667C250.027 318.778 249.548 318.258 249.548 317.658V315.499C249.548 314.859 250.067 314.379 250.667 314.379H275.901C276.54 314.379 277.02 314.899 277.02 315.499V317.658C277.06 318.258 276.54 318.778 275.901 318.778Z" fill="#EAB054"/>
<path d="M286.817 266.392L299.534 271.631L298.814 268.991L294.055 266.392C294.055 266.392 290.177 265.632 289.777 265.432C289.457 265.232 286.817 266.392 286.817 266.392Z" fill="#F7CC7F"/>
<path opacity="0.6" d="M347.52 299.943L248.106 291.426V298.064C248.106 301.823 250.986 304.942 254.665 305.062L342.721 308.621C344.761 308.701 346.72 307.781 347.88 306.062C348.879 304.622 349.319 302.543 347.52 299.943Z" fill="#C5DDF9"/>
<path opacity="0.7" d="M248.106 291.426V290.466L347.16 299.464L347.52 299.944L248.106 291.426Z" fill="#C5DDF9"/>
<path opacity="0.2" d="M271.022 305.742L280.059 306.101L287.497 294.784L278.699 294.065L271.022 305.742Z" fill="white"/>
<path opacity="0.2" d="M287.096 306.382L294.334 295.385L290.975 295.105L283.657 306.262L287.096 306.382Z" fill="white"/>
<path d="M113.463 305.222L226.993 306.342L227.993 342.332C227.993 342.332 214.716 361.607 213.117 361.407C211.517 361.207 177.606 355.768 174.567 355.968C171.528 356.168 144.935 343.132 143.695 343.372C142.456 343.652 134.138 339.173 134.138 339.173L120.621 329.655L107.225 315.859L113.463 305.222Z" fill="#F7CC7F"/>
<path d="M136.457 316.539H111.224C110.584 316.539 110.104 316.019 110.104 315.419V313.26C110.104 312.62 110.624 312.14 111.224 312.14H136.457C137.097 312.14 137.577 312.66 137.577 313.26V315.419C137.577 316.059 137.057 316.539 136.457 316.539Z" fill="#EAB054"/>
<path d="M153.252 279.108L149.333 279.868C149.333 279.868 149.693 281.348 151.453 281.068C153.532 280.708 153.252 279.108 153.252 279.108Z" fill="white"/>
<path d="M141.057 275.35C141.057 275.35 149.934 271.271 150.814 264.913C151.694 258.555 143.536 264.633 143.536 264.633L140.217 267.792L141.057 275.35Z" fill="#1A1A1A"/>
<path d="M251.346 304.062C251.346 304.062 252.986 305.182 255.065 305.142C255.065 305.142 252.306 305.981 252.226 305.941C252.146 305.862 250.747 304.742 250.787 304.742C250.787 304.662 251.346 304.062 251.346 304.062Z" fill="#F7CC7F"/>
<path d="M259.903 262.953L271.02 263.673C271.02 263.673 269.221 260.674 268.421 260.674C267.621 260.674 262.583 260.674 262.583 260.674L259.903 262.953Z" fill="#F7CC7F"/>
</svg>
