<svg width="457" height="233" viewBox="0 0 457 233" fill="none" xmlns="http://www.w3.org/2000/svg">
<path d="M196.415 7.44796V5.64844L190.337 5.64844V7.44796L196.415 7.44796Z" fill="#F7CC7F"/>
<path d="M203.15 47.88V5.45133C203.15 2.65208 200.87 0.372681 198.071 0.372681H189.234C186.434 0.372681 184.155 2.65208 184.155 5.45133V47.88C184.155 50.6792 186.434 52.9586 189.234 52.9586H198.071C200.87 52.9586 203.15 50.6792 203.15 47.88Z" fill="#F47458"/>
<path d="M193.672 52.9586H198.751C201.19 52.9586 203.15 51.8789 203.15 50.5593V2.77204C203.15 1.45239 201.75 0.372681 199.351 0.372681H193.672V52.9586Z" fill="#B75742"/>
<path d="M194.525 32.0712V19.8345H192.286V32.0712H194.525Z" fill="#1A1A1A"/>
<path d="M221.224 47.7998V16.928C221.224 14.0888 218.905 11.7694 216.066 11.7694H207.388C204.549 11.7694 202.229 14.0888 202.229 16.928V47.7998C202.229 50.639 204.549 52.9584 207.388 52.9584H216.066C218.905 52.9584 221.224 50.639 221.224 47.7998Z" fill="#355389"/>
<path d="M211.747 52.9581H216.825C219.265 52.9581 221.224 52.1183 221.224 51.0786V13.6886C221.224 12.6489 219.265 11.8091 216.825 11.8091H211.747V52.9581Z" fill="#5184CE"/>
<path d="M214.486 17.2758V15.8762L208.408 15.8762V17.2758H214.486Z" fill="#F7CC7F"/>
<path d="M212.582 36.6045V27.0071H210.343V36.6045H212.582Z" fill="#1A1A1A"/>
<path d="M121.931 53.598H121.012V62.8355H121.931V53.598Z" fill="#13375B"/>
<path d="M231.902 53.598H230.982V62.8355H231.902V53.598Z" fill="#13375B"/>
<path d="M192.193 33.9639H129.53C126.45 33.9639 123.971 36.4432 123.971 39.5224V47.3603C123.971 50.4395 126.45 52.9188 129.53 52.9188H192.233C195.312 52.9188 197.791 50.4395 197.791 47.3603V39.5224C197.791 36.4432 195.272 33.9639 192.193 33.9639Z" fill="#B75742"/>
<path d="M197.791 43.4413V38.3627C197.791 35.9233 196.272 33.9639 194.432 33.9639H127.33C125.491 33.9639 123.971 35.9233 123.971 38.3627V43.4413H197.791Z" fill="#91342A"/>
<path d="M135.847 40.6819H133.328V46.7602H135.847V40.6819Z" fill="#F7CC7F"/>
<path d="M188.394 40.6819H185.874V46.7602H188.394V40.6819Z" fill="#F7CC7F"/>
<path d="M168.439 42.601H151.244V44.8403H168.439V42.601Z" fill="#1A1A1A"/>
<path d="M181.155 14.9685H140.565C137.246 14.9685 134.607 17.6478 134.607 20.9269V27.965C134.607 31.2841 137.286 33.9234 140.565 33.9234H181.155C184.474 33.9234 187.113 31.2442 187.113 27.965V20.9269C187.153 17.6478 184.474 14.9685 181.155 14.9685Z" fill="#4E9B87"/>
<path d="M187.154 24.446V19.3673C187.154 16.928 186.074 14.9685 184.755 14.9685H136.967C135.648 14.9685 134.568 16.928 134.568 19.3673V24.446H187.154Z" fill="#3C8F7C"/>
<path d="M141.646 21.6869H139.846V27.7652H141.646V21.6869Z" fill="#F7CC7F"/>
<path d="M227.863 52.919L184.394 52.879L183.675 33.5242H227.863C233.221 33.5242 237.58 37.883 237.58 43.2416C237.58 48.5601 233.221 52.919 227.863 52.919Z" fill="#FAE0B2"/>
<path d="M193.672 43.202C193.672 48.5606 189.673 52.9194 184.754 52.9194C179.835 52.9194 175.836 48.5606 175.836 43.202C175.836 37.8434 179.835 33.4846 184.754 33.4846C189.673 33.4846 193.672 37.8434 193.672 43.202Z" fill="#F7CC7F"/>
<path d="M202.869 53.8389C202.469 53.519 202.389 52.9592 202.669 52.5193C205.628 48.3604 206.428 43.9216 205.108 39.3628C204.388 36.8035 203.109 34.884 202.429 33.9243C202.149 33.5244 202.189 33.0045 202.549 32.6846C202.949 32.3247 203.588 32.3647 203.948 32.8445C204.748 33.9243 206.068 36.0437 206.908 38.803C207.987 42.402 208.307 47.8805 204.228 53.679C203.908 54.0389 203.308 54.1588 202.869 53.8389Z" fill="#F47458"/>
<path d="M218.785 53.8389C218.385 53.519 218.305 52.9592 218.585 52.5193C221.544 48.3604 222.344 43.9216 221.024 39.3628C220.305 36.8035 219.025 34.884 218.345 33.9243C218.065 33.5244 218.105 33.0045 218.465 32.6846C218.865 32.3247 219.505 32.3647 219.865 32.8445C220.665 33.9243 221.984 36.0437 222.824 38.803C223.904 42.402 224.224 47.8805 220.145 53.679C219.785 54.0389 219.185 54.1588 218.785 53.8389Z" fill="#F47458"/>
<path d="M192.112 41.4815C191.632 38.4423 189.992 36.8827 188.672 36.1229C186.753 35.0032 184.234 34.8433 182.034 35.6831C179.915 36.4829 178.235 38.3623 177.595 40.5218C177.036 42.4412 177.435 44.4407 178.715 46.0803C180.835 48.8395 184.114 48.3997 185.713 47.7198C187.153 47.08 188.233 45.6004 188.473 43.9608C188.672 42.6012 188.033 41.3215 186.873 40.5617C185.713 39.8019 184.234 39.8019 183.114 40.5617C182.274 41.1216 181.434 42.1613 182.234 44.2008L182.874 43.9608C182.354 42.6812 182.554 41.7614 183.474 41.1616C184.394 40.5617 185.553 40.5617 186.513 41.1616C187.473 41.7614 187.953 42.8012 187.793 43.8809C187.593 45.3205 186.673 46.6001 185.433 47.12C184.034 47.7198 181.115 48.1197 179.235 45.7204C177.795 43.8409 177.875 42.0014 178.235 40.8017C178.795 38.8422 180.355 37.1227 182.234 36.4029C184.274 35.6031 186.553 35.763 188.313 36.7628C189.992 37.7225 191.072 39.4021 191.392 41.6415C191.832 44.5207 191.312 46.8001 189.792 48.4396C186.953 51.5188 180.955 51.4788 179.915 51.4388C180.275 51.6788 180.675 51.9187 181.075 52.1187H181.115C182.954 52.1187 187.593 51.7988 190.272 48.8795C191.992 47.08 192.591 44.5607 192.112 41.4815Z" fill="#F47458"/>
<path d="M180.475 21.6869H178.676V27.7652H180.475V21.6869Z" fill="#F7CC7F"/>
<path d="M166.279 23.6061H154.042V25.8455H166.279V23.6061Z" fill="#1A1A1A"/>
<path d="M150.131 14.172L129.461 53.3625L130.062 53.6797L150.732 14.4891L150.131 14.172Z" fill="black"/>
<path d="M173.329 13.8739L172.728 14.1912L193.943 54.4075L194.545 54.0903L173.329 13.8739Z" fill="black"/>
<path d="M216.985 11.2149L216.356 11.4714L233.545 53.6533L234.175 53.3967L216.985 11.2149Z" fill="black"/>
<path d="M196.408 2.72644e-05L195.767 0.226196L214.606 53.6234L215.247 53.3973L196.408 2.72644e-05Z" fill="black"/>
<path d="M236.101 52.879H116.972V54.1187H236.101V52.879Z" fill="#13375B"/>
<path d="M33.2349 186.242C33.2349 186.242 124.131 201.318 125.25 200.678C126.33 200.038 138.127 149.212 138.127 149.212C138.127 149.212 62.947 135.696 61.7473 135.696C60.5476 135.696 44.192 148.772 43.9521 149.652C43.7121 150.532 33.2349 186.242 33.2349 186.242Z" fill="#183658"/>
<path d="M310.561 199.16C312.76 199.359 422.851 197 422.851 197L414.573 171.687C414.573 171.687 399.297 148.613 391.259 149.013C383.181 149.453 335.234 141.655 326.957 147.413C318.679 153.172 311.281 148.573 307.322 162.329C303.403 176.046 300.324 177.605 303.403 185.883C306.402 194.121 310.561 199.16 310.561 199.16Z" fill="#183658"/>
<path d="M79.1437 232.75C99.8378 232.75 116.614 215.974 116.614 195.28C116.614 174.586 99.8378 157.81 79.1437 157.81C58.4496 157.81 41.6737 174.586 41.6737 195.28C41.6737 215.974 58.4496 232.75 79.1437 232.75Z" fill="#1A1A1A"/>
<path d="M79.1439 221.353C93.5436 221.353 105.217 209.68 105.217 195.28C105.217 180.88 93.5436 169.207 79.1439 169.207C64.7442 169.207 53.0709 180.88 53.0709 195.28C53.0709 209.68 64.7442 221.353 79.1439 221.353Z" fill="#9E9DA2"/>
<path d="M79.1437 212.715C88.773 212.715 96.5791 204.909 96.5791 195.28C96.5791 185.651 88.773 177.845 79.1437 177.845C69.5145 177.845 61.7084 185.651 61.7084 195.28C61.7084 204.909 69.5145 212.715 79.1437 212.715Z" fill="#D8D9DD"/>
<path d="M367.666 232.75C388.36 232.75 405.136 215.974 405.136 195.28C405.136 174.586 388.36 157.81 367.666 157.81C346.972 157.81 330.196 174.586 330.196 195.28C330.196 215.974 346.972 232.75 367.666 232.75Z" fill="#1A1A1A"/>
<path d="M367.666 221.353C382.066 221.353 393.74 209.68 393.74 195.28C393.74 180.88 382.066 169.207 367.666 169.207C353.267 169.207 341.593 180.88 341.593 195.28C341.593 209.68 353.267 221.353 367.666 221.353Z" fill="#9E9DA2"/>
<path d="M350.231 195.28C350.231 204.917 358.029 212.715 367.666 212.715C377.304 212.715 385.102 204.917 385.102 195.28C385.102 185.643 377.304 177.845 367.666 177.845C358.029 177.845 350.231 185.643 350.231 195.28Z" fill="#D8D9DD"/>
<path d="M453.683 159.61C450.523 138.735 440.286 134.337 409.974 128.258C376.543 121.58 334.115 99.7859 334.115 99.7859C334.115 99.7859 261.734 64.3154 244.019 60.2365C226.303 56.1576 182.675 57.3172 146.045 57.6372C109.415 57.9171 87.9004 68.1144 69.3054 82.6305C50.7103 97.1466 18.439 108.224 18.439 108.224L12.5605 109.263C6.52216 110.343 2.16333 115.582 2.16333 121.7V173.526C2.16333 179.405 6.12226 184.523 11.8007 186.043L32.9951 191.641C34.7146 191.921 36.3142 190.722 36.5141 188.962C38.8335 167.768 57.1486 151.652 79.0228 151.652C102.257 151.692 121.331 170.767 121.331 194.041C121.331 196.68 121.092 199.279 120.612 201.759C120.132 204.358 122.131 206.717 124.771 206.717H319.718C323.517 206.717 326.437 203.398 325.957 199.639C325.717 197.84 325.597 196 325.597 194.121C325.517 171.167 344.112 152.132 367.066 151.652C390.859 151.172 410.294 170.287 410.294 194.001C410.294 195.56 410.214 197.12 410.054 198.639C409.574 202.958 412.933 206.717 417.252 206.717H445.285C450.363 206.717 454.522 202.598 454.522 197.48V170.327C454.442 166.768 454.242 163.169 453.683 159.61Z" fill="#F7CC7F"/>
<path d="M3.40313 127.859H26.477C28.4364 127.859 29.7961 129.858 29.0363 131.697L26.437 137.896C23.9576 143.814 18.1992 147.653 11.8009 147.653H3.40313C1.76357 147.653 0.403931 146.334 0.403931 144.654V130.858C0.403931 129.178 1.76357 127.859 3.40313 127.859Z" fill="#CF283C"/>
<path d="M416.973 137.416C429.69 139.376 444.326 151.412 444.326 151.412C447.845 155.171 444.925 161.29 439.807 160.97L415.013 159.41C409.855 159.09 405.456 155.571 404.056 150.613C401.617 142.255 403.657 135.417 416.973 137.416Z" fill="#EAFCFC"/>
<path d="M2.28365 175.486C0.684081 175.446 -0.435614 177.045 0.164225 178.525C1.80379 182.724 5.36282 186.003 9.9216 187.203L33.6753 193.481C35.5947 193.801 37.3943 192.441 37.6342 190.482C38.0741 186.443 39.0338 182.604 40.4335 178.965C40.9133 177.725 39.9936 176.406 38.7139 176.366L2.28365 175.486Z" fill="#EAB054"/>
<path d="M410.454 185.243C408.655 185.203 407.255 186.763 407.495 188.562C407.735 190.562 407.895 192.561 407.895 194.641C407.895 196.4 407.815 198.08 407.615 199.799C407.095 204.598 410.814 208.797 415.613 208.797H446.724C452.363 208.797 456.962 204.198 456.962 198.56V190.482C456.962 188.202 455.122 186.323 452.843 186.283L410.454 185.243Z" fill="#EAB054"/>
<path opacity="0.5" d="M334.154 111.783C333.755 111.543 292.526 88.9488 265.213 76.2722C238.14 63.7556 207.948 65.0752 206.668 65.1152C203.189 65.0352 130.929 63.4757 108.735 70.3938C86.3407 77.3519 57.2285 109.143 55.9888 110.503L55.6689 110.863L63.5068 147.653L64.3466 147.613C87.1405 146.334 104.576 152.412 114.813 165.168C122.531 174.806 123.491 185.003 123.491 185.123L123.571 186.003L205.749 188.122H206.708L207.708 188.162L322.238 190.402V189.402C322.797 152.172 334.594 113.342 334.674 112.942L334.914 112.183L334.154 111.783ZM125.29 184.083C124.89 181.324 123.171 172.606 116.373 164.049C109.055 154.851 94.1786 144.214 65.0664 145.654L57.7883 111.503C61.1474 107.864 88.74 78.7516 109.335 72.3133C129.929 65.875 196.911 66.9547 205.749 67.1147V186.163L125.29 184.083ZM320.238 188.402L207.668 186.203V67.0747C212.947 66.9147 240.02 66.7548 264.413 78.0718C289.726 89.7886 326.996 110.103 332.555 113.142C330.875 118.741 320.958 154.091 320.238 188.402Z" fill="#FEB546"/>
<path opacity="0.5" d="M0.163879 178.524C1.80344 182.723 5.36247 186.002 9.92126 187.202L33.6749 193.48C35.5944 193.8 37.3939 192.441 37.6339 190.481C37.7938 188.922 38.0338 187.402 38.3537 185.922L0.163879 178.524Z" fill="#FEB546"/>
<path opacity="0.5" d="M407.816 196.84C407.776 197.84 407.696 198.8 407.576 199.799C407.056 204.598 410.775 208.797 415.574 208.797H446.685C452.324 208.797 456.923 204.198 456.923 198.56V196.88H407.816V196.84Z" fill="#FEB546"/>
<path d="M327.397 196.84C327.397 194.72 327.556 192.641 327.836 190.601C328.196 188.162 326.357 185.923 323.877 185.843L121.092 180.884C118.892 180.844 117.293 182.923 117.893 185.083C118.932 188.802 119.492 192.721 119.492 196.76C119.492 199.439 119.252 202.038 118.772 204.598C118.292 207.237 120.292 209.716 122.971 209.716H321.398C325.277 209.716 328.236 206.277 327.716 202.398C327.516 200.559 327.397 198.719 327.397 196.84Z" fill="#EAB054"/>
<path opacity="0.5" d="M327.397 196.84C327.397 196.8 327.397 196.76 327.397 196.72H119.492C119.492 199.399 119.252 201.999 118.773 204.558C118.293 207.197 120.292 209.677 122.971 209.677H321.398C325.277 209.677 328.237 206.237 327.717 202.358C327.517 200.559 327.397 198.719 327.397 196.84Z" fill="#FEB546"/>
<path d="M79.9431 115.261L191.993 116.301C191.993 116.301 198.871 116.101 199.791 109.663C200.711 103.225 200.631 75.552 200.631 75.552C200.631 75.552 199.831 69.9935 194.512 69.9135C191.273 69.8735 164.201 67.954 137.888 71.1532C116.413 73.7525 96.5386 83.5899 81.4627 98.6658L73.5048 106.624C73.5048 106.664 68.1462 115.141 79.9431 115.261Z" fill="#EAFCFC"/>
<path d="M213.106 79.1119V108.104C213.106 111.863 215.986 114.982 219.665 115.102L307.721 118.661C309.761 118.741 311.72 117.822 312.88 116.102C314.479 113.783 314.639 109.944 306.761 104.785C293.045 95.8675 258.134 76.5126 245.218 74.6731C236.98 73.4734 226.223 72.9536 219.505 72.7536C216.026 72.6336 213.106 75.5129 213.106 79.1119Z" fill="#EAFCFC"/>
<path d="M96.5383 101.745C96.5383 101.745 169.559 93.4275 171.118 94.8671C172.678 96.3067 182.835 120.06 184.675 126.539L98.6577 125.739L92.6194 116.621L96.5383 101.745Z" fill="#B75742"/>
<path d="M251.376 108.264C251.376 108.264 258.095 116.221 260.014 124.779L257.895 128.218L253.656 123.739L251.376 108.264Z" fill="#263D60"/>
<path d="M258.534 87.4295C257.255 79.0317 249.657 72.9934 241.739 77.0723C239.939 77.992 237.54 79.8315 236.3 81.4311C232.981 85.7099 232.101 90.9885 228.662 95.1474C229.942 96.1071 231.462 97.1069 233.261 98.0666L235.42 95.1874L234.701 98.7464C240.019 101.306 247.537 103.385 257.854 103.345C259.134 97.5468 259.214 91.9083 258.534 87.4295Z" fill="#1A1A1A"/>
<path d="M240.74 105.904C240.74 105.904 233.102 105.424 230.103 108.703C227.064 111.982 236.821 138.015 237.341 142.174C237.901 146.373 232.822 154.691 232.822 154.691C232.822 154.691 253.817 164.528 258.975 161.129C258.975 161.129 258.136 127.578 257.616 124.619C257.096 121.66 252.497 109.463 251.377 108.263C250.258 107.063 240.74 105.904 240.74 105.904Z" fill="#355389"/>
<path d="M243.26 95.7069C243.26 95.7069 243.22 95.9468 243.14 96.3067C242.78 98.1463 241.5 104.225 240.621 105.904C239.541 107.944 244.3 114.382 248.858 113.582C250.218 113.342 247.699 107.664 247.819 107.064C248.059 105.904 248.378 104.345 248.698 102.705C248.898 101.785 249.058 100.866 249.218 99.9858C249.698 97.5064 250.098 95.507 250.098 95.507L243.26 95.7069Z" fill="#F7A491"/>
<path d="M97.0987 103.145C97.0187 102.625 96.8188 102.185 96.5389 101.745L85.7018 112.622C85.7018 112.622 77.5439 125.539 95.4991 125.739L100.418 125.779L97.0987 103.145Z" fill="#B75742"/>
<path opacity="0.3" d="M243.14 96.3064C243.22 95.9065 243.26 95.7066 243.26 95.7066L250.098 95.5466C250.098 95.5466 249.698 97.5461 249.218 100.025C249.058 100.905 248.858 101.785 248.698 102.705C247.659 102.545 246.539 102.025 245.419 101.065C244.219 100.025 243.42 98.7458 242.94 97.3862C243.02 96.9463 243.1 96.5864 243.14 96.3064Z" fill="#F47458"/>
<path d="M247.858 80.1911C247.858 80.1911 244.658 79.8312 242.619 82.4305C240.62 85.0298 238.42 93.1077 243.459 97.4665C248.457 101.865 253.416 96.9066 254.176 91.6281C254.896 86.3895 255.176 79.9912 247.858 80.1911Z" fill="#F7A491"/>
<path d="M255.616 91.548C255.016 92.7077 254.016 93.3476 253.377 92.9876C252.737 92.6277 252.697 91.3881 253.297 90.2284C253.896 89.0687 254.896 88.4289 255.536 88.7888C256.176 89.1487 256.216 90.3883 255.616 91.548Z" fill="#F7A491"/>
<path d="M248.218 79.3515C248.218 79.3515 243.9 87.0295 240.86 87.3494C237.781 87.7093 237.381 91.7882 237.381 91.7882C237.381 91.7882 238.501 82.3907 241.54 80.5912C244.579 78.7917 248.218 79.3515 248.218 79.3515Z" fill="#1A1A1A"/>
<path d="M241.659 89.2689C241.899 90.6285 241.419 91.8682 240.54 92.0681C239.66 92.2281 238.74 91.2683 238.5 89.9087C238.26 88.5491 238.74 87.3094 239.62 87.1095C240.5 86.9495 241.419 87.9092 241.659 89.2689Z" fill="#F7A491"/>
<path d="M230.822 143.094C230.822 143.014 233.701 130.738 234.861 128.018C236.02 125.299 240.579 112.662 240.579 112.662L234.701 111.383C234.701 111.383 230.902 121.26 229.182 125.739C227.463 130.218 228.182 138.455 228.102 140.775C228.102 140.815 227.862 142.734 227.862 142.774C227.822 143.014 227.743 143.254 227.743 143.294C227.663 143.414 227.463 144.174 227.463 144.254C227.463 144.334 227.263 144.574 227.223 144.694C227.143 144.814 226.983 146.373 226.943 146.653C226.903 146.893 227.023 147.493 227.023 147.493L226.943 148.533C226.903 149.293 227.702 149.093 227.702 149.093C227.702 149.453 227.822 149.652 228.022 149.732C228.222 149.812 228.462 149.732 228.502 149.772C228.542 149.772 228.542 149.892 228.542 149.892C228.502 150.132 228.782 150.292 228.942 150.332C229.102 150.372 229.422 150.252 229.502 150.132C229.582 150.012 229.662 150.052 229.662 150.052C229.822 150.212 230.502 150.172 230.662 149.972C230.822 149.772 230.942 148.653 231.022 148.533C231.102 148.413 231.222 148.253 231.262 148.093C231.302 147.933 231.821 146.773 231.861 146.573C231.901 146.333 231.541 145.574 231.501 145.094C231.421 144.614 230.982 143.934 230.862 143.694C230.782 143.654 230.822 143.374 230.822 143.094Z" fill="#F48C7F"/>
<path d="M250.257 94.1873L245.299 93.9474C245.299 93.9474 245.299 95.8269 247.498 95.9869C250.137 96.1868 250.257 94.1873 250.257 94.1873Z" fill="white"/>
<path d="M223.224 97.9457L221.425 109.783C221.425 109.783 227.943 123.859 231.862 122.659C235.141 121.619 233.102 109.183 233.102 109.183C233.102 109.183 231.302 102.504 231.862 99.1454C232.382 95.7863 223.224 97.9457 223.224 97.9457Z" fill="#F7A491"/>
<path d="M231.863 99.1059C232.382 95.7468 223.225 97.9462 223.225 97.9462L223.065 98.946C223.345 99.5858 223.665 100.146 224.065 100.586C226.104 102.785 229.303 104.145 232.102 104.225C231.823 102.425 231.663 100.506 231.863 99.1059Z" fill="#F47458"/>
<path d="M221.705 81.231C221.465 81.151 219.626 94.7074 223.065 98.4264C226.504 102.145 233.262 103.385 235.662 100.426C238.341 97.1867 238.181 82.5906 232.822 78.7516C227.464 74.9527 221.705 81.231 221.705 81.231Z" fill="#F7A491"/>
<path d="M230.822 71.5132C226.664 72.3529 223.984 74.9123 222.985 75.992C221.105 76.2319 218.546 77.2716 215.906 81.6705C212.667 87.069 215.067 93.0674 218.826 96.0266C222.625 98.9458 222.545 102.345 222.545 102.345L223.145 100.585C223.584 99.2657 223.784 97.8261 223.624 96.4665C223.544 95.6267 223.344 94.707 223.025 93.9872C222.105 92.0277 224.984 90.708 225.784 89.0685C226.384 87.8288 226.424 84.9496 227.423 82.8701L228.583 81.2706C228.583 81.2706 231.262 79.1911 233.902 79.7509C236.501 80.3508 236.141 70.4335 230.822 71.5132Z" fill="#13375B"/>
<path d="M225.584 91.4683C225.624 93.1078 224.864 94.4674 223.904 94.5074C222.945 94.5074 222.145 93.1878 222.145 91.5482C222.145 89.9086 222.865 88.549 223.825 88.509C224.784 88.509 225.584 89.8287 225.584 91.4683Z" fill="#F7A491"/>
<path d="M231.222 95.307L236.421 95.0271C236.421 95.0271 236.421 97.0266 234.102 97.1865C231.342 97.4265 231.222 95.307 231.222 95.307Z" fill="white"/>
<path d="M219.946 109.303C220.426 108.423 221.305 107.824 222.305 107.704C226.664 107.304 238.701 107.304 244.859 117.941C245.819 119.62 246.539 121.42 247.019 123.3L248.298 128.618L216.627 127.578L216.667 124.059C216.427 118.981 217.506 113.862 219.946 109.303Z" fill="#3C8F7C"/>
<path d="M295.125 130.578L299.724 111.903C300.044 110.663 299.284 109.383 298.005 109.064C296.765 108.744 295.485 109.503 295.165 110.783L290.367 130.338L295.125 130.578Z" fill="#1A1A1A"/>
<path d="M283.248 130.058C284.567 129.258 285.607 128.578 286.327 128.138C286.367 128.098 289.686 126.499 289.766 126.499C290.246 126.339 290.646 126.179 290.726 126.179C290.966 126.179 292.405 125.699 292.525 125.619C292.645 125.579 293.245 125.579 293.485 125.579C293.725 125.579 296.404 124.219 296.844 123.979C297.284 123.779 298.084 122.98 298.084 122.98L299.803 121.98C301.083 121.26 299.923 120.18 299.923 120.18C300.523 119.821 300.683 119.421 300.603 119.021C300.483 118.621 300.163 118.301 300.123 118.221C300.123 118.141 300.283 118.021 300.283 118.021C300.683 117.821 300.683 117.221 300.563 116.901C300.443 116.581 299.963 116.221 299.683 116.221C299.443 116.181 299.403 116.062 299.403 116.062C299.443 115.622 298.764 114.622 298.284 114.582C297.804 114.542 295.884 115.502 295.644 115.502C295.404 115.502 295.005 115.422 294.725 115.582C294.445 115.702 292.085 116.022 291.685 116.221C291.286 116.421 290.406 117.741 289.766 118.301C289.126 118.901 288.446 120.34 288.246 120.74C288.166 120.9 287.727 121.14 287.247 121.38C287.167 121.46 272.731 126.659 264.213 129.218L283.248 130.058Z" fill="#F7A491"/>
<path d="M238.261 128.258C237.381 122.9 236.261 117.261 235.062 114.622C232.462 108.904 223.705 105.504 219.426 109.063C217.147 110.943 218.106 119.981 220.066 127.778L238.261 128.258Z" fill="#50BFA5"/>
<path d="M111.054 97.1462C111.054 97.1462 100.337 96.8663 96.698 99.3056C93.0589 101.705 93.4988 125.699 93.4988 125.699L97.0179 126.378C97.0179 126.378 98.2975 142.894 101.057 143.734C103.816 144.614 121.811 139.055 125.57 134.416C129.329 129.778 117.652 95.5466 117.652 95.5466L111.054 97.1462Z" fill="#3C8F7C"/>
<path d="M130.13 78.1518C131.049 75.2726 131.689 66.5149 131.889 63.5157C131.729 63.3158 130.969 62.0361 131.049 59.5168C131.089 57.7573 129.89 54.838 131.009 55.038C132.129 55.2379 132.209 58.2771 132.889 57.7573C133.569 57.2374 133.889 50.8391 134.888 50.9991C135.928 51.159 135.208 57.1974 135.808 56.7175C136.408 56.2377 136.448 50.6791 137.887 50.9591C139.327 51.199 137.248 57.4773 138.007 57.6373C138.767 57.7573 140.007 53.7983 141.167 53.9983C142.326 54.1982 139.247 59.3568 139.607 59.1169C139.967 58.837 142.446 56.7175 142.846 57.1974C143.326 57.7173 137.568 63.7956 137.568 65.3552C138.047 69.3941 139.007 76.6722 137.688 81.271C136.088 86.8695 132.009 99.3461 132.009 99.3461L123.331 97.2667C123.331 97.3067 129.01 81.5909 130.13 78.1518Z" fill="#F7A491"/>
<path d="M133.808 58.9563C134.248 59.1562 134.608 59.4362 134.888 59.7961C134.928 59.8761 136.007 60.8758 135.728 62.5553C135.568 61.5156 135.328 60.3959 133.808 58.9563Z" fill="#F48C7F"/>
<path d="M78.2629 101.866C78.2629 101.866 78.5028 100.466 77.3031 98.3064C76.5433 96.9068 76.3434 94.1076 75.5436 94.7074C74.7438 95.3072 75.9435 97.7866 75.2237 97.6266C74.5039 97.4667 71.7047 92.468 71.0248 93.0279C70.305 93.5877 73.2642 98.1065 72.5844 97.9865C71.9446 97.8666 69.7052 93.4278 68.7054 94.1876C67.7057 94.9473 71.7846 99.1462 71.2648 99.5861C70.7449 99.986 68.2256 97.3067 67.4258 97.9066C66.626 98.5464 71.0248 101.466 70.6249 101.386C70.225 101.306 67.5058 100.586 67.3858 101.146C67.2258 101.746 72.9443 103.545 73.5841 104.825C74.224 106.104 84.0214 118.701 86.8206 118.741C89.6199 118.741 102.176 110.263 103.096 107.464C104.016 104.705 102.856 101.786 101.057 101.386C99.2173 100.986 87.5004 109.423 86.9406 109.304C86.3807 109.184 78.2629 101.866 78.2629 101.866Z" fill="#F7A491"/>
<path d="M75.3435 98.7859C75.0636 99.1458 74.9036 99.5857 74.7837 100.026C74.7837 100.106 74.3438 101.545 75.4235 102.825C75.1036 101.905 74.7037 100.785 75.3435 98.7859Z" fill="#F48C7F"/>
<path d="M104.697 119.3C104.697 119.3 115.974 128.258 117.213 130.097C118.133 131.457 115.054 146.893 115.054 146.893C115.054 146.893 110.575 147.013 108.536 145.453C108.536 145.453 109.775 134.776 109.216 134.376C108.696 133.976 96.299 128.458 96.299 128.458L97.0987 122.139L104.697 119.3Z" fill="#B75742"/>
<path d="M126.371 87.0291C126.371 87.0291 128.33 87.389 135.009 94.667L127.251 110.463L120.053 97.3063L126.371 87.0291Z" fill="#9BC1F9"/>
<path d="M113.774 98.146C113.774 98.146 118.853 97.0263 120.652 96.1465C122.452 95.2668 138.967 134.216 134.808 135.576C126.091 138.455 103.497 146.053 103.497 146.053C103.497 146.053 102.857 143.814 103.657 139.695C105.096 132.577 104.617 116.701 104.297 113.942C104.137 112.302 94.4992 117.021 94.4992 117.021L90.7003 104.704C90.7003 104.704 101.697 100.945 105.376 99.7856C106.456 99.4257 113.774 98.146 113.774 98.146Z" fill="#9BC1F9"/>
<path d="M132.608 122.26C130.529 115.822 116.893 97.3868 116.773 97.1868L119.012 95.6672C119.492 96.387 130.649 112.063 132.808 118.861L132.608 122.26Z" fill="#3C8F7C"/>
<path d="M102.977 134.176L101.577 132.377C101.657 132.297 111.175 124.699 111.455 116.261C111.695 107.743 104.856 99.5455 104.776 99.4656L106.536 97.986C106.856 98.3459 114.054 106.904 113.774 116.341C113.454 125.819 103.417 133.816 102.977 134.176Z" fill="#3C8F7C"/>
<path d="M111.335 72.1137C111.335 72.1137 115.374 69.1145 119.173 73.9932C122.212 77.8721 121.812 76.6324 123.332 78.5919C124.851 80.5114 127.131 80.6714 127.451 83.9105C127.811 87.1096 126.371 87.7895 126.371 87.7895C126.371 87.7895 128.011 90.1488 126.771 92.8681C125.531 95.5874 122.052 98.2267 118.893 98.1867C118.893 98.1867 114.494 101.266 109.655 100.546C104.817 99.8262 106.456 99.6663 104.537 99.8662C102.617 100.066 97.1388 97.9867 97.5787 94.0678C97.5787 94.0678 94.0196 90.6287 96.7389 87.2296C99.4982 83.8305 100.978 81.4312 102.297 77.1123C103.617 72.7535 109.096 71.3539 111.335 72.1137Z" fill="#1A1A1A"/>
<path d="M116.734 94.2675C116.734 94.2675 117.174 99.946 117.773 100.426C118.373 100.906 119.213 101.706 118.573 103.145C117.933 104.585 114.454 104.105 112.775 103.465C111.175 102.865 110.056 101.626 110.056 101.626L109.896 92.548L116.734 94.2675Z" fill="#F7A491"/>
<path d="M114.733 96.8668C113.613 96.5869 111.614 96.067 109.894 93.8276L109.854 92.548L116.732 94.2675C116.732 94.2675 116.852 95.6671 117.012 97.1068C116.093 97.1867 115.253 96.9868 114.733 96.8668Z" fill="#F48C7F"/>
<path d="M107.056 87.5894C107.056 87.5894 106.536 84.2702 104.536 85.15C102.537 86.0298 104.656 90.9084 106.336 90.5485C108.055 90.1487 107.056 87.5894 107.056 87.5894Z" fill="#F7A491"/>
<path d="M113.255 74.6731C113.255 74.6731 116.454 74.2732 118.373 76.5926C120.293 78.912 122.812 85.8701 120.653 91.0688C118.453 96.2674 114.894 95.4276 113.415 95.1077C111.935 94.7478 109.016 93.948 107.096 89.5092C105.137 85.0304 105.057 74.5532 113.255 74.6731Z" fill="#F7A491"/>
<path d="M178.677 127.739L184.595 155.931L174.398 154.931L169.519 129.178L178.677 127.739Z" fill="#F7A491"/>
<path d="M180.436 128.578L169.519 129.178C169.519 129.178 168.719 121.62 168.519 118.021C168.279 113.662 168.359 107.983 168.919 108.063C170.439 108.343 172.478 109.023 173.718 110.623C178.117 116.101 180.436 128.578 180.436 128.578Z" fill="#5184CE"/>
<path d="M173.238 117.062C173.518 118.381 180.436 155.212 180.436 155.212C164.08 164.209 151.564 156.531 151.564 156.531C151.564 156.531 152.203 131.778 151.364 128.339C150.804 126.059 148.804 111.103 150.244 110.623C152.123 109.984 154.963 109.024 157.322 108.664C159.361 108.344 167.239 107.824 168.679 108.224C168.679 108.184 172.158 111.463 173.238 117.062Z" fill="#EAFCFC"/>
<path d="M167.359 81.9108C167.359 81.9108 173.998 81.7908 173.438 87.3093C173.438 87.3093 178.357 89.2288 175.077 93.6676C175.077 93.6676 178.596 98.4263 172.478 103.025C172.478 103.025 170.839 109.423 163.96 106.384C163.96 106.384 161.921 107.904 159.082 105.864C156.242 103.825 155.883 102.625 155.883 102.625C155.883 102.625 149.644 101.426 150.484 95.7071C150.484 95.7071 147.205 92.9078 152.164 89.3888C152.164 89.3888 152.084 81.5109 158.762 82.5506C158.802 82.5506 162.721 76.5122 167.359 81.9108Z" fill="#13375B"/>
<path d="M157.003 94.8271C156.843 96.2268 155.923 97.2665 154.963 97.1465C154.004 97.0265 153.404 95.7869 153.564 94.3873C153.724 92.9876 154.643 91.9479 155.603 92.0679C156.563 92.1879 157.203 93.4275 157.003 94.8271Z" fill="#F7A491"/>
<path d="M172.558 99.1061C171.958 100.386 170.798 101.106 169.918 100.706C169.039 100.306 168.799 98.9462 169.399 97.6665C169.998 96.3869 171.158 95.6671 172.038 96.067C172.918 96.4669 173.118 97.8265 172.558 99.1061Z" fill="#F7A491"/>
<path d="M164.56 103.385C164.56 103.465 165.12 107.104 165.4 108.983C165.52 109.703 165.12 110.383 164.44 110.623C162.641 111.303 159.122 112.142 156.922 109.823C156.722 109.623 156.642 109.303 156.642 109.023L157.562 100.586L164.56 103.385Z" fill="#F7A491"/>
<path d="M165.12 107.024C163.2 107.824 157.682 107.144 157.242 103.665L157.562 100.626L164.56 103.385C164.56 103.425 164.96 105.904 165.12 107.024Z" fill="#F48C7F"/>
<path d="M166.36 86.1897C166.36 86.1897 163.441 85.5499 160.682 87.2694C157.882 88.989 153.364 95.7871 157.163 101.706C160.922 107.624 167.36 104.705 169.599 100.026C171.839 95.3872 172.798 88.4291 166.36 86.1897Z" fill="#F7A491"/>
<path d="M164.561 100.825L160.682 100.586C160.682 100.586 160.682 102.065 162.401 102.225C164.481 102.425 164.561 100.825 164.561 100.825Z" fill="white"/>
<path d="M171.319 89.5087C171.319 89.5087 168.48 87.9892 166.4 88.1891C164.281 88.3891 157.443 93.3877 156.443 92.5479C155.443 91.7081 156.723 87.3093 157.522 86.6695C158.322 86.0297 161.481 84.1102 161.761 84.0702C162.041 84.0302 164.921 84.0702 165.4 84.2302C165.88 84.3501 169.479 86.0697 169.479 86.0697L171.319 89.5087Z" fill="#13375B"/>
<path d="M130.289 158.53C130.329 158.37 130.489 158.37 130.649 158.33C132.089 158.25 133.528 158.13 134.968 157.89C135.208 157.851 135.448 157.771 135.648 157.691C136.048 157.531 136.448 157.491 136.848 157.611C137.087 157.651 137.287 157.651 137.527 157.651C138.247 157.611 140.327 156.851 141.366 156.651C141.606 156.611 141.806 156.411 141.846 156.171C142.766 151.972 144.725 142.615 144.925 139.535C145.165 135.616 147.325 117.861 147.325 117.861L154.603 119.661C154.603 119.661 152.043 132.777 151.404 139.135C150.924 144.014 146.365 154.531 144.925 157.571C144.246 159.81 142.566 159.93 142.206 159.97C141.966 160.01 141.766 160.13 141.646 160.29C141.406 160.61 141.086 160.89 140.766 161.13C140.527 161.29 140.327 161.529 140.167 161.769C139.887 162.209 139.607 162.689 139.367 163.169C139.207 163.489 139.007 163.609 138.727 163.529C138.447 163.449 138.287 163.249 138.287 162.889C138.287 162.369 138.447 161.889 138.687 161.45C138.927 161.01 138.887 160.77 138.607 160.41C138.447 160.21 138.247 160.01 138.047 159.81C137.807 159.65 137.607 159.53 137.287 159.57C136.768 159.73 136.248 159.85 135.728 159.93L135.288 160.05L135.048 160.09C135.008 160.09 134.248 160.21 133.968 160.21C133.768 160.21 133.408 160.25 133.129 160.25C132.849 160.29 132.289 160.17 132.289 160.17C132.049 160.17 131.809 160.09 131.609 159.93C131.529 159.85 131.449 159.77 131.489 159.65C131.529 159.53 131.609 159.49 131.729 159.45C131.889 159.41 132.809 159.29 132.769 159.25C132.489 159.25 131.649 159.25 131.409 159.25C131.049 159.25 130.729 159.13 130.489 158.89C130.369 158.77 130.249 158.69 130.289 158.53Z" fill="#F7A491"/>
<path d="M142.446 128.539L153.004 133.657C153.004 133.657 154.643 125.899 155.883 121.101C156.962 116.982 151.684 109.624 149.924 110.623C146.045 112.863 142.446 128.539 142.446 128.539Z" fill="#5184CE"/>
<path d="M213.867 114.861L307.842 118.86C307.842 118.86 299.644 146.293 299.444 147.653C299.244 149.012 268.412 165.848 260.654 165.648C252.896 165.448 234.821 158.97 230.942 157.81C227.063 156.65 216.946 148.772 217.546 143.934C218.186 139.095 213.867 114.861 213.867 114.861Z" fill="#F7CC7F"/>
<path d="M240.901 128.778H215.667C215.027 128.778 214.548 128.258 214.548 127.658V125.499C214.548 124.859 215.067 124.379 215.667 124.379H240.901C241.54 124.379 242.02 124.899 242.02 125.499V127.658C242.06 128.258 241.54 128.778 240.901 128.778Z" fill="#EAB054"/>
<path d="M251.817 76.3921L264.534 81.6307L263.814 78.9914L259.055 76.3921C259.055 76.3921 255.177 75.6323 254.777 75.4324C254.457 75.2324 251.817 76.3921 251.817 76.3921Z" fill="#F7CC7F"/>
<path opacity="0.6" d="M312.52 109.943L213.106 101.426V108.064C213.106 111.823 215.986 114.942 219.665 115.062L307.721 118.621C309.761 118.701 311.72 117.781 312.88 116.062C313.879 114.622 314.319 112.543 312.52 109.943Z" fill="#C5DDF9"/>
<path opacity="0.7" d="M213.106 101.426V100.466L312.16 109.464L312.52 109.944L213.106 101.426Z" fill="#C5DDF9"/>
<path opacity="0.2" d="M236.022 115.742L245.059 116.101L252.497 104.784L243.699 104.065L236.022 115.742Z" fill="white"/>
<path opacity="0.2" d="M252.096 116.382L259.334 105.385L255.975 105.105L248.657 116.262L252.096 116.382Z" fill="white"/>
<path d="M78.4633 115.222L191.993 116.342L192.993 152.332C192.993 152.332 179.716 171.607 178.117 171.407C176.517 171.207 142.606 165.768 139.567 165.968C136.528 166.168 109.935 153.132 108.695 153.372C107.456 153.652 99.1378 149.173 99.1378 149.173L85.6214 139.655L72.225 125.859L78.4633 115.222Z" fill="#F7CC7F"/>
<path d="M101.457 126.539H76.2239C75.5841 126.539 75.1042 126.019 75.1042 125.419V123.26C75.1042 122.62 75.6241 122.14 76.2239 122.14H101.457C102.097 122.14 102.577 122.66 102.577 123.26V125.419C102.577 126.059 102.057 126.539 101.457 126.539Z" fill="#EAB054"/>
<path d="M118.252 89.1084L114.333 89.8682C114.333 89.8682 114.693 91.3478 116.453 91.0679C118.532 90.708 118.252 89.1084 118.252 89.1084Z" fill="white"/>
<path d="M106.057 85.35C106.057 85.35 114.934 81.2711 115.814 74.9128C116.694 68.5545 108.536 74.6329 108.536 74.6329L105.217 77.792L106.057 85.35Z" fill="#1A1A1A"/>
<path d="M216.346 114.062C216.346 114.062 217.986 115.182 220.065 115.142C220.065 115.142 217.306 115.981 217.226 115.941C217.146 115.862 215.747 114.742 215.787 114.742C215.787 114.662 216.346 114.062 216.346 114.062Z" fill="#F7CC7F"/>
<path d="M224.903 72.9532L236.02 73.673C236.02 73.673 234.221 70.6738 233.421 70.6738C232.621 70.6738 227.583 70.6738 227.583 70.6738L224.903 72.9532Z" fill="#F7CC7F"/>
</svg>
