<svg width="675" height="623" viewBox="0 0 675 623" fill="none" xmlns="http://www.w3.org/2000/svg">
<path opacity="0.45" d="M675 523.564C675 535.467 523.984 622.584 337.586 622.584C151.189 622.584 0 535.467 0 523.564C0 511.661 151.016 502 337.414 502C523.811 502 675 511.661 675 523.564Z" fill="#D4E6FF"/>
<path opacity="0.72" d="M535.892 521.666C535.892 528.739 447.008 579.974 337.414 579.974C227.819 579.974 138.935 528.739 138.935 521.666C138.935 514.593 227.819 509.073 337.414 509.073C447.008 509.073 535.892 514.766 535.892 521.666Z" fill="#BBD4F2"/>
<path d="M177.595 424.166H133.24C125.991 424.166 120.295 418.301 120.295 411.228V380.866C120.295 373.621 126.163 367.928 133.24 367.928H177.768C185.017 367.928 190.712 373.794 190.712 380.866V411.228C190.712 418.301 184.844 424.166 177.595 424.166ZM133.24 375.346C130.133 375.346 127.717 377.761 127.717 380.866V411.228C127.717 414.333 130.133 416.749 133.24 416.749H177.768C180.874 416.749 183.291 414.333 183.291 411.228V380.866C183.291 377.761 180.874 375.346 177.768 375.346H133.24Z" fill="url(#paint0_linear)"/>
<path d="M238.174 529.397H72.6604C62.305 529.397 54.0207 521.117 54.0207 510.766V414.678C54.0207 404.328 62.305 396.047 72.6604 396.047H238.174C248.53 396.047 256.814 404.328 256.814 414.678V510.766C256.814 521.117 248.53 529.397 238.174 529.397Z" fill="url(#paint1_linear)"/>
<path d="M110.803 396.047H94.4068V529.397H110.803V396.047Z" fill="url(#paint2_linear)"/>
<path d="M104.59 474.367H100.62C95.2698 474.367 90.955 470.054 90.955 464.706V460.738C90.955 455.391 95.2698 451.078 100.62 451.078H104.59C109.94 451.078 114.255 455.391 114.255 460.738V464.706C114.255 470.054 109.94 474.367 104.59 474.367Z" stroke="white" stroke-width="1.4475" stroke-miterlimit="10"/>
<path d="M216.428 396.047H200.032V529.397H216.428V396.047Z" fill="url(#paint3_linear)"/>
<path d="M210.387 474.367H206.418C201.067 474.367 196.753 470.054 196.753 464.706V460.738C196.753 455.391 201.067 451.078 206.418 451.078H210.387C215.738 451.078 220.052 455.391 220.052 460.738V464.706C219.88 470.054 215.565 474.367 210.387 474.367Z" stroke="white" stroke-width="1.4475" stroke-miterlimit="10"/>
<path d="M519.151 312.035H512.42V354.99H519.151V312.035Z" fill="url(#paint4_linear)"/>
<path d="M563.507 312.035H556.776V354.99H563.507V312.035Z" fill="url(#paint5_linear)"/>
<path d="M568.512 315.313H507.588C505.689 315.313 504.308 313.76 504.308 312.035C504.308 310.138 505.862 308.757 507.588 308.757H568.512C570.41 308.757 571.791 310.31 571.791 312.035C571.791 313.76 570.41 315.313 568.512 315.313Z" fill="url(#paint6_linear)"/>
<path d="M497.06 539.92C494.988 539.92 493.263 538.195 493.263 536.125V523.36C493.263 521.289 494.988 519.564 497.06 519.564C499.131 519.564 500.857 521.289 500.857 523.36V536.125C500.857 538.195 499.131 539.92 497.06 539.92Z" fill="url(#paint7_linear)"/>
<path d="M579.04 539.92C576.969 539.92 575.243 538.195 575.243 536.125V523.36C575.243 521.289 576.969 519.564 579.04 519.564C581.111 519.564 582.837 521.289 582.837 523.36V536.125C583.009 538.195 581.284 539.92 579.04 539.92Z" fill="url(#paint8_linear)"/>
<path d="M575.243 520.944H500.857V529.742H575.243V520.944Z" fill="url(#paint9_linear)"/>
<path d="M589.913 348.952H486.186C481.354 348.952 477.384 352.92 477.384 357.75V516.632C477.384 521.462 481.354 525.43 486.186 525.43H589.913C594.746 525.43 598.715 521.462 598.715 516.632V357.75C598.715 352.92 594.746 348.952 589.913 348.952Z" fill="url(#paint10_linear)"/>
<path d="M577.314 370.343H498.785C495.161 370.343 492.227 373.276 492.227 376.899V497.138C492.227 500.761 495.161 503.693 498.785 503.693H577.314C580.938 503.693 583.872 500.761 583.872 497.138V377.071C583.872 373.276 580.938 370.343 577.314 370.343Z" fill="url(#paint11_linear)"/>
<path d="M569.893 399.67H506.207C503.273 399.67 500.857 401.913 500.857 404.5V492.825C500.857 495.585 503.273 497.656 506.207 497.656H569.893C572.827 497.656 575.243 495.413 575.243 492.825V404.5C575.243 401.913 572.827 399.67 569.893 399.67Z" fill="url(#paint12_linear)"/>
<path opacity="0.45" d="M509.659 431.067V423.994C509.659 420.716 512.248 418.129 515.527 418.129H560.745C564.024 418.129 566.613 420.716 566.613 423.994V431.067" stroke="black" stroke-width="0.965" stroke-miterlimit="10" stroke-linecap="round" stroke-linejoin="round"/>
<path d="M283.566 337.739L267.17 371.206L275.109 401.74L301.515 406.225L325.16 340.499L311.007 326.008" fill="url(#paint13_linear)"/>
<path d="M455.983 253.382V321.351C455.983 321.351 454.43 340.327 452.704 363.788C452.531 366.721 452.186 369.826 452.013 372.931C451.841 375.864 451.668 378.624 451.323 381.556C451.151 384.662 450.805 387.594 450.633 390.699C450.46 393.632 450.288 396.392 450.115 399.325C449.942 402.43 449.77 405.363 449.425 408.468C449.252 411.401 449.079 414.333 448.907 417.093C448.734 420.199 448.562 423.304 448.389 426.236C448.216 428.479 448.217 430.549 448.044 432.447C425.435 442.107 381.079 455.563 357.779 456.426C325.85 457.461 313.941 454.873 310.835 448.145C310.835 447.973 310.835 447.973 310.662 447.8C308.764 442.97 311.18 432.964 314.114 422.441C314.114 422.269 314.114 422.269 314.287 422.096C315.15 419.164 316.013 416.231 316.875 413.471C317.221 412.091 317.738 410.538 318.084 409.158C318.429 407.95 318.774 406.398 318.947 404.845C319.292 402.258 319.637 399.152 319.809 395.702C319.982 392.942 319.982 390.009 319.982 387.077C319.982 383.972 319.982 381.039 319.982 377.934C319.982 376.554 319.982 375.001 319.809 373.621C319.809 372.068 319.637 370.688 319.637 369.308C319.464 365.686 319.292 362.58 319.119 360.165C318.947 357.405 318.774 355.68 318.774 355.68C317.048 349.125 313.769 344.812 309.799 342.052C298.926 334.289 283.393 337.566 283.393 337.566C283.393 337.566 289.606 323.766 297.891 300.822C306.175 277.878 312.388 261.662 335.86 265.457C345.698 267.01 355.018 268.908 363.82 269.943C376.074 271.495 387.12 271.668 396.785 267.527C400.582 265.975 404.206 264.422 407.83 262.87C420.947 257.522 434.582 252.864 455.983 253.382Z" fill="url(#paint14_linear)"/>
<path d="M322.916 374.829L319.982 373.621C319.637 363.616 318.947 355.68 318.947 355.68C317.221 349.125 313.941 344.812 309.972 342.052C314.632 333.081 323.089 317.21 328.266 306.86C329.302 317.728 322.398 344.122 322.916 374.829Z" fill="url(#paint15_linear)"/>
<path d="M377.627 288.574C358.987 285.124 361.404 274.946 363.993 269.943C376.246 271.495 387.292 271.668 396.957 267.528C400.754 265.975 404.379 264.422 408.003 262.87C409.039 274.946 399.719 292.714 377.627 288.574Z" fill="white"/>
<path d="M455.983 288.574V321.523C455.983 321.523 449.942 397.255 448.217 432.274C447.699 441.762 447.526 448.145 447.871 449.353C449.252 455.218 388.328 460.048 356.053 461.256C324.124 462.291 314.114 454.701 311.18 447.973C311.18 447.8 311.18 447.8 311.007 447.628C308.936 442.797 311.525 432.447 314.632 421.924C329.302 422.441 375.384 420.889 382.46 383.799C390.917 339.637 429.577 334.116 438.724 273.048L455.983 288.574Z" fill="url(#paint16_linear)"/>
<path opacity="0.15" d="M448.907 416.921C448.734 420.026 448.562 423.131 448.389 426.064L314.114 422.441C314.114 422.269 314.114 422.269 314.287 422.096C315.15 419.164 316.013 416.231 316.875 413.471L448.907 416.921Z" fill="white"/>
<path opacity="0.15" d="M450.115 399.153C449.942 402.258 449.77 405.19 449.425 408.296L318.947 404.845C319.292 402.258 319.637 399.153 319.81 395.702L450.115 399.153Z" fill="white"/>
<path d="M411.455 261.49C405.242 311.345 431.13 415.714 450.115 410.021C454.43 406.398 452.704 398.29 444.247 383.972C435.79 369.481 418.531 288.401 420.775 258.212C414.734 256.142 411.455 261.49 411.455 261.49Z" fill="url(#paint17_linear)"/>
<path opacity="0.15" d="M451.323 381.557C451.151 384.662 450.805 387.594 450.633 390.7L319.982 387.249C319.982 384.144 319.982 381.212 319.982 378.106L451.323 381.557Z" fill="white"/>
<path opacity="0.15" d="M452.704 363.788C452.531 366.721 452.186 369.826 452.014 372.931L319.809 369.309C319.637 365.686 319.464 362.581 319.292 360.166L452.704 363.788Z" fill="white"/>
<path d="M359.85 269.425C349.495 303.582 326.368 412.091 316.013 416.576C305.657 421.061 306.175 411.056 316.013 390.354C325.85 369.653 345.871 269.08 351.048 266.32C356.053 263.387 360.713 266.665 359.85 269.425Z" fill="url(#paint18_linear)"/>
<path d="M414.734 351.54C414.734 351.54 435.963 264.25 448.734 255.279C461.506 246.309 502.065 264.767 455.811 360.51L414.734 351.54Z" fill="url(#paint19_linear)"/>
<path d="M333.099 418.819L276.489 438.657L241.971 408.296L240.936 408.641L223.332 416.404L221.433 414.678L211.595 405.708L180.529 311.173L209.352 335.669L240.418 326.008L240.936 326.353L269.758 355.68L320.327 341.879L325.332 366.376L327.231 375.346L330.855 401.74L333.099 418.819Z" fill="url(#paint20_linear)"/>
<path d="M333.099 418.819L276.489 438.657L269.758 355.68L320.327 341.879L325.332 366.376L327.231 375.346L330.855 401.74L333.099 418.819Z" fill="url(#paint21_linear)"/>
<path d="M240.936 326.353V408.64L223.332 416.403L221.433 414.678L209.352 335.669L240.418 326.008L240.936 326.353Z" fill="url(#paint22_linear)"/>
<path d="M330.855 401.74C329.992 401.74 329.129 401.568 328.266 401.395C301.688 398.117 293.058 377.244 300.997 376.554C309.109 376.036 324.469 368.963 324.987 365.858L325.332 366.376L327.231 375.346L330.855 401.74Z" fill="url(#paint23_linear)"/>
<path d="M414.734 351.54L400.927 396.565L338.794 378.451L324.987 365.858L327.058 375.174C327.058 375.174 313.251 378.106 309.454 377.589C305.657 377.244 296.51 374.139 298.236 380.177C299.789 386.214 303.413 390.355 310.317 393.115C317.221 395.702 330.165 395.185 330.165 395.185L396.612 431.067C409.729 438.14 425.952 432.447 431.648 418.646L456.156 360.338C455.983 360.683 436.308 350.16 414.734 351.54Z" fill="url(#paint24_linear)"/>
<path d="M195.89 358.268C201.067 364.306 217.636 363.961 219.189 368.963C220.743 373.794 219.189 381.039 212.804 382.592C206.418 384.144 196.062 381.557 194.509 372.241C192.783 362.753 195.89 358.268 195.89 358.268Z" fill="url(#paint25_linear)"/>
<path d="M343.8 194.039L326.713 182.653C321.363 179.03 321.535 171.267 326.886 167.817L333.789 163.504L330.165 158.847C325.85 153.154 330.165 145.046 337.241 145.391L395.577 148.151C407.485 148.668 416.46 159.364 414.734 171.267L419.739 172.992C425.435 175.062 428.369 181.273 426.125 186.966L409.211 229.748C407.313 234.578 401.962 237.338 396.785 235.786L386.429 232.853L343.8 194.039Z" fill="url(#paint26_linear)"/>
<path d="M402.48 268.218C402.48 268.218 394.886 282.019 382.287 282.019C369.515 282.019 368.48 277.188 368.48 277.188L367.272 266.493L365.891 254.59L399.891 229.058L401.099 246.137L402.48 268.218Z" fill="url(#paint27_linear)"/>
<path d="M400.927 245.964C396.094 258.73 386.774 271.495 367.099 266.32L365.718 254.417L399.719 228.885L400.927 245.964Z" fill="#F98875"/>
<path d="M339.312 171.957C353.982 189.381 391.262 198.179 407.14 190.071C407.14 190.071 406.622 211.807 407.83 212.842C409.039 214.05 413.353 201.456 413.353 201.456C413.353 201.456 426.988 195.936 427.333 209.219C427.678 222.503 409.039 219.915 409.039 219.915C409.039 219.915 390.744 257.35 367.617 257.35C344.49 257.35 337.414 240.616 337.069 224.4C336.896 208.529 337.759 201.974 339.312 171.957Z" fill="url(#paint28_linear)"/>
<path d="M414.044 215.257C414.044 215.257 412.49 208.357 418.013 206.287C423.709 204.389 423.018 210.772 421.12 212.152" stroke="#F98875" stroke-width="0.965" stroke-miterlimit="10" stroke-linecap="round" stroke-linejoin="round"/>
<path d="M186.57 440.383C186.57 454.356 195.545 467.122 209.524 471.434L377.972 522.842L391.434 526.982L405.932 481.957L393.851 476.955L231.271 410.366C213.667 403.12 193.474 412.608 187.951 430.895C187.088 434.172 186.57 437.277 186.57 440.383Z" fill="url(#paint29_linear)"/>
<path d="M377.972 522.842L391.434 526.983L405.932 481.957L393.678 476.955L377.972 522.842Z" fill="url(#paint30_linear)"/>
<path d="M405.932 481.957L429.749 472.297C434.064 470.572 439.242 471.434 442.694 474.367L514.664 535.953C521.395 541.818 516.044 552.686 507.242 550.961L391.262 526.81L405.932 481.957Z" fill="url(#paint31_linear)"/>
<path d="M507.07 440.383C507.07 454.356 498.095 467.122 484.115 471.434L315.667 522.842L302.205 526.982L287.708 481.957L299.789 476.955L462.196 410.366C479.801 403.12 499.994 412.608 505.516 430.895C506.725 434.172 507.07 437.277 507.07 440.383Z" fill="url(#paint32_linear)"/>
<path d="M315.667 522.842L302.378 526.983L287.88 481.957L299.962 476.955L315.667 522.842Z" fill="url(#paint33_linear)"/>
<path d="M287.88 481.957L264.063 472.297C259.748 470.572 254.57 471.434 251.119 474.367L179.149 535.953C172.418 541.818 177.768 552.686 186.57 550.961L302.551 526.81L287.88 481.957Z" fill="url(#paint34_linear)"/>
<path d="M220.57 268.045C210.733 269.943 204.347 279.431 206.245 289.437C206.245 289.782 206.418 290.127 206.418 290.299C210.042 305.652 224.022 307.033 228.855 314.278C229.2 314.968 230.235 314.795 230.408 313.933C232.134 305.48 244.56 298.925 242.144 283.226C242.144 282.881 241.971 282.536 241.971 282.364C239.9 272.358 230.408 265.975 220.57 268.045ZM225.403 292.369C221.778 293.059 218.327 290.644 217.464 287.021C217.291 286.504 217.291 285.986 217.291 285.296C217.464 282.364 219.535 279.604 222.641 279.086C225.748 278.568 228.682 280.121 230.063 282.881C230.235 283.399 230.408 283.916 230.58 284.434C231.271 288.056 229.027 291.679 225.403 292.369Z" fill="url(#paint35_linear)"/>
<path d="M230.753 278.741C267.342 167.472 505.517 109.336 581.974 233.543" stroke="#00928D" stroke-width="0.965" stroke-miterlimit="10" stroke-linecap="round" stroke-linejoin="round" stroke-dasharray="2.89 2.89"/>
<path d="M90.955 233.543C91.4728 232.853 91.818 232.163 92.3357 231.473" stroke="#00928D" stroke-width="0.965" stroke-linecap="round" stroke-linejoin="round"/>
<path d="M95.2698 227.505C146.356 160.399 224.712 209.047 225.23 270.978" stroke="#00928D" stroke-width="0.965" stroke-linecap="round" stroke-linejoin="round" stroke-dasharray="2.85 2.85"/>
<path d="M225.23 273.565C225.23 274.428 225.23 275.291 225.058 275.981" stroke="#00928D" stroke-width="0.965" stroke-linecap="round" stroke-linejoin="round"/>
<path d="M159.128 87.4275C232.479 94.5004 230.753 273.048 230.753 273.048C230.753 273.048 246.286 93.4653 482.907 97.4331" stroke="#00928D" stroke-width="0.965" stroke-miterlimit="10" stroke-linecap="round" stroke-linejoin="round" stroke-dasharray="2.89 2.89"/>
<path d="M644.624 233.543C644.624 234.234 644.624 234.751 644.624 235.441C644.624 236.821 644.452 238.201 644.279 239.581C643.761 244.584 642.38 249.414 640.655 253.9C640.137 255.107 639.619 256.315 638.929 257.522C634.441 266.32 627.538 273.911 619.081 278.914C617.7 279.776 616.492 280.466 615.111 281.156C610.969 283.226 606.654 284.779 601.994 285.641C601.131 285.814 600.441 285.986 599.578 286.159C596.989 286.504 594.228 286.849 591.466 286.849C588.705 286.849 585.943 286.676 583.355 286.159C582.492 285.986 581.801 285.814 580.938 285.641C576.278 284.779 571.964 283.226 567.822 281.156C566.441 280.466 565.06 279.776 563.852 278.914C554.014 272.876 546.42 263.905 542.106 253.21C541.76 252.347 541.415 251.312 541.07 250.449C540.725 249.414 540.38 248.379 540.207 247.344C540.035 246.827 540.034 246.482 539.862 245.964C538.826 241.996 538.481 237.856 538.481 233.716C538.481 204.389 562.299 180.583 591.639 180.583C620.807 180.41 644.624 204.217 644.624 233.543Z" fill="url(#paint36_linear)"/>
<path d="M644.452 235.441C644.452 236.821 644.279 238.201 644.106 239.581C643.589 244.584 642.208 249.414 640.482 253.9C639.964 255.107 639.446 256.315 638.756 257.522C634.269 266.32 627.365 273.911 618.908 278.914C617.528 279.776 616.319 280.466 614.939 281.156C610.796 283.226 606.482 284.779 601.822 285.641C600.959 285.814 600.268 285.986 599.406 286.159C596.817 286.504 594.055 286.849 591.294 286.849C588.532 286.849 585.771 286.676 583.182 286.159C582.319 285.986 581.629 285.814 580.766 285.641C576.106 284.779 571.791 283.226 567.649 281.156C566.268 280.466 564.888 279.776 563.679 278.914C553.842 272.876 546.248 263.905 541.933 253.21C541.588 252.347 541.243 251.312 540.897 250.449C540.552 249.414 540.207 248.379 540.035 247.344C539.862 246.827 539.862 246.482 539.689 245.964H553.842V258.902H561.436V271.151H570.928V246.827H585.944V279.604H596.126V266.665H609.416V245.274H616.319V256.315H628.918V235.269H644.452V235.441Z" fill="url(#paint37_linear)"/>
<path d="M607 249.415H577.659V255.28H607V249.415Z" fill="#02419C"/>
<path d="M577.487 219.398H569.375L571.619 202.319C571.791 201.457 572.481 200.594 573.517 200.594C574.38 200.594 575.243 201.284 575.415 202.319L577.487 219.398Z" fill="url(#paint38_linear)"/>
<path d="M579.04 209.565H567.994V230.956H579.04V209.565Z" fill="url(#paint39_linear)"/>
<path d="M580.248 214.222H566.613V243.549H580.248V214.222Z" fill="url(#paint40_linear)"/>
<path d="M581.974 225.091H564.887V258.73H581.974V225.091Z" fill="url(#paint41_linear)"/>
<path d="M583.182 244.929V286.159C582.319 285.987 581.629 285.814 580.766 285.642C576.106 284.779 571.791 283.226 567.649 281.156C566.268 280.466 564.888 279.776 563.679 278.914V244.757H583.182V244.929Z" fill="url(#paint42_linear)"/>
<path d="M613.385 219.398H605.274L607.517 202.319C607.69 201.457 608.38 200.594 609.416 200.594C610.279 200.594 611.142 201.284 611.314 202.319L613.385 219.398Z" fill="url(#paint43_linear)"/>
<path d="M614.766 209.565H603.72V230.956H614.766V209.565Z" fill="url(#paint44_linear)"/>
<path d="M616.147 214.222H602.512V243.549H616.147V214.222Z" fill="url(#paint45_linear)"/>
<path d="M617.873 225.091H600.786V258.73H617.873V225.091Z" fill="url(#paint46_linear)"/>
<path d="M619.081 244.929V279.086C617.7 279.949 616.492 280.639 615.111 281.329C610.969 283.399 606.654 284.951 601.994 285.814C601.131 285.987 600.441 286.159 599.578 286.332V245.102H619.081V244.929Z" fill="url(#paint47_linear)"/>
<path d="M652.563 169.887C643.416 165.747 632.715 169.715 628.573 178.858C628.401 179.203 628.401 179.375 628.228 179.72C622.187 194.211 632.715 203.527 632.543 212.152C632.543 212.842 633.406 213.36 633.923 212.842C640.309 206.977 654.289 208.874 661.193 194.729C661.365 194.384 661.538 194.211 661.538 193.866C665.68 184.723 661.538 174.027 652.563 169.887ZM642.208 192.486C638.756 190.933 637.375 186.966 638.929 183.688C639.101 183.17 639.446 182.653 639.792 182.308C641.69 179.893 644.969 179.03 647.731 180.41C650.665 181.618 652.045 184.723 651.528 187.656C651.355 188.173 651.183 188.691 651.01 189.208C649.629 192.486 645.66 194.039 642.208 192.486Z" fill="url(#paint48_linear)"/>
<path d="M215.565 81.7346C215.565 82.4246 215.565 82.9422 215.565 83.6322C215.565 85.0123 215.392 86.3924 215.22 87.7724C214.702 92.7752 213.321 97.6055 211.596 102.091C211.078 103.298 210.56 104.506 209.87 105.713C204.692 115.892 196.408 124.345 186.052 129.347C181.91 131.417 177.595 132.97 172.935 133.833C169.484 134.523 166.032 134.868 162.407 134.868C158.783 134.868 155.331 134.523 151.879 133.833C147.219 132.97 142.905 131.417 138.762 129.347C127.026 123.482 117.879 113.476 113.047 101.401C112.701 100.538 112.356 99.5031 112.011 98.6406C111.666 97.6055 111.321 96.5704 111.148 95.5354C110.975 95.0179 110.975 94.6728 110.803 94.1553C109.767 90.1876 109.422 86.0474 109.422 81.9071C109.422 52.5805 133.24 28.7741 162.58 28.7741C191.92 28.6016 215.565 52.408 215.565 81.7346Z" fill="url(#paint49_linear)"/>
<path d="M215.565 83.6323C215.565 85.0124 215.392 86.3925 215.22 87.7726C214.702 92.7753 213.321 97.6056 211.595 102.091C211.078 103.298 210.56 104.506 209.87 105.714C204.692 115.892 196.408 124.345 186.052 129.347C181.91 131.418 177.595 132.97 172.935 133.833C169.483 134.523 166.032 134.868 162.407 134.868C158.783 134.868 155.331 134.523 151.879 133.833C147.219 132.97 142.905 131.418 138.762 129.347C127.026 123.482 117.879 113.477 113.047 101.401C112.701 100.538 112.356 99.5032 112.011 98.6407C111.666 97.6056 111.321 96.5705 111.148 95.5355C110.975 95.018 110.975 94.6729 110.803 94.1554H124.955V107.094H132.549V119.342H142.042V94.8455H157.057V127.622H167.24V114.857H180.529V93.4654H187.433V104.506H200.032V83.6323H215.565Z" fill="url(#paint50_linear)"/>
<path d="M180.529 114.857C179.839 112.959 179.149 111.061 178.286 108.991C177.94 108.129 177.595 107.266 177.25 106.231C175.352 100.883 173.453 95.1904 171.555 89.4976C171.382 88.8076 171.209 88.29 171.037 87.6C168.621 79.8371 166.377 71.9016 164.824 64.6562C164.478 63.2761 164.306 62.0686 163.961 60.6885H160.854C160.681 61.896 160.336 63.2761 159.991 64.6562C158.438 71.9016 156.194 79.8371 153.778 87.6C153.605 88.29 153.433 88.8076 153.087 89.4976C152.57 91.3952 151.879 93.1203 151.362 95.0179C149.981 98.8131 148.773 102.781 147.392 106.404C147.047 107.266 146.702 108.129 146.356 109.164C143.422 117.444 140.488 124.517 138.59 129.52C142.732 131.59 147.047 133.143 151.707 134.005C152.57 130.555 154.123 124 155.849 116.064C155.849 115.719 155.849 115.374 156.022 115.029C156.194 114.684 156.367 114.512 156.712 114.166C159.301 111.751 166.722 111.579 168.448 115.029C168.621 115.547 168.793 116.064 168.793 116.582C170.519 124.172 172.072 130.555 172.763 134.005C177.423 133.143 181.737 131.59 185.88 129.52C184.671 125.552 182.6 120.549 180.529 114.857ZM161.89 87.4275C162.062 86.3924 162.235 85.3574 162.407 84.4948C162.58 85.5299 162.753 86.5649 162.925 87.4275C163.098 88.1175 163.098 88.6351 163.27 89.3251C164.306 94.8454 165.514 100.711 166.722 106.059C166.895 106.576 166.895 107.094 167.067 107.784L161.544 107.439L157.92 107.611C158.093 107.094 158.093 106.576 158.265 106.059C159.473 100.538 160.681 94.8454 161.717 89.3251C161.717 88.8076 161.89 88.1175 161.89 87.4275Z" fill="url(#paint51_linear)"/>
<path d="M156.021 115.892C156.021 115.547 156.021 115.202 156.194 114.857C156.194 115.202 156.194 115.547 156.021 115.892Z" fill="url(#paint52_linear)"/>
<path d="M168.966 116.237C168.793 115.719 168.793 115.202 168.621 114.684C168.966 115.202 168.966 115.719 168.966 116.237Z" fill="url(#paint53_linear)"/>
<path d="M172.935 89.3252H152.052C151.534 89.3252 151.016 88.9802 151.016 88.2902C151.016 87.7727 151.362 87.2551 152.052 87.2551H172.935C173.453 87.2551 173.971 87.6001 173.971 88.2902C173.971 88.9802 173.453 89.3252 172.935 89.3252Z" fill="url(#paint54_linear)"/>
<path d="M179.839 108.819H145.148C144.458 108.819 143.768 108.301 143.768 107.439C143.768 106.749 144.285 106.059 145.148 106.059H179.839C180.529 106.059 181.22 106.576 181.22 107.439C181.22 108.301 180.529 108.819 179.839 108.819Z" fill="url(#paint55_linear)"/>
<path d="M160.681 60.171L159.473 53.7882C159.473 53.6157 159.473 53.4432 159.473 53.2707L161.89 47.5778C162.235 46.8878 163.27 46.8878 163.443 47.5778L165.169 52.5806C165.169 52.7531 165.169 52.9256 165.169 52.9256L163.961 59.9985H160.681V60.171Z" fill="url(#paint56_linear)"/>
<path d="M164.824 64.4838H159.991C159.473 64.4838 158.956 63.4488 158.956 62.0687C158.956 60.6886 159.473 59.6536 159.991 59.6536H164.824C165.341 59.6536 165.859 60.6886 165.859 62.0687C165.859 63.4488 165.341 64.4838 164.824 64.4838Z" fill="url(#paint57_linear)"/>
<path d="M120.986 1.51761C111.321 3.93275 105.28 13.7658 107.696 23.5989C107.696 23.9439 107.869 24.2889 107.869 24.4614C112.184 39.6423 126.163 40.3323 131.514 47.2327C132.031 47.7502 132.894 47.5777 133.067 46.8877C134.448 38.2622 146.529 31.1893 143.25 15.6634C143.25 15.3184 143.077 14.9734 143.077 14.8009C140.488 4.96781 130.651 -0.897526 120.986 1.51761ZM126.854 25.669C123.229 26.5315 119.605 24.2889 118.742 20.8387C118.569 20.3212 118.569 19.8036 118.569 19.1136C118.569 16.1809 120.641 13.4208 123.575 12.5582C126.681 11.8682 129.615 13.2483 131.169 15.8359C131.341 16.3534 131.686 16.871 131.686 17.3885C132.722 21.1837 130.478 24.8064 126.854 25.669Z" fill="url(#paint58_linear)"/>
<path d="M558.156 80.8722C558.156 86.565 557.293 91.9128 555.395 96.9156C551.253 108.646 542.968 118.479 532.095 124.172C529.334 125.725 526.227 126.932 523.121 127.795C518.633 129.175 513.973 129.865 508.968 129.865C502.755 129.865 496.714 128.657 491.364 126.587C489.12 125.725 486.877 124.69 484.806 123.482C484.46 123.31 484.288 123.137 483.943 122.965C483.425 122.62 482.907 122.275 482.389 121.93C474.623 116.927 468.41 109.854 464.44 101.401C461.506 95.1905 459.953 88.1176 459.953 80.6997C459.953 53.6157 481.872 31.5344 509.141 31.5344C536.065 31.8794 558.156 53.7882 558.156 80.8722Z" fill="url(#paint59_linear)"/>
<path d="M555.395 96.9155C551.253 108.646 542.969 118.479 532.095 124.172C529.334 125.725 526.227 126.932 523.121 127.795C518.633 129.175 513.973 129.865 508.968 129.865C502.755 129.865 496.714 128.657 491.364 126.587C489.12 125.725 486.877 124.69 484.806 123.482C484.46 123.31 484.288 123.137 483.943 122.964C483.425 122.619 482.907 122.274 482.389 121.929C474.623 116.927 468.41 109.854 464.44 101.401C467.892 102.953 470.653 106.059 470.998 106.231C470.826 106.059 470.308 104.678 474.968 103.298C480.146 101.746 485.323 111.924 485.323 111.924C485.323 111.924 486.359 109.336 490.846 109.681C495.334 110.026 499.648 118.824 499.648 118.824C499.648 118.824 501.547 113.131 503.963 112.096C504.826 114.512 503.1 118.652 502.928 119.169C503.1 118.824 504.654 116.754 506.897 116.582C507.242 118.307 505.862 120.377 505.689 120.549C506.034 120.377 510.349 117.962 514.319 118.479C518.288 118.997 519.151 121.412 519.151 121.412C519.151 121.412 522.948 109.164 530.542 109.164C538.136 109.164 538.999 111.061 538.999 111.061C538.999 111.061 542.106 97.6056 555.395 96.9155Z" fill="url(#paint60_linear)"/>
<path d="M489.811 76.7319H483.943V123.655H489.811V76.7319Z" fill="url(#paint61_linear)"/>
<path d="M491.364 76.7319H482.389V84.4949H491.364V76.7319Z" fill="url(#paint62_linear)"/>
<path d="M491.364 121.067V126.76C489.12 125.897 486.877 124.862 484.806 123.655H483.943V123.137C483.425 122.792 482.907 122.447 482.389 122.102V120.895H491.364V121.067Z" fill="url(#paint63_linear)"/>
<path d="M490.846 97.4331H482.907V120.894H490.846V97.4331Z" fill="url(#paint64_linear)"/>
<path d="M530.542 76.7319H524.674V123.655H530.542V76.7319Z" fill="url(#paint65_linear)"/>
<path d="M532.095 76.7319H523.121V84.4949H532.095V76.7319Z" fill="url(#paint66_linear)"/>
<path d="M532.095 121.067V124.345C529.334 125.897 526.227 127.105 523.121 127.967V121.067H532.095Z" fill="url(#paint67_linear)"/>
<path d="M531.578 97.4331H523.638V120.894H531.578V97.4331Z" fill="url(#paint68_linear)"/>
<path d="M545.903 72.7642C521.567 84.6673 492.917 84.6673 468.582 72.7642C469.618 70.694 470.481 68.7964 471.516 66.7263C494.126 77.7669 520.359 77.7669 542.969 66.7263C544.004 68.6239 544.867 70.694 545.903 72.7642Z" fill="url(#paint69_linear)"/>
<path d="M571.619 28.9467V41.8849C571.619 45.3351 568.857 48.0953 565.405 48.0953H545.903L539.689 54.3056V48.0953H532.095C528.644 48.0953 525.882 45.3351 525.882 41.8849V28.9467C525.882 25.4965 528.644 22.7363 532.095 22.7363H565.405C568.857 22.7363 571.619 25.4965 571.619 28.9467Z" fill="url(#paint70_linear)"/>
<path d="M554.36 31.0168C554.877 31.5344 555.222 32.3969 555.222 33.087C555.222 33.777 554.877 34.6396 554.36 35.1571L547.974 41.5399L541.588 35.1571C540.38 33.9495 540.38 32.0519 541.588 31.0168C542.106 30.4993 542.969 30.1543 543.659 30.1543C544.349 30.1543 545.212 30.4993 545.73 31.0168L547.801 33.087L549.872 31.0168C551.253 29.9818 553.151 29.9818 554.36 31.0168Z" fill="white"/>
<path d="M143.077 253.382C143.077 255.452 142.905 257.694 142.732 259.765C142.214 265.112 140.834 270.115 138.762 274.945C138.245 276.153 137.727 277.533 137.037 278.741C127.717 297.027 108.732 309.62 86.8128 309.62C62.9954 309.62 42.8024 294.957 34.518 274.083C34.1729 273.048 33.8277 272.185 33.4825 271.15C33.1373 270.115 32.7921 268.908 32.447 267.873C31.2388 263.215 30.5485 258.385 30.5485 253.382C30.5485 222.33 55.7466 197.144 86.8128 197.144C117.879 197.316 143.077 222.33 143.077 253.382Z" fill="url(#paint71_linear)"/>
<path d="M142.732 259.765C142.214 265.112 140.834 270.115 138.762 274.945C138.245 276.153 137.727 277.533 137.037 278.741L104.59 278.396L79.0463 278.223L85.2595 272.013L85.6047 271.668L121.849 235.441L142.732 259.765Z" fill="url(#paint72_linear)"/>
<path d="M121.503 235.613L104.59 278.396L78.8737 278.223L121.503 235.613Z" fill="url(#paint73_linear)"/>
<path d="M87.3306 274.773H82.3255L48.4978 274.428L34.3454 274.255C34.0002 273.22 33.6551 272.358 33.3099 271.323L37.9698 266.665L60.4065 244.239L84.5692 271.495L84.9143 272.013L87.3306 274.773Z" fill="url(#paint74_linear)"/>
<path d="M60.5791 244.066L52.1222 265.457L48.6704 274.255L34.518 274.083C34.1728 273.048 33.8276 272.185 33.4825 271.15L38.1424 266.492L60.5791 244.066Z" fill="url(#paint75_linear)"/>
<path d="M138.762 274.945C138.245 276.153 137.727 277.533 137.037 278.741C130.133 292.369 117.706 302.892 102.864 307.377C97.8586 308.93 92.3357 309.62 86.8128 309.62C62.9954 309.62 42.8023 294.957 34.518 274.083C34.1728 273.048 33.8277 272.185 33.4825 271.15C33.1373 270.115 32.7921 268.908 32.4469 267.873C34.3454 267.355 36.2439 266.837 38.1424 266.492C42.8023 265.63 47.1171 265.285 51.4319 265.457C51.6044 265.457 51.777 265.457 51.9496 265.457C63.168 265.802 73.5234 268.908 84.3966 271.495C84.5692 271.495 84.9143 271.668 85.0869 271.668C89.9195 272.875 94.752 273.91 99.9297 274.6C101.828 274.945 103.554 275.118 105.453 275.29C117.706 276.326 129.097 274.945 138.762 274.945Z" fill="url(#paint76_linear)"/>
<path d="M102.864 307.377C97.8586 308.93 92.3357 309.62 86.8128 309.62C62.9954 309.62 42.8023 294.957 34.518 274.083C34.1728 273.048 33.8277 272.185 33.4825 271.15C33.1373 270.115 32.7921 268.908 32.4469 267.873C34.3454 267.355 36.2439 266.837 38.1424 266.492C42.8023 265.63 47.1171 265.285 51.4319 265.457C71.7975 266.665 79.7366 274.428 71.2797 284.606C63.6858 293.749 94.2342 296.164 102.864 307.377Z" fill="url(#paint77_linear)"/>
<path opacity="0.25" d="M87.6758 229.058C87.6758 235.786 82.1529 241.306 75.4219 241.306C68.6909 241.306 63.168 235.786 63.168 229.058C63.168 222.33 68.6909 216.81 75.4219 216.81C82.1529 216.81 87.6758 222.33 87.6758 229.058Z" fill="white"/>
<path opacity="0.45" d="M75.4219 237.338C79.9972 237.338 83.7062 233.631 83.7062 229.058C83.7062 224.485 79.9972 220.777 75.4219 220.777C70.8466 220.777 67.1376 224.485 67.1376 229.058C67.1376 233.631 70.8466 237.338 75.4219 237.338Z" fill="white"/>
<path d="M79.7366 229.058C79.7366 231.473 77.8382 233.371 75.4219 233.371C73.0056 233.371 71.1071 231.473 71.1071 229.058C71.1071 226.643 73.0056 224.745 75.4219 224.745C77.8382 224.745 79.7366 226.643 79.7366 229.058Z" fill="#F3FF70"/>
<path d="M52.4674 178.858V191.796C52.4674 195.246 55.2289 198.006 58.6807 198.006H78.1833L84.3966 204.216V198.006H91.9906C95.4424 198.006 98.2038 195.246 98.2038 191.796V178.858C98.2038 175.407 95.4424 172.647 91.9906 172.647H58.6807C55.2289 172.647 52.4674 175.407 52.4674 178.858Z" fill="url(#paint78_linear)"/>
<path d="M69.7264 180.928C69.2087 181.445 68.8635 182.308 68.8635 182.998C68.8635 183.688 69.2087 184.55 69.7264 185.068L76.1123 191.451L82.4981 185.068C83.7062 183.86 83.7062 181.963 82.4981 180.928C81.9803 180.41 81.1174 180.065 80.427 180.065C79.7366 180.065 78.8737 180.41 78.3559 180.928L76.2849 182.998L74.2138 180.928C72.833 179.893 70.9346 179.893 69.7264 180.928Z" fill="white"/>
<defs>
<linearGradient id="paint0_linear" x1="127.506" y1="270.042" x2="195.156" y2="575.576" gradientUnits="userSpaceOnUse">
<stop stop-color="#302A7B"/>
<stop offset="0.9944" stop-color="#975189"/>
</linearGradient>
<linearGradient id="paint1_linear" x1="103.698" y1="380.158" x2="310.951" y2="711.355" gradientUnits="userSpaceOnUse">
<stop stop-color="#FFE099"/>
<stop offset="1" stop-color="#F34C70"/>
</linearGradient>
<linearGradient id="paint2_linear" x1="80.7601" y1="289.168" x2="101.055" y2="450.874" gradientUnits="userSpaceOnUse">
<stop stop-color="#FFE099"/>
<stop offset="1" stop-color="#F34C70"/>
</linearGradient>
<linearGradient id="paint3_linear" x1="184.857" y1="276.104" x2="205.151" y2="437.81" gradientUnits="userSpaceOnUse">
<stop stop-color="#FFE099"/>
<stop offset="1" stop-color="#F34C70"/>
</linearGradient>
<linearGradient id="paint4_linear" x1="516.774" y1="259.454" x2="515.486" y2="352.27" gradientUnits="userSpaceOnUse">
<stop stop-color="#B3D3F1"/>
<stop offset="1" stop-color="#2C4CB6"/>
</linearGradient>
<linearGradient id="paint5_linear" x1="561.201" y1="260.071" x2="559.913" y2="352.887" gradientUnits="userSpaceOnUse">
<stop stop-color="#B3D3F1"/>
<stop offset="1" stop-color="#2C4CB6"/>
</linearGradient>
<linearGradient id="paint6_linear" x1="538.796" y1="259.76" x2="537.508" y2="352.576" gradientUnits="userSpaceOnUse">
<stop stop-color="#B3D3F1"/>
<stop offset="1" stop-color="#2C4CB6"/>
</linearGradient>
<linearGradient id="paint7_linear" x1="488.937" y1="452.798" x2="502.18" y2="578.67" gradientUnits="userSpaceOnUse">
<stop stop-color="#A2D6E2"/>
<stop offset="1" stop-color="#7B99CB"/>
</linearGradient>
<linearGradient id="paint8_linear" x1="567.493" y1="441.844" x2="578.767" y2="527.249" gradientUnits="userSpaceOnUse">
<stop stop-color="#B3D3F1"/>
<stop offset="1" stop-color="#2C4CB6"/>
</linearGradient>
<linearGradient id="paint9_linear" x1="527.733" y1="447.093" x2="539.008" y2="532.498" gradientUnits="userSpaceOnUse">
<stop stop-color="#B3D3F1"/>
<stop offset="1" stop-color="#2C4CB6"/>
</linearGradient>
<linearGradient id="paint10_linear" x1="499.044" y1="352.695" x2="617.929" y2="610.157" gradientUnits="userSpaceOnUse">
<stop stop-color="#B3D3F1"/>
<stop offset="1" stop-color="#5183E7"/>
</linearGradient>
<linearGradient id="paint11_linear" x1="519.968" y1="276.784" x2="540.988" y2="463.144" gradientUnits="userSpaceOnUse">
<stop stop-color="#B3D3F1"/>
<stop offset="1" stop-color="#5183E7"/>
</linearGradient>
<linearGradient id="paint12_linear" x1="505.6" y1="256.839" x2="538.217" y2="449.727" gradientUnits="userSpaceOnUse">
<stop stop-color="#B3D3F1"/>
<stop offset="1" stop-color="#2C4CB6"/>
</linearGradient>
<linearGradient id="paint13_linear" x1="332.148" y1="374.538" x2="481.815" y2="415.376" gradientUnits="userSpaceOnUse">
<stop stop-color="#FFB39F"/>
<stop offset="1" stop-color="#FFDEC5"/>
</linearGradient>
<linearGradient id="paint14_linear" x1="366.767" y1="275.504" x2="399.266" y2="494.178" gradientUnits="userSpaceOnUse">
<stop stop-color="#4FB2C6"/>
<stop offset="1" stop-color="#02419C"/>
</linearGradient>
<linearGradient id="paint15_linear" x1="334.201" y1="144.355" x2="298.516" y2="580.428" gradientUnits="userSpaceOnUse">
<stop stop-color="#4FB2C6"/>
<stop offset="1" stop-color="#02419C"/>
</linearGradient>
<linearGradient id="paint16_linear" x1="131.243" y1="49.7239" x2="499.969" y2="516.379" gradientUnits="userSpaceOnUse">
<stop stop-color="#4FB2C6"/>
<stop offset="1" stop-color="#02419C"/>
</linearGradient>
<linearGradient id="paint17_linear" x1="423.278" y1="224.302" x2="441.121" y2="486.964" gradientUnits="userSpaceOnUse">
<stop stop-color="#FFE099"/>
<stop offset="1" stop-color="#F34C70"/>
</linearGradient>
<linearGradient id="paint18_linear" x1="326.687" y1="230.863" x2="344.53" y2="493.526" gradientUnits="userSpaceOnUse">
<stop stop-color="#FFE099"/>
<stop offset="1" stop-color="#F34C70"/>
</linearGradient>
<linearGradient id="paint19_linear" x1="438.404" y1="264.856" x2="470.904" y2="483.533" gradientUnits="userSpaceOnUse">
<stop stop-color="#4FB2C6"/>
<stop offset="1" stop-color="#02419C"/>
</linearGradient>
<linearGradient id="paint20_linear" x1="276.869" y1="833.972" x2="249.679" y2="196.405" gradientUnits="userSpaceOnUse">
<stop stop-color="#63B3BB"/>
<stop offset="1" stop-color="#C7FFE4"/>
</linearGradient>
<linearGradient id="paint21_linear" x1="284.744" y1="482.235" x2="317.598" y2="295.762" gradientUnits="userSpaceOnUse">
<stop stop-color="#63B3BB"/>
<stop offset="1" stop-color="#C7FFE4"/>
</linearGradient>
<linearGradient id="paint22_linear" x1="211.007" y1="452.136" x2="240.462" y2="284.956" gradientUnits="userSpaceOnUse">
<stop stop-color="#63B3BB"/>
<stop offset="1" stop-color="#C7FFE4"/>
</linearGradient>
<linearGradient id="paint23_linear" x1="312.029" y1="452.311" x2="319.251" y2="269.977" gradientUnits="userSpaceOnUse">
<stop stop-color="#63B3BB"/>
<stop offset="1" stop-color="#C7FFE4"/>
</linearGradient>
<linearGradient id="paint24_linear" x1="551.246" y1="247.811" x2="344.03" y2="417.488" gradientUnits="userSpaceOnUse">
<stop stop-color="#FFB39F"/>
<stop offset="1" stop-color="#FFDEC5"/>
</linearGradient>
<linearGradient id="paint25_linear" x1="136.082" y1="373.666" x2="228.355" y2="369.412" gradientUnits="userSpaceOnUse">
<stop stop-color="#FFB39F"/>
<stop offset="1" stop-color="#FFDEC5"/>
</linearGradient>
<linearGradient id="paint26_linear" x1="365.854" y1="128.602" x2="381.361" y2="213.608" gradientUnits="userSpaceOnUse">
<stop stop-color="#5C4070"/>
<stop offset="1" stop-color="#391051"/>
</linearGradient>
<linearGradient id="paint27_linear" x1="378.01" y1="238.418" x2="426.872" y2="355.741" gradientUnits="userSpaceOnUse">
<stop stop-color="#FFB39F"/>
<stop offset="1" stop-color="#FFDEC5"/>
</linearGradient>
<linearGradient id="paint28_linear" x1="385.297" y1="179.837" x2="371.839" y2="258.865" gradientUnits="userSpaceOnUse">
<stop stop-color="#FFB39F"/>
<stop offset="1" stop-color="#FFDEC5"/>
</linearGradient>
<linearGradient id="paint29_linear" x1="270.23" y1="583.974" x2="341.603" y2="242.244" gradientUnits="userSpaceOnUse">
<stop stop-color="#302A7B"/>
<stop offset="0.9944" stop-color="#975189"/>
</linearGradient>
<linearGradient id="paint30_linear" x1="289.863" y1="398.934" x2="350.782" y2="460.732" gradientUnits="userSpaceOnUse">
<stop stop-color="#302A7B"/>
<stop offset="0.9944" stop-color="#975189"/>
</linearGradient>
<linearGradient id="paint31_linear" x1="367.065" y1="264.211" x2="412.949" y2="405.755" gradientUnits="userSpaceOnUse">
<stop stop-color="#5C4070"/>
<stop offset="1" stop-color="#391051"/>
</linearGradient>
<linearGradient id="paint32_linear" x1="530.404" y1="324.137" x2="251.598" y2="625.183" gradientUnits="userSpaceOnUse">
<stop stop-color="#302A7B"/>
<stop offset="0.9944" stop-color="#975189"/>
</linearGradient>
<linearGradient id="paint33_linear" x1="403.865" y1="398.934" x2="342.946" y2="460.732" gradientUnits="userSpaceOnUse">
<stop stop-color="#302A7B"/>
<stop offset="0.9944" stop-color="#975189"/>
</linearGradient>
<linearGradient id="paint34_linear" x1="326.664" y1="264.211" x2="280.779" y2="405.755" gradientUnits="userSpaceOnUse">
<stop stop-color="#5C4070"/>
<stop offset="1" stop-color="#391051"/>
</linearGradient>
<linearGradient id="paint35_linear" x1="219.082" y1="272.862" x2="239.8" y2="327.707" gradientUnits="userSpaceOnUse">
<stop stop-color="#FF487C"/>
<stop offset="1" stop-color="#FFADAA"/>
</linearGradient>
<linearGradient id="paint36_linear" x1="591.385" y1="233.629" x2="585.862" y2="66.1709" gradientUnits="userSpaceOnUse">
<stop stop-color="#E5FFFF"/>
<stop offset="1" stop-color="#25DBFF"/>
</linearGradient>
<linearGradient id="paint37_linear" x1="583.25" y1="161.826" x2="604.492" y2="351.393" gradientUnits="userSpaceOnUse">
<stop stop-color="#E5FFFF"/>
<stop offset="1" stop-color="#5EC0FF"/>
</linearGradient>
<linearGradient id="paint38_linear" x1="573.47" y1="195.034" x2="573.47" y2="226.475" gradientUnits="userSpaceOnUse">
<stop stop-color="#4FB2C6"/>
<stop offset="1" stop-color="#02419C"/>
</linearGradient>
<linearGradient id="paint39_linear" x1="573.47" y1="202.911" x2="573.47" y2="238.891" gradientUnits="userSpaceOnUse">
<stop stop-color="#4FB2C6"/>
<stop offset="1" stop-color="#02419C"/>
</linearGradient>
<linearGradient id="paint40_linear" x1="573.47" y1="205.122" x2="573.47" y2="254.481" gradientUnits="userSpaceOnUse">
<stop stop-color="#4FB2C6"/>
<stop offset="1" stop-color="#02419C"/>
</linearGradient>
<linearGradient id="paint41_linear" x1="573.47" y1="214.637" x2="573.47" y2="271.403" gradientUnits="userSpaceOnUse">
<stop stop-color="#4FB2C6"/>
<stop offset="1" stop-color="#02419C"/>
</linearGradient>
<linearGradient id="paint42_linear" x1="573.473" y1="232.057" x2="573.473" y2="301.632" gradientUnits="userSpaceOnUse">
<stop stop-color="#4FB2C6"/>
<stop offset="1" stop-color="#02419C"/>
</linearGradient>
<linearGradient id="paint43_linear" x1="609.294" y1="195.034" x2="609.294" y2="226.475" gradientUnits="userSpaceOnUse">
<stop stop-color="#4FB2C6"/>
<stop offset="1" stop-color="#02419C"/>
</linearGradient>
<linearGradient id="paint44_linear" x1="609.294" y1="202.911" x2="609.294" y2="238.891" gradientUnits="userSpaceOnUse">
<stop stop-color="#4FB2C6"/>
<stop offset="1" stop-color="#02419C"/>
</linearGradient>
<linearGradient id="paint45_linear" x1="609.294" y1="205.122" x2="609.294" y2="254.481" gradientUnits="userSpaceOnUse">
<stop stop-color="#4FB2C6"/>
<stop offset="1" stop-color="#02419C"/>
</linearGradient>
<linearGradient id="paint46_linear" x1="609.294" y1="214.637" x2="609.294" y2="271.403" gradientUnits="userSpaceOnUse">
<stop stop-color="#4FB2C6"/>
<stop offset="1" stop-color="#02419C"/>
</linearGradient>
<linearGradient id="paint47_linear" x1="609.296" y1="232.057" x2="609.296" y2="301.631" gradientUnits="userSpaceOnUse">
<stop stop-color="#4FB2C6"/>
<stop offset="1" stop-color="#02419C"/>
</linearGradient>
<linearGradient id="paint48_linear" x1="648.464" y1="173.035" x2="633.519" y2="229.723" gradientUnits="userSpaceOnUse">
<stop stop-color="#FF487C"/>
<stop offset="1" stop-color="#FFADAA"/>
</linearGradient>
<linearGradient id="paint49_linear" x1="162.485" y1="81.7198" x2="156.962" y2="-85.738" gradientUnits="userSpaceOnUse">
<stop stop-color="#E5FFFF"/>
<stop offset="1" stop-color="#25DBFF"/>
</linearGradient>
<linearGradient id="paint50_linear" x1="154.35" y1="9.91703" x2="175.592" y2="199.484" gradientUnits="userSpaceOnUse">
<stop stop-color="#E5FFFF"/>
<stop offset="1" stop-color="#5EC0FF"/>
</linearGradient>
<linearGradient id="paint51_linear" x1="183.971" y1="68.45" x2="157.14" y2="136.71" gradientUnits="userSpaceOnUse">
<stop stop-color="#5C4070"/>
<stop offset="1" stop-color="#391051"/>
</linearGradient>
<linearGradient id="paint52_linear" x1="156.142" y1="115.29" x2="156.641" y2="115.828" gradientUnits="userSpaceOnUse">
<stop stop-color="#5C4070"/>
<stop offset="1" stop-color="#391051"/>
</linearGradient>
<linearGradient id="paint53_linear" x1="168.751" y1="115.44" x2="169.923" y2="116.703" gradientUnits="userSpaceOnUse">
<stop stop-color="#5C4070"/>
<stop offset="1" stop-color="#391051"/>
</linearGradient>
<linearGradient id="paint54_linear" x1="165.91" y1="145.847" x2="161.546" y2="72.6491" gradientUnits="userSpaceOnUse">
<stop stop-color="#302A7B"/>
<stop offset="0.9944" stop-color="#975189"/>
</linearGradient>
<linearGradient id="paint55_linear" x1="164.763" y1="145.72" x2="160.421" y2="72.8927" gradientUnits="userSpaceOnUse">
<stop stop-color="#302A7B"/>
<stop offset="0.9944" stop-color="#975189"/>
</linearGradient>
<linearGradient id="paint56_linear" x1="152.069" y1="7.19192" x2="177.103" y2="119.548" gradientUnits="userSpaceOnUse">
<stop stop-color="#5C4070"/>
<stop offset="1" stop-color="#391051"/>
</linearGradient>
<linearGradient id="paint57_linear" x1="174.642" y1="105.865" x2="161.598" y2="58.8374" gradientUnits="userSpaceOnUse">
<stop stop-color="#302A7B"/>
<stop offset="0.9944" stop-color="#975189"/>
</linearGradient>
<linearGradient id="paint58_linear" x1="119.703" y1="6.50062" x2="143.124" y2="60.2468" gradientUnits="userSpaceOnUse">
<stop stop-color="#FF487C"/>
<stop offset="1" stop-color="#FFADAA"/>
</linearGradient>
<linearGradient id="paint59_linear" x1="494.502" y1="128.4" x2="577.985" y2="-145.118" gradientUnits="userSpaceOnUse">
<stop stop-color="#E5FFFF"/>
<stop offset="1" stop-color="#5EC0FF"/>
</linearGradient>
<linearGradient id="paint60_linear" x1="514.026" y1="140.061" x2="508.503" y2="84.8081" gradientUnits="userSpaceOnUse">
<stop stop-color="#2CEDB8"/>
<stop offset="1" stop-color="#A9FFB3"/>
</linearGradient>
<linearGradient id="paint61_linear" x1="476.639" y1="133.581" x2="516.277" y2="3.71362" gradientUnits="userSpaceOnUse">
<stop stop-color="#FF487C"/>
<stop offset="1" stop-color="#FFADAA"/>
</linearGradient>
<linearGradient id="paint62_linear" x1="489.088" y1="73.202" x2="497.615" y2="45.266" gradientUnits="userSpaceOnUse">
<stop stop-color="#5C4070"/>
<stop offset="1" stop-color="#391051"/>
</linearGradient>
<linearGradient id="paint63_linear" x1="488.452" y1="118.616" x2="493.113" y2="103.343" gradientUnits="userSpaceOnUse">
<stop stop-color="#5C4070"/>
<stop offset="1" stop-color="#391051"/>
</linearGradient>
<linearGradient id="paint64_linear" x1="497.593" y1="239.645" x2="484.276" y2="77.9882" gradientUnits="userSpaceOnUse">
<stop stop-color="#FF487C"/>
<stop offset="1" stop-color="#FFADAA"/>
</linearGradient>
<linearGradient id="paint65_linear" x1="517.401" y1="133.583" x2="557.043" y2="3.70126" gradientUnits="userSpaceOnUse">
<stop stop-color="#FF487C"/>
<stop offset="1" stop-color="#FFADAA"/>
</linearGradient>
<linearGradient id="paint66_linear" x1="529.852" y1="73.202" x2="538.379" y2="45.2658" gradientUnits="userSpaceOnUse">
<stop stop-color="#5C4070"/>
<stop offset="1" stop-color="#391051"/>
</linearGradient>
<linearGradient id="paint67_linear" x1="529.166" y1="117.543" x2="537.056" y2="91.6935" gradientUnits="userSpaceOnUse">
<stop stop-color="#5C4070"/>
<stop offset="1" stop-color="#391051"/>
</linearGradient>
<linearGradient id="paint68_linear" x1="538.357" y1="239.645" x2="525.04" y2="77.9882" gradientUnits="userSpaceOnUse">
<stop stop-color="#FF487C"/>
<stop offset="1" stop-color="#FFADAA"/>
</linearGradient>
<linearGradient id="paint69_linear" x1="501.517" y1="91.4276" x2="525.857" y2="11.6804" gradientUnits="userSpaceOnUse">
<stop stop-color="#FF487C"/>
<stop offset="1" stop-color="#FFADAA"/>
</linearGradient>
<linearGradient id="paint70_linear" x1="539.939" y1="26.2667" x2="606.454" y2="94.3011" gradientUnits="userSpaceOnUse">
<stop stop-color="#FF487C"/>
<stop offset="1" stop-color="#FFADAA"/>
</linearGradient>
<linearGradient id="paint71_linear" x1="41.4895" y1="182.55" x2="298.364" y2="584.941" gradientUnits="userSpaceOnUse">
<stop stop-color="#E5FFFF"/>
<stop offset="1" stop-color="#25DBFF"/>
</linearGradient>
<linearGradient id="paint72_linear" x1="97.6408" y1="253.196" x2="160.697" y2="328.849" gradientUnits="userSpaceOnUse">
<stop stop-color="#FFE099"/>
<stop offset="1" stop-color="#F34C70"/>
</linearGradient>
<linearGradient id="paint73_linear" x1="88.2329" y1="234.236" x2="135.893" y2="324.126" gradientUnits="userSpaceOnUse">
<stop stop-color="#FFE099"/>
<stop offset="1" stop-color="#F34C70"/>
</linearGradient>
<linearGradient id="paint74_linear" x1="44.812" y1="255.107" x2="104.332" y2="326.518" gradientUnits="userSpaceOnUse">
<stop stop-color="#FFE099"/>
<stop offset="1" stop-color="#F34C70"/>
</linearGradient>
<linearGradient id="paint75_linear" x1="38.6676" y1="242.32" x2="72.3173" y2="305.786" gradientUnits="userSpaceOnUse">
<stop stop-color="#FFE099"/>
<stop offset="1" stop-color="#F34C70"/>
</linearGradient>
<linearGradient id="paint76_linear" x1="201.569" y1="253.588" x2="-39.0908" y2="314.845" gradientUnits="userSpaceOnUse">
<stop stop-color="#FFE099"/>
<stop offset="1" stop-color="#F34C70"/>
</linearGradient>
<linearGradient id="paint77_linear" x1="80.0637" y1="271.181" x2="25.9757" y2="342.866" gradientUnits="userSpaceOnUse">
<stop stop-color="#FFE099"/>
<stop offset="1" stop-color="#F34C70"/>
</linearGradient>
<linearGradient id="paint78_linear" x1="84.1962" y1="176.203" x2="17.6813" y2="244.238" gradientUnits="userSpaceOnUse">
<stop stop-color="#FF487C"/>
<stop offset="1" stop-color="#FFADAA"/>
</linearGradient>
</defs>
</svg>
