<svg width="788" height="726" viewBox="0 0 788 726" fill="none" xmlns="http://www.w3.org/2000/svg">
<path d="M678.578 107.895C675.368 106.167 673.392 105.426 673.392 105.426L674.38 103.204C674.38 103.204 676.355 104.192 679.813 105.673L678.578 107.895Z" fill="#8DC0DB"/>
<path d="M229.87 436.024C227.647 432.815 225.425 429.358 223.696 425.901L225.672 424.667C227.647 427.877 229.623 431.333 231.845 434.543L229.87 436.024ZM217.769 415.532C216.041 412.075 214.312 408.371 212.83 404.668L215.053 403.68C216.534 407.137 218.263 410.84 219.992 414.297L217.769 415.532ZM208.879 393.804C207.644 390.101 206.409 386.15 205.669 382.447L207.891 381.953C208.879 385.657 209.867 389.36 211.102 393.064L208.879 393.804ZM689.937 372.324C685.986 372.324 682.035 371.83 678.084 371.336L678.331 368.867C682.282 369.361 686.233 369.608 689.937 369.855V372.324ZM701.791 372.077L701.544 369.608C705.495 369.361 709.2 368.621 712.904 367.88L713.398 370.102C709.693 371.09 705.742 371.83 701.791 372.077ZM203.199 370.843C202.458 366.892 201.964 362.942 201.717 358.991L204.187 358.745C204.434 362.695 204.928 366.398 205.669 370.349L203.199 370.843ZM666.23 369.361C663.761 368.867 661.291 368.127 658.822 367.633C657.587 367.386 656.105 366.892 654.871 366.398L655.611 364.176C656.846 364.67 658.328 364.917 659.563 365.411C662.032 366.152 664.502 366.645 666.971 367.139L666.23 369.361ZM725.004 367.139L724.263 364.917C727.968 363.683 731.425 361.954 734.882 360.226L736.117 362.201C732.166 364.176 728.709 365.658 725.004 367.139ZM643.511 362.695C640.054 361.46 636.349 359.979 632.645 358.251L633.633 356.029C637.337 357.51 641.041 358.992 644.499 360.473L643.511 362.695ZM745.748 355.782L744.266 353.807C747.23 351.585 750.44 349.116 753.157 346.4L754.885 348.128C752.169 351.091 748.958 353.56 745.748 355.782ZM622.026 353.313C618.569 351.585 615.112 349.856 611.407 347.881L612.642 345.906C616.099 347.881 619.557 349.609 623.014 351.338L622.026 353.313ZM203.446 347.14H200.977C200.977 343.19 201.224 339.24 201.47 335.289L203.94 335.536C203.693 339.486 203.446 343.437 203.446 347.14ZM601.035 342.202C597.578 340.227 594.368 338.252 590.911 336.277L592.145 334.301C595.603 336.277 598.813 338.252 602.27 340.227L601.035 342.202ZM763.035 339.486L761.059 338.005C763.529 335.042 765.751 331.833 767.727 328.623L769.702 329.857C767.727 333.067 765.504 336.277 763.035 339.486ZM581.033 329.857C577.822 327.635 574.365 325.66 571.155 323.438L572.389 321.463C575.6 323.685 579.057 325.907 582.267 327.882L581.033 329.857ZM205.422 323.932L203.199 323.438C203.94 319.488 204.681 315.784 205.669 311.834L207.891 312.327C206.903 316.278 206.163 320.228 205.422 323.932ZM775.382 319.241L773.16 318.253C774.888 314.796 776.37 311.093 777.605 307.636L779.827 308.377C778.592 312.081 777.111 315.784 775.382 319.241ZM561.523 316.772C558.313 314.55 555.103 312.327 551.892 310.105L553.374 308.13C556.585 310.352 559.795 312.574 563.005 314.796L561.523 316.772ZM542.261 303.192C539.051 300.97 535.841 298.501 532.877 296.279L534.359 294.304C537.569 296.526 540.78 298.995 543.743 301.217L542.261 303.192ZM211.348 301.464L209.126 300.723C210.361 297.02 211.842 293.316 213.324 289.613L215.547 290.6C213.818 294.057 212.583 297.76 211.348 301.464ZM783.531 297.02L781.309 296.526C782.297 292.822 783.038 289.119 783.778 285.168L786.001 285.662C785.26 289.366 784.519 293.316 783.531 297.02ZM523.246 289.366L513.862 282.453L515.344 280.477L524.728 287.391L523.246 289.366ZM220.486 279.984L218.263 278.996C219.992 275.539 221.967 272.083 224.19 268.626L226.165 269.861C224.19 273.07 222.214 276.527 220.486 279.984ZM504.231 275.292C501.021 273.07 497.81 270.601 494.6 268.379L496.082 266.404C499.292 268.626 502.502 271.095 505.713 273.317L504.231 275.292ZM787.483 273.564L785.013 273.317C785.26 269.367 785.507 265.663 785.507 261.713H787.977C787.977 265.663 787.977 269.861 787.483 273.564ZM485.216 261.466C482.006 259.244 478.795 256.775 475.585 254.553L477.067 252.578C480.277 254.8 483.487 257.022 486.698 259.491L485.216 261.466ZM232.586 260.232L230.611 258.75C232.833 255.54 235.303 252.331 237.772 249.368L239.501 250.849C237.278 253.812 234.809 257.022 232.586 260.232ZM785.507 250.109C785.26 246.158 785.013 242.455 784.519 238.504L786.989 238.257C787.483 242.208 787.977 246.158 787.977 250.109H785.507ZM465.954 247.887C462.743 245.664 459.533 243.442 456.323 241.22L457.558 239.245C460.768 241.467 463.978 243.689 467.436 245.911L465.954 247.887ZM247.403 242.208L245.675 240.48C248.391 237.517 251.107 234.801 254.071 232.085L255.799 233.813C252.836 236.529 250.12 239.492 247.403 242.208ZM446.445 235.048C443.234 232.826 439.777 230.85 436.567 228.875L437.802 226.9C441.012 228.875 444.469 231.097 447.926 233.073L446.445 235.048ZM782.544 226.9C781.803 223.197 780.815 219.246 779.827 215.543L782.05 214.802C783.285 218.505 784.025 222.456 785.013 226.406L782.544 226.9ZM264.69 226.406L263.208 224.431C266.171 221.962 269.382 219.493 272.592 217.271L273.827 219.246C270.863 221.715 267.653 223.937 264.69 226.406ZM426.442 222.703C422.985 220.728 419.527 218.752 416.07 217.024L417.305 214.802C420.762 216.53 424.219 218.505 427.677 220.481L426.442 222.703ZM283.952 213.074L282.717 211.098C286.174 209.123 289.632 207.148 293.089 205.42L294.077 207.642C290.619 209.37 287.162 211.099 283.952 213.074ZM405.698 211.839C401.994 210.111 398.536 208.383 395.079 206.901L396.067 204.679C399.524 206.16 403.229 207.889 406.933 209.617L405.698 211.839ZM775.876 204.679C774.394 201.223 772.913 197.519 771.184 194.062L773.406 193.075C775.135 196.531 776.864 200.235 778.346 203.938L775.876 204.679ZM304.696 202.951L303.955 200.729C307.659 199.247 311.363 198.013 315.314 197.025L316.055 199.247C312.104 200.235 308.4 201.716 304.696 202.951ZM384.213 202.704C380.509 201.469 376.805 200.235 373.101 199L373.842 196.778C377.546 197.766 381.25 199 384.954 200.482L384.213 202.704ZM327.168 196.531L326.674 194.309C330.625 193.569 334.576 193.075 338.528 192.828L338.775 195.297C334.823 195.297 331.119 196.038 327.168 196.531ZM361.741 196.285C358.037 195.544 354.086 195.05 350.381 195.05V192.581C354.332 192.828 358.284 193.322 362.235 193.816L361.741 196.285ZM765.504 183.94C763.529 180.73 761.306 177.52 759.083 174.31L761.059 172.829C763.282 176.039 765.504 179.495 767.48 182.705L765.504 183.94ZM751.922 164.928C749.452 161.965 746.983 159.003 744.266 156.04L745.995 154.312C748.712 157.274 751.428 160.237 753.897 163.2L751.922 164.928ZM735.87 147.892C733.154 145.176 730.19 142.707 727.227 139.991L728.709 138.263C731.672 140.732 734.635 143.448 737.599 146.164L735.87 147.892ZM718.09 132.584C715.126 130.115 711.916 127.893 708.706 125.671L710.187 123.696C713.398 125.918 716.608 128.387 719.818 130.609L718.09 132.584ZM698.828 119.252C695.617 117.277 692.16 115.054 688.703 113.326L689.937 111.351C693.395 113.326 696.605 115.301 700.062 117.523L698.828 119.252Z" fill="#8DC0DB"/>
<path d="M240.489 450.592C239.254 449.11 238.019 447.382 236.785 445.901L238.76 444.419C239.995 445.901 241.23 447.629 242.464 449.11L240.489 450.592Z" fill="#8DC0DB"/>
<path d="M569.673 22.7151C562.512 21.2337 558.066 25.9248 556.832 27.9C556.832 27.9 556.832 27.9 556.585 28.1469C556.338 28.3938 556.338 28.3938 556.338 28.3938C555.103 30.369 552.387 36.2946 556.585 42.2202C558.807 45.4299 565.969 50.6148 592.146 66.6633C618.322 82.7118 675.615 115.549 675.615 115.549L679.072 110.365L679.566 109.624L683.023 104.439C683.023 104.439 630.67 64.4412 605.728 46.1706C581.033 28.1469 573.624 23.4558 569.673 22.7151Z" fill="#A7CFEA"/>
<path d="M564.144 33.76C566.189 30.6983 565.549 26.6814 562.713 24.7881C559.878 22.8947 555.921 23.8419 553.876 26.9036C551.831 29.9653 552.471 33.9821 555.307 35.8755C558.142 37.7688 562.099 36.8217 564.144 33.76Z" fill="#A7CFEA"/>
<path d="M668.206 96.291L695.123 81.7239L699.322 85.9212L678.331 110.364L668.206 96.291Z" fill="#A7CFEA"/>
<path d="M603.752 47.6517L664.749 0L672.404 5.1849L625.484 64.9346L603.752 47.6517Z" fill="#A7CFEA"/>
<path d="M662.279 105.179L659.069 135.548L664.502 138.017L679.072 109.129L662.279 105.179Z" fill="#A7CFEA"/>
<path d="M592.639 64.1938L571.896 138.758L579.798 144.189L617.087 77.7733L592.639 64.1938Z" fill="#A7CFEA"/>
<path d="M599.801 98.5127C598.566 100.241 596.343 100.735 594.615 99.5003L578.563 88.8836C576.834 87.6491 576.341 85.427 577.575 83.6987C578.81 81.9704 581.033 81.4766 582.761 82.7111L598.813 93.3278C600.542 94.5623 601.035 96.7844 599.801 98.5127Z" fill="#A7CFEA"/>
<path d="M592.886 121.228C591.652 122.956 589.429 123.45 587.7 122.215L571.649 111.598C569.92 110.364 569.426 108.142 570.661 106.414C571.896 104.685 574.118 104.191 575.847 105.426L591.898 116.043C593.38 117.277 593.874 119.499 592.886 121.228Z" fill="#A7CFEA"/>
<path d="M638.078 41.479C639.313 39.7507 638.819 37.5286 637.09 36.2941L621.039 25.6774C619.31 24.4429 617.087 24.9367 615.853 26.665C614.618 28.3933 615.112 30.6154 616.84 31.8499L632.892 42.4666C634.621 43.7011 636.843 43.2073 638.078 41.479Z" fill="#A7CFEA"/>
<path d="M656.353 26.1716C657.587 24.4433 657.093 22.2212 655.365 20.9867L639.313 10.3701C637.584 9.13555 635.362 9.62935 634.127 11.3576C632.892 13.0859 633.386 15.308 635.115 16.5425L651.167 27.1592C652.895 28.3937 655.118 27.8999 656.353 26.1716Z" fill="#A7CFEA"/>
<path d="M139.177 726C139.177 726 200.307 607.77 389.774 607.77C579.24 607.77 637.977 726 637.977 726H139.177Z" fill="#CEDEE9"/>
<path d="M445.563 183.465C445.563 183.465 424.205 207.774 422.916 270.572C421.627 333.371 452.192 349.393 452.192 349.393H539.284V185.675L445.563 183.465Z" fill="#E65520"/>
<path d="M565.43 364.862C555.672 367.624 526.395 369.65 512.033 369.65C500.986 369.65 473.367 370.755 463.424 366.704C460.478 365.415 459.189 363.757 460.294 361.547C460.294 361.547 455.322 354.917 463.24 352.708L473.919 307.772L463.976 261.548C457.348 262.469 451.456 263.39 448.141 264.495C447.405 262.469 445.564 257.313 443.538 250.867C440.04 239.633 435.989 224.532 436.725 216.429C438.014 202.249 478.706 183.649 478.706 183.649L477.418 188.437C477.418 188.437 506.141 221.954 522.529 218.271C539.1 214.587 519.583 196.171 519.583 196.171L520.503 188.621C520.872 188.805 521.056 188.805 521.424 188.989C521.424 188.989 542.967 198.934 547.202 205.011L547.754 205.748L566.167 227.479L571.138 236.503C569.297 237.608 567.64 239.265 565.983 240.922C563.957 242.948 562.116 244.974 560.275 247.184C561.564 249.025 563.037 251.788 563.037 254.919C563.037 258.233 561.748 263.758 560.275 268.546C559.906 269.836 559.538 270.94 559.17 272.045C558.065 275.36 557.329 277.754 557.329 277.754L566.167 350.498C566.167 350.498 572.611 352.708 567.824 356.759C568.008 356.391 575.189 362.1 565.43 364.862Z" fill="#429FBF"/>
<path d="M590.472 176.835H607.964C604.097 176.835 600.783 180.15 599.31 184.938C598.757 186.595 598.573 188.437 598.573 190.279C598.573 192.12 598.941 193.962 599.31 195.619C600.783 200.407 604.097 203.722 607.964 203.722H590.472C585.132 203.722 580.897 197.645 580.897 190.279C580.897 182.728 585.132 176.835 590.472 176.835Z" fill="#101019"/>
<path d="M595.811 208.326H577.03C577.399 205.564 577.214 202.249 576.294 200.776V180.15C579.24 178.676 579.608 175.546 576.294 174.441V174.072V170.942H577.767H587.71H602.256H609.437H610.726V172.415V177.387C609.805 177.019 608.884 176.835 607.779 176.835H590.287C584.948 176.835 580.713 182.912 580.713 190.278C580.713 197.645 584.948 203.722 590.287 203.722H607.779C609.068 203.722 610.173 203.354 611.278 202.801V204.459C610.91 204.643 610.726 204.827 610.357 205.011C608.884 206.116 608.148 207.405 607.779 208.326H607.595H595.811Z" fill="#30303D"/>
<path d="M617.17 193.041C616.433 197.461 614.224 200.96 611.462 202.617C610.357 203.17 609.253 203.538 607.964 203.538C604.097 203.538 600.783 200.223 599.31 195.435C598.757 193.962 598.389 192.12 598.389 190.279C598.389 188.437 598.757 186.595 599.125 184.938C600.598 180.15 603.913 176.835 607.779 176.835C608.884 176.835 609.805 177.019 610.726 177.387C611.646 177.756 612.567 178.492 613.303 179.229C615.697 181.623 617.354 185.675 617.354 190.279C617.354 191.199 617.354 192.12 617.17 193.041ZM613.487 190.279C613.487 184.938 610.91 180.702 607.964 180.702C604.833 180.702 602.44 184.938 602.44 190.279C602.44 195.619 605.018 199.855 607.964 199.855C610.91 199.855 613.487 195.435 613.487 190.279Z" fill="#C5C5D6"/>
<path d="M609.436 167.995H602.255V171.31H609.436V167.995Z" fill="#E71E62"/>
<path d="M587.709 166.522H577.767V171.126H587.709V166.522Z" fill="#E71E62"/>
<path d="M622.325 202.249C623.062 202.801 623.614 203.722 623.798 205.011C624.351 209.984 617.906 219.928 617.906 219.928C615.697 256.024 595.627 293.408 584.948 294.881C574.268 296.171 559.17 272.046 559.17 272.046C559.538 270.941 559.906 269.836 560.274 268.547C566.535 263.022 574.268 259.339 580.713 253.814L584.579 258.786L601.151 221.954C598.573 217.718 596.547 213.114 595.627 208.326H607.779H607.963C608.148 207.221 609.068 206.116 610.541 205.011C610.725 204.827 611.094 204.643 611.462 204.459C615.513 201.328 620.116 200.591 622.325 202.249Z" fill="#FFAEC3"/>
<path d="M622.694 197.277C623.062 198.934 622.878 200.591 622.509 202.249C620.116 200.591 615.697 201.512 611.646 204.275V202.617C614.592 200.96 616.801 197.461 617.354 193.041C618.09 193.041 619.563 193.041 619.748 193.225C620.3 193.593 620.852 193.962 621.221 194.33C621.957 195.251 622.325 196.172 622.694 197.277Z" fill="#FFAEC3"/>
<path d="M619.195 180.886C619.379 181.07 619.379 181.07 619.563 181.255C620.668 182.36 621.405 183.833 621.773 185.49C622.694 188.437 622.878 191.752 621.405 194.33L621.22 194.514C620.852 193.962 620.3 193.593 619.748 193.409C619.563 193.225 618.09 193.225 617.354 193.225C617.538 192.304 617.538 191.383 617.538 190.278C617.538 185.674 615.881 181.807 613.487 179.229C614.96 179.229 617.906 179.781 619.195 180.886Z" fill="#FFAEC3"/>
<path d="M610.909 172.599C610.909 172.599 610.909 172.415 610.909 172.599C612.751 172.415 614.592 172.783 616.065 173.704C617.538 174.625 618.643 176.098 619.011 177.756C619.195 178.676 619.195 179.781 619.195 180.702C617.906 179.781 614.96 179.045 613.487 179.045C612.751 178.308 611.83 177.571 610.909 177.203V172.599Z" fill="#FFAEC3"/>
<path d="M607.964 180.518C611.094 180.518 613.487 184.754 613.487 190.094C613.487 195.435 610.91 199.671 607.964 199.671C604.833 199.671 602.44 195.435 602.44 190.094C602.256 184.938 604.833 180.518 607.964 180.518Z" fill="white"/>
<path d="M571.322 236.319C572.243 235.766 573.163 235.214 574.268 235.029C574.821 234.845 575.373 234.845 575.925 235.029C576.846 235.398 577.03 236.871 576.846 237.976C576.478 240.923 575.557 243.869 574.268 246.816C576.294 245.895 578.687 245.895 580.713 246.816C582.002 247.368 583.106 248.289 583.29 249.578C583.475 251.236 582.186 252.893 580.897 253.998C574.452 259.339 566.903 263.206 560.459 268.731C561.932 263.943 563.221 258.418 563.221 255.103C563.221 251.788 561.748 249.21 560.459 247.368C562.3 245.342 564.325 243.133 566.167 241.107C567.824 239.081 569.481 237.424 571.322 236.319Z" fill="#00769F"/>
<path d="M576.293 180.15V200.591C575.741 199.855 575.005 199.486 573.9 199.302C573.9 199.302 575.557 195.619 574.636 191.752C573.9 187.884 566.351 185.859 566.351 185.859C566.351 185.859 570.401 181.807 575.005 180.702C575.557 180.518 575.925 180.334 576.293 180.15Z" fill="#181723"/>
<path d="M510.744 258.05L503.379 265.784L499.697 257.681L494.541 223.059L510.744 258.05Z" fill="#181723"/>
<path d="M448.326 264.311C459.373 260.996 499.697 257.681 499.697 257.681L503.379 265.784L499.881 269.652C499.881 269.652 481.284 274.808 466.186 277.939C455.875 279.965 447.037 281.069 446.853 278.86C446.3 273.335 451.087 270.757 451.087 270.757C451.087 270.757 445.564 269.467 445.564 265.968C445.564 265.416 446.484 264.863 448.326 264.311Z" fill="#00769F"/>
<path d="M538.732 199.671C538.732 199.118 538.548 198.566 538.179 198.198C537.811 197.829 537.259 197.461 536.706 197.645C535.602 197.645 534.497 198.566 534.497 199.855C534.681 202.617 535.049 205.564 535.233 208.326C535.233 208.879 535.417 209.431 535.786 209.8C536.154 210.168 536.706 210.536 537.259 210.352C538.363 210.352 539.468 209.431 539.468 208.142C539.284 205.38 538.916 202.617 538.732 199.671Z" fill="#5AA537"/>
<path d="M620.668 201.328C617.17 201.328 613.856 202.433 610.91 204.459C610.173 205.011 610.91 206.3 611.646 205.748C614.224 203.906 617.354 202.986 620.668 202.801C621.773 202.801 621.773 201.328 620.668 201.328Z" fill="#181723"/>
<path d="M615.881 210.168C614.592 211.273 613.303 212.378 612.014 213.299C610.909 214.219 609.805 215.509 608.332 215.693C607.779 215.877 607.227 215.693 606.859 215.509C606.306 215.14 606.306 214.404 606.49 213.851C606.675 212.378 607.227 210.905 607.779 209.431C608.148 208.511 606.859 207.774 606.49 208.695C605.57 210.352 605.017 212.194 604.833 214.219C604.649 215.877 605.938 217.166 607.595 217.35C609.252 217.534 610.725 216.245 612.014 215.14L616.801 211.089C617.538 210.536 616.433 209.616 615.881 210.168Z" fill="#181723"/>
<path d="M620.668 194.146C620.484 193.962 620.3 193.962 620.116 193.962C619.379 193.962 618.643 193.777 617.906 193.777C617.722 193.777 617.538 193.962 617.354 193.962C617.17 194.146 617.17 194.33 617.17 194.514C617.17 194.698 617.17 194.882 617.354 195.067C617.538 195.251 617.722 195.251 617.906 195.251C618.643 195.251 619.379 195.435 620.116 195.435C620.3 195.435 620.484 195.251 620.668 195.251C620.852 195.067 620.852 194.882 620.852 194.698C621.036 194.514 620.852 194.33 620.668 194.146Z" fill="#181723"/>
<path d="M618.827 180.702C618.275 180.518 617.906 180.518 617.354 180.702C616.802 180.886 616.433 181.071 616.065 181.439C615.881 181.623 615.881 181.807 615.881 181.991C615.881 182.176 615.881 182.36 616.065 182.544C616.249 182.728 616.433 182.728 616.618 182.728C616.802 182.728 616.986 182.728 617.17 182.544C617.354 182.36 617.538 182.36 617.538 182.36C617.722 182.36 617.722 182.36 617.907 182.176C618.091 182.176 618.275 182.176 618.275 182.176H618.459C618.827 182.36 619.195 181.991 619.38 181.623C619.38 181.071 619.195 180.702 618.827 180.702Z" fill="#181723"/>
<path d="M459.005 191.199C459.005 191.199 464.344 181.439 477.049 181.623C477.049 181.623 507.614 205.564 515.9 252.709L505.589 263.574C505.589 263.574 489.938 215.324 459.005 191.199Z" fill="#E65520"/>
<path d="M485.703 306.299C485.703 306.299 473.919 324.715 463.976 327.294L462.503 334.66C462.503 334.66 482.389 331.345 495.646 312.745C495.83 312.745 491.779 312.561 485.703 306.299Z" fill="#181723"/>
<path d="M522.897 189.726C522.897 189.726 530.999 183.465 543.335 186.595C543.335 186.595 565.614 222.875 563.221 270.572L556.04 272.23C556.224 272.23 547.754 220.112 522.897 189.726Z" fill="#E65520"/>
<path d="M503.379 265.784L510.56 258.049L542.598 223.796C542.598 223.796 544.808 214.588 547.57 205.011C549.411 198.381 551.805 191.568 553.83 187.148C557.328 179.597 562.484 176.466 567.455 175.177C569.665 174.625 571.69 174.441 573.716 174.441C574.636 174.441 575.557 174.441 576.109 174.625C579.424 175.546 579.055 178.86 576.109 180.334C575.741 180.518 575.373 180.702 574.821 180.886C570.217 182.175 566.167 186.043 566.167 186.043C566.167 186.043 573.532 188.068 574.452 191.936C575.189 195.803 573.716 199.486 573.716 199.486C574.821 199.671 575.741 200.039 576.109 200.775C577.03 202.433 577.214 205.748 576.846 208.326C576.478 210.72 575.741 212.562 574.452 212.746C574.821 213.298 575.005 214.035 575.005 214.956C575.005 219.744 567.824 221.586 567.824 221.586C567.64 223.796 567.087 225.637 566.167 227.479C562.3 235.213 553.278 239.265 553.278 239.265C553.278 239.265 511.481 308.693 498.776 312.377C488.833 315.323 474.84 293.04 468.948 282.911C467.29 279.964 466.186 277.939 466.186 277.939C481.284 274.808 499.881 269.651 499.881 269.651L503.379 265.784Z" fill="#FFAEC3"/>
<path d="M568.744 215.693C568.744 215.324 568.192 215.14 567.824 215.14C567.455 215.324 567.271 215.693 567.271 216.061C567.639 217.902 567.455 219.56 566.719 221.402C566.535 221.77 566.903 222.138 567.271 222.322C567.639 222.506 568.008 222.138 568.192 221.77C568.928 219.928 569.112 217.718 568.744 215.693Z" fill="#181723"/>
<path d="M574.084 211.825C572.795 211.825 571.506 211.825 570.402 211.825C570.033 211.825 569.665 212.194 569.665 212.562C569.665 212.93 570.033 213.299 570.402 213.299C571.691 213.299 572.979 213.299 574.084 213.299C574.452 213.299 574.821 212.93 574.821 212.562C574.821 212.01 574.637 211.825 574.084 211.825Z" fill="#181723"/>
<path d="M573.9 198.566C572.243 198.75 570.586 199.487 569.297 200.592C568.929 200.776 568.929 201.328 569.297 201.696C569.665 202.065 570.033 201.881 570.402 201.696L570.586 201.512L570.77 201.328C570.954 201.144 571.138 201.144 571.138 200.96C571.506 200.776 571.69 200.592 572.059 200.407C572.059 200.407 572.243 200.407 572.243 200.223C572.427 200.223 572.611 200.039 572.795 200.039C572.979 200.039 573.163 200.039 573.348 199.855H573.532H573.716C574.084 199.855 574.452 199.487 574.452 199.118C574.452 198.934 574.268 198.382 573.9 198.566Z" fill="#181723"/>
<path d="M560.09 298.749C560.09 298.749 564.878 290.093 563.221 270.388L559.354 271.309L556.592 271.861L560.09 298.749Z" fill="#181723"/>
<path d="M575.557 657.861C609.436 658.045 604.649 681.617 604.649 681.617H514.795V652.888H562.3L575.557 657.861Z" fill="#181723"/>
<path d="M565.43 364.862C565.43 364.862 565.43 366.704 565.246 369.834L540.757 375.359L504.668 479.778L450.351 636.498C450.351 636.498 458.268 646.627 450.351 647.364C450.351 647.364 453.481 655.282 447.589 654.914C447.036 654.914 446.484 654.73 445.932 654.546L401.189 642.76C401.189 642.76 397.506 635.577 405.24 636.314C405.24 636.314 398.979 627.658 408.001 627.106L463.608 366.704C473.367 370.755 501.17 369.65 512.217 369.65C526.395 369.65 555.671 367.624 565.43 364.862Z" fill="#4E3E75"/>
<path d="M540.757 375.359L565.246 369.835C564.141 398.564 558.802 543.682 553.278 636.498C561.195 637.051 557.329 645.154 557.329 645.154C564.326 646.259 562.116 653.073 562.116 653.073H514.611C509.087 649.021 514.611 643.312 514.611 643.312C510.008 639.997 514.611 636.498 514.611 636.498L504.484 479.778L540.757 375.359Z" fill="#4E3E75"/>
<path d="M456.611 672.225C485.335 671.673 482.757 695.245 482.757 695.245H441.881L393.64 669.463L401.005 642.944L445.748 654.73C446.484 654.914 447.036 654.914 447.405 655.098L456.611 672.225Z" fill="#181723"/>
<path d="M475.024 372.965C466.554 407.403 458.084 442.025 449.43 476.463C440.96 510.901 432.491 545.523 423.837 579.961C419.049 599.482 414.262 619.003 409.475 638.524C408.738 641.286 412.973 642.391 413.71 639.629C422.18 605.191 430.649 570.569 439.303 536.131C447.773 501.693 456.243 467.071 464.897 432.633C469.684 413.112 474.472 393.591 479.259 374.07C479.811 371.492 475.576 370.387 475.024 372.965Z" fill="#3A1D7C"/>
<path d="M540.205 107.591C536.522 108.143 532.84 109.248 529.341 110.537C523.633 112.747 518.294 115.878 512.77 118.824C510.56 119.929 508.351 121.218 505.773 121.034C503.748 120.85 501.906 119.929 500.249 118.824C500.065 118.64 499.881 118.64 499.697 118.456C497.856 117.351 496.014 116.062 494.909 114.22C495.278 114.036 495.462 113.668 495.83 113.484C503.748 108.143 511.849 103.171 520.871 100.593C526.395 99.1193 532.103 98.3826 537.811 98.751C541.494 98.9351 545.36 99.4876 548.859 100.408C551.068 100.961 553.646 101.882 554.751 103.907C555.671 105.565 555.487 107.406 554.935 109.064C554.383 110.721 553.094 112.195 551.989 113.484C549.595 116.43 546.833 119.193 543.519 121.218C543.519 120.666 543.335 119.929 543.151 119.377C546.097 117.351 549.227 115.141 550.7 111.826C551.068 111.274 551.252 110.537 551.252 109.801C551.068 108.143 548.859 107.406 547.202 107.222C544.992 107.222 542.598 107.222 540.205 107.591Z" fill="#FFD110"/>
<path d="M551.437 109.985C551.437 110.721 551.252 111.274 550.884 112.01C549.227 115.325 546.281 117.535 543.335 119.561C542.23 112.747 540.573 108.695 540.205 107.775C542.598 107.406 544.992 107.406 547.386 107.591C549.043 107.591 551.068 108.143 551.437 109.985Z" fill="#181723"/>
<path d="M544.624 140.187C544.44 145.896 543.887 152.342 542.599 159.34C540.021 173.336 531.367 176.282 522.16 174.993C509.824 173.336 496.567 164.128 496.567 164.128C496.567 164.128 504.116 180.887 520.503 188.437L519.583 195.988C519.583 195.988 539.1 214.404 522.529 218.087C505.957 221.77 477.417 188.253 477.417 188.253L478.706 183.465L485.151 158.787L487.36 150.316H487.176C486.992 150.684 479.443 147.185 476.865 144.607C474.287 142.029 472.446 138.53 472.814 135.031C472.814 134.662 472.998 134.11 472.998 133.742C473.367 131.9 474.471 130.242 475.76 129.138C476.865 128.217 478.338 127.48 479.811 127.112C481.284 126.743 482.941 126.743 484.414 127.112C487.36 127.664 489.754 129.506 491.411 132.084L491.595 131.9C495.646 128.585 498.592 123.981 500.249 119.009C501.906 120.114 503.748 121.219 505.773 121.219C508.167 121.403 510.56 120.114 512.77 119.009C518.11 116.062 523.633 112.931 529.341 110.722C532.84 109.248 536.522 108.327 540.205 107.775C540.573 108.696 542.046 112.747 543.335 119.561C543.519 120.114 543.519 120.666 543.703 121.403C544.44 126.375 544.992 132.637 544.624 140.187Z" fill="#FFAEC3"/>
<path d="M495.83 113.484C495.462 113.852 494.91 114.036 494.541 114.405C492.332 111.09 491.595 107.038 491.411 103.171C491.227 98.0143 492.148 92.6737 494.541 88.0697C496.751 83.834 500.434 80.3349 504.853 78.8617C505.405 78.6775 505.957 78.6775 506.694 78.4933C510.929 77.7567 515.348 77.5725 519.214 79.23C522.529 80.7033 525.107 83.2815 527.684 86.0439C531.367 90.0954 534.681 94.1469 537.995 98.5668V98.9351C532.287 98.5668 526.58 99.1193 521.056 100.777C511.849 103.171 503.748 108.143 495.83 113.484Z" fill="#FFD110"/>
<path d="M522.16 175.177L520.687 188.621C504.3 181.07 496.751 164.312 496.751 164.312C496.751 164.312 509.824 173.336 522.16 175.177Z" fill="#181723"/>
<path d="M494.542 114.404C489.754 118.272 484.046 123.06 479.811 126.743C478.338 127.111 476.865 127.848 475.761 128.769C474.472 130.058 473.367 131.715 472.999 133.373C470.973 135.03 469.132 136.688 467.291 138.345C466.922 138.529 466.738 138.898 466.37 139.266C463.24 129.321 460.11 118.824 462.135 108.511C462.503 106.117 463.24 103.723 464.529 101.513C466.002 98.9349 468.211 96.725 470.421 94.8834C480.18 86.5962 492.148 80.8872 504.853 78.4932C500.434 80.1506 496.751 83.6496 494.542 87.7012C492.148 92.3052 491.227 97.6458 491.411 102.802C491.411 107.038 492.148 111.089 494.542 114.404Z" fill="#FFA912"/>
<path d="M494.542 114.589C494.726 114.405 494.726 114.405 494.91 114.221C496.014 116.062 497.856 117.351 499.697 118.456C499.881 118.64 500.065 118.64 500.249 118.825C498.592 123.797 495.646 128.217 491.595 131.716L491.411 131.9C489.754 129.506 487.176 127.664 484.415 126.928C482.941 126.559 481.284 126.559 479.811 126.928C484.046 123.06 489.754 118.272 494.542 114.589Z" fill="#181723"/>
<path d="M478.338 154.551C473.182 150.316 469.316 144.791 467.29 138.714C469.132 137.056 470.973 135.399 472.998 133.741C472.814 134.11 472.814 134.662 472.814 135.03C472.446 138.529 474.287 142.213 476.865 144.607C479.443 147.185 482.205 148.106 485.519 149.763C485.887 149.947 487.176 150.316 487.176 150.316H487.36L485.151 158.787L484.598 158.603C482.389 157.498 480.179 156.025 478.338 154.551Z" fill="#181723"/>
<path d="M485.151 158.787L478.706 183.465C478.706 183.465 438.014 202.065 436.725 216.245C435.989 224.348 440.04 239.449 443.538 250.683C439.303 252.525 434.332 253.077 429.729 251.788C425.125 250.499 420.891 246.816 419.602 242.212C418.681 238.897 419.049 235.398 417.944 232.267C416.656 228.768 413.71 226.006 412.789 222.507C411.868 218.639 413.525 214.588 416.287 211.641C418.865 208.695 422.364 206.485 425.494 204.275C428.624 202.065 431.754 199.118 433.227 195.619C435.621 189.91 433.779 183.096 435.805 177.203C437.278 173.52 440.224 170.574 443.722 168.732C447.221 166.89 451.271 166.154 455.138 165.97C461.03 165.785 467.291 166.89 472.262 163.944C475.576 162.102 477.786 158.419 478.154 154.736C479.995 156.393 482.205 157.682 484.414 158.787H485.151Z" fill="#181723"/>
<path d="M488.097 141.292C487.728 138.898 486.808 136.504 485.519 134.478C484.23 132.636 482.021 130.242 479.627 130.427C478.338 130.611 477.417 131.531 477.049 132.636C476.497 134.11 476.865 135.767 477.233 137.24C477.417 138.161 478.89 137.793 478.706 136.872C478.338 135.767 477.97 134.294 478.522 133.189C479.075 132.084 479.995 131.9 481.1 132.452C483.125 133.373 484.598 135.583 485.519 137.425C486.071 138.345 486.44 139.45 486.624 140.555C486.808 141.66 487.176 143.134 486.44 143.87C485.519 144.791 484.23 143.686 483.862 142.949C483.309 142.029 483.125 140.924 483.494 140.003C483.678 139.082 482.389 138.714 482.021 139.635C481.468 141.844 482.389 144.423 484.414 145.343C485.519 145.896 486.808 145.712 487.544 144.791C488.281 143.686 488.281 142.397 488.097 141.292Z" fill="#EF89A9"/>
<path d="M338.034 686.221C338.034 686.221 344.11 702.428 317.596 702.428C290.897 702.428 294.028 691.378 294.028 691.378L298.815 660.071H330.301L338.034 686.221Z" fill="#181723"/>
<path d="M333.246 635.946C333.246 635.946 341.9 647.364 335.64 648.284C335.64 648.284 342.085 657.677 333.615 660.071H330.116H298.631H294.58C294.58 660.071 291.081 654.914 297.526 652.888C297.526 652.888 291.634 649.205 296.237 645.706C296.237 645.706 282.243 541.472 265.856 472.412C260.885 451.233 255.545 433.185 250.573 422.688L201.596 407.587C200.123 392.118 199.386 382.541 199.386 382.541C206.751 386.961 224.059 394.696 254.808 394.696C298.446 394.696 320.726 391.565 324.777 386.225L333.246 635.946Z" fill="#673BB7"/>
<path d="M266.225 472.043C268.434 499.299 254.256 644.049 254.256 644.049C256.282 650.678 251.679 652.336 251.679 652.336C253.52 657.861 250.39 658.413 250.39 658.413L214.117 649.021C210.802 643.496 215.958 640.55 215.958 640.55C211.539 633.552 220.745 630.237 220.745 630.237C220.929 615.872 207.488 467.439 201.964 407.403L250.942 422.504C256.098 433.001 261.253 450.865 266.225 472.043Z" fill="#3A1D7C"/>
<path d="M250.39 658.413V686.774L193.863 693.956H163.113C162.193 673.699 186.129 673.33 186.129 673.33L214.117 649.021L250.39 658.413Z" fill="#181723"/>
<path d="M326.25 545.707C324.408 513.111 322.751 480.33 320.91 447.734C319.989 429.318 318.885 411.086 317.964 392.67C317.78 389.908 313.545 389.908 313.545 392.67C315.386 425.267 317.043 458.047 318.885 490.643C320.726 523.24 322.383 556.02 324.224 588.617C325.145 607.033 326.25 625.264 327.17 643.68C327.354 646.443 331.589 646.443 331.589 643.68C329.748 611.084 328.091 578.488 326.25 545.707Z" fill="#3A1D7C"/>
<path d="M290.345 156.761C290.345 156.761 300.656 148.474 316.86 152.341C333.063 156.024 373.202 179.044 378.358 196.908C383.514 214.771 359.761 337.054 342.269 341.842C324.777 346.446 263.831 319.927 248.917 303.537C234.002 287.146 290.345 156.761 290.345 156.761Z" fill="#9579D3"/>
<path d="M380.936 178.492C380.199 187.332 375.78 196.724 366.942 201.88C362.523 204.459 357.367 205.748 352.028 205.563C346.32 205.379 340.796 203.538 335.64 201.696C324.409 197.645 313.361 193.409 302.497 188.805C296.974 186.411 291.634 184.201 286.294 181.623C283.717 180.518 281.139 179.229 278.561 178.124C276.167 177.019 273.774 175.914 271.748 174.44C267.698 171.678 265.304 167.811 264.936 163.391C264.567 158.971 266.04 154.551 268.618 150.684C271.196 146.632 274.878 143.317 278.745 140.187C282.796 137.056 287.583 134.478 293.107 135.214C294.58 135.398 295.869 135.767 297.158 136.135C298.447 136.319 299.736 136.688 301.209 136.872C312.809 139.082 324.224 142.028 335.64 145.159C341.348 146.816 346.872 148.658 352.396 150.5C357.736 152.341 363.075 153.999 368.047 156.393C372.466 158.418 376.517 161.181 378.726 165.232C380.751 169.468 381.304 174.072 380.936 178.492Z" fill="#AFD37F"/>
<path d="M372.65 272.966C371.913 272.966 371.361 272.966 370.624 273.15C356.999 274.255 343.558 275.728 329.932 277.386L329.748 277.57L319.99 273.334L318.701 323.426L322.199 370.755C326.618 372.781 324.224 378.858 324.224 378.858C329.196 382.173 324.961 385.856 324.961 385.856C320.91 391.197 298.447 394.327 254.993 394.327C224.059 394.327 206.936 386.593 199.57 382.173C196.44 380.331 195.151 379.042 195.151 379.042C188.707 374.991 194.415 369.098 194.415 369.098C187.602 367.993 193.126 360.626 193.126 360.626C191.285 332.634 196.993 235.213 198.466 210.167L163.85 186.595C170.478 172.046 174.713 159.708 180.79 145.343C194.967 148.29 209.145 151.42 223.323 154.367C222.955 152.341 222.77 149.947 224.428 148.658C225.164 148.105 226.085 147.921 227.005 147.921C230.872 147.921 234.37 150.315 237.316 152.894C238.053 150.868 239.71 149.026 241.92 148.105C243.209 148.842 244.497 149.21 245.97 149.763C248.364 150.5 251.126 150.868 253.704 151.052L252.047 164.127L251.494 168.916C251.494 168.916 250.758 173.704 252.047 178.676V179.044C252.047 179.044 253.151 185.674 261.621 189.541H261.805C262.726 189.726 263.647 189.91 264.567 190.094C280.034 192.12 299.183 164.496 299.183 164.496C298.631 162.47 298.263 160.444 297.71 158.418C311.336 165.417 324.961 172.783 338.218 180.333C346.504 185.122 354.974 190.094 361.97 196.54C362.891 197.46 363.996 198.565 363.628 199.854C363.259 201.88 360.682 202.249 358.84 202.249C361.418 203.906 363.443 206.116 365.101 208.694C365.837 209.799 366.39 211.088 365.469 212.009C365.101 212.377 364.548 212.561 363.996 212.746C363.443 212.93 362.707 213.114 362.155 213.298C364.364 221.401 365.653 229.688 366.942 237.976C368.967 249.578 370.809 261.364 372.65 272.966Z" fill="#00928D"/>
<path d="M372.65 272.966C374.859 272.782 377.069 272.782 379.279 272.966C379.647 272.966 380.199 273.15 380.383 273.334C380.752 273.703 380.567 274.439 380.383 274.992C379.647 276.833 378.542 278.491 377.253 279.964C379.094 279.964 380.936 280.701 382.225 282.174C382.593 282.727 382.961 283.279 383.145 283.832C383.329 285.121 382.04 286.226 380.752 286.594C379.463 286.962 378.174 286.962 376.885 287.331C378.358 288.804 379.831 290.461 380.752 292.303C381.12 292.855 381.488 293.776 381.304 294.329C380.936 295.434 379.094 295.434 377.99 295.249C374.491 294.513 370.993 293.592 367.494 292.671C364.364 291.75 361.234 290.83 358.104 289.725L329.933 277.386L330.117 277.202C343.558 275.544 357.183 274.071 370.809 272.966C371.361 273.15 372.098 273.15 372.65 272.966Z" fill="#007975"/>
<path d="M309.31 268.546L320.358 273.334L330.117 277.57L358.288 289.909C361.418 291.014 364.548 291.935 367.678 292.855C367.31 298.933 365.101 329.872 353.501 332.081C346.872 333.371 332.694 321.4 320.542 309.614C309.126 298.38 299.367 287.331 299.367 287.331C299.367 287.331 282.98 285.673 278.929 274.071C278.929 274.071 272.485 271.309 268.986 271.493C267.513 271.493 265.488 271.309 263.831 270.572C261.621 269.835 259.78 268.546 259.964 267.073C259.964 265.784 261.437 265.231 263.278 264.863C260.148 265.231 252.783 263.758 254.44 261.548C254.993 260.627 256.466 259.891 258.307 259.338V258.97C258.307 258.97 254.072 258.97 254.624 256.023C254.809 255.287 256.282 253.998 258.859 252.893C261.069 251.972 263.831 251.235 267.145 250.683L266.593 246.631C271.012 246.079 276.72 245.71 281.875 246.079C284.085 246.263 286.11 246.447 287.951 247C297.894 249.394 307.101 267.441 307.101 267.441L309.31 268.546Z" fill="#FFAEC3"/>
<path d="M320.358 244.237V273.334L309.31 268.546L320.358 244.237Z" fill="#181723"/>
<path d="M266.225 246.631L266.777 250.683C263.463 251.051 260.701 251.972 258.491 252.893C256.65 251.603 257.571 249.025 258.675 248.104C259.044 247.736 262.174 246.999 266.225 246.631Z" fill="#FFAEC3"/>
<path d="M180.79 145.343C174.714 159.708 170.479 172.047 163.85 186.595H162.745L153.539 183.464C153.907 180.886 154.091 178.492 154.46 176.098C156.301 162.654 158.326 151.236 160.72 137.424C160.904 136.688 160.904 135.951 161.088 135.03C161.272 134.11 161.457 133.189 162.377 133.005C163.114 132.82 164.034 133.557 164.403 134.11C166.06 136.319 167.349 138.714 168.269 141.108C169.19 139.45 170.11 137.977 171.031 136.319C171.215 135.951 171.399 135.767 171.768 135.583C172.32 135.399 172.872 135.951 173.057 136.504C174.345 138.898 174.898 141.844 174.53 144.607C176.003 142.949 177.844 141.292 180.053 140.187C180.422 140.003 180.79 139.819 181.158 139.819C182.079 140.003 182.079 141.476 181.526 142.397C181.526 143.686 181.158 144.423 180.79 145.343Z" fill="#007975"/>
<path d="M18.0214 83.2813C-1.3119 76.6516 -1.12778 71.8634 0.897619 70.7585C3.10714 69.4693 27.596 75.5466 33.304 77.7565C39.0119 79.9665 59.8183 98.935 59.8183 98.935L160.72 137.424C158.326 151.236 156.301 162.654 154.46 176.098L143.964 170.389L54.2944 115.509C33.4881 115.509 27.2278 102.25 27.2278 102.25C27.2278 102.25 10.4722 103.171 13.4183 98.7508C13.9706 98.1983 14.7071 97.6458 15.6278 97.2775C17.6532 96.1726 20.5992 95.4359 23.3611 94.8834C28.3325 93.9626 33.304 93.5943 33.304 93.5943C29.4373 90.0953 27.0436 86.9646 26.4913 86.2279C26.3071 86.0437 26.3071 86.0437 26.3071 86.0437C23.177 84.9388 20.4151 84.018 18.0214 83.2813Z" fill="#FFAEC3"/>
<path d="M26.4912 86.0438C27.0436 86.7804 29.4373 89.9111 33.3039 93.4102C33.3039 93.4102 28.3325 93.7785 23.3611 94.6993C22.9928 93.7785 22.8087 92.6735 22.9928 91.5686C23.177 91.0161 23.3611 90.4636 23.7293 89.9111C24.65 88.622 25.5706 87.1487 26.4912 86.0438Z" fill="#FFAEC3"/>
<path d="M26.3071 85.8596C26.3071 85.8596 26.3071 85.8596 26.4912 86.0437C25.3864 87.3328 24.4658 88.622 23.7293 89.9111C23.361 90.4636 23.1769 91.016 22.9928 91.5685C22.8086 92.6735 22.9928 93.5943 23.361 94.6993C20.415 95.2517 17.6531 95.9884 15.6277 97.0933C14.8912 95.8042 13.9706 94.5151 13.6023 93.0418C13.234 91.5685 13.0499 89.9111 13.7864 88.4378C14.1547 87.3329 14.8912 86.5962 15.6277 85.6754C16.3642 84.7546 17.1007 84.018 17.8372 83.0972C20.415 84.018 23.1769 84.9388 26.3071 85.8596Z" fill="#FFAEC3"/>
<path d="M237.317 171.31C236.58 170.205 235.476 170.021 234.371 170.573C231.056 172.047 227.926 173.52 224.612 174.993C223.507 175.546 223.323 177.019 223.876 177.94C224.612 179.045 225.717 179.229 226.822 178.676C230.136 177.203 233.266 175.73 236.58 174.257C237.501 173.888 237.869 172.231 237.317 171.31Z" fill="#5AA537"/>
<path d="M337.297 189.726C336.377 189.173 334.904 189.358 334.351 190.463C332.694 193.777 330.853 197.277 329.196 200.591C328.644 201.696 328.828 202.985 329.932 203.538C330.853 204.09 332.326 203.906 332.878 202.801C334.536 199.486 336.377 195.987 338.034 192.673C338.586 191.752 338.402 190.463 337.297 189.726Z" fill="#5AA537"/>
<path d="M30.7263 91.3845C27.7802 88.6221 24.8342 85.8597 22.0723 83.0973C21.3358 82.5448 20.4151 83.4656 20.9675 84.2023C23.7294 86.7805 26.3072 89.3587 29.0691 91.7528C24.6501 92.8578 20.4151 94.1469 15.9961 95.2519C15.0755 95.436 15.4437 96.9093 16.3643 96.7251C20.9675 95.436 25.7548 94.1469 30.358 92.8578C30.7263 92.6736 30.9104 92.4895 30.9104 92.1211C31.0945 91.937 31.0945 91.5687 30.7263 91.3845Z" fill="#181723"/>
<path d="M281.691 250.315C273.958 249.578 266.224 249.946 258.675 251.42C257.755 251.604 258.123 253.077 259.044 252.893C266.593 251.604 274.142 251.235 281.691 251.788C282.612 251.972 282.612 250.499 281.691 250.315Z" fill="#181723"/>
<path d="M279.114 255.839C272.117 255.839 265.12 256.392 258.307 257.865C257.387 258.049 257.755 259.522 258.676 259.338C265.488 258.049 272.301 257.312 279.114 257.312C280.218 257.312 280.218 255.839 279.114 255.839Z" fill="#181723"/>
<path d="M278.561 263.39C273.406 263.574 268.25 263.758 263.095 263.942C262.174 263.942 262.174 265.416 263.095 265.416C268.25 265.231 273.406 265.047 278.561 264.863C279.482 264.679 279.482 263.39 278.561 263.39Z" fill="#181723"/>
<path d="M306.732 267.441C306.732 267.441 311.52 208.326 324.961 173.336C326.618 169.1 331.59 167.443 335.456 169.837L347.056 177.203C349.818 178.86 351.107 182.36 350.002 185.49L320.542 273.519L306.732 267.441Z" fill="#673BB7"/>
<path d="M304.339 293.224C304.339 293.224 304.891 324.899 322.199 330.792L321.647 323.61C321.647 323.61 312.072 317.717 315.018 304.273L304.339 293.224Z" fill="#181723"/>
<path d="M333.983 336.686C328.091 332.266 324.777 324.531 325.882 316.981C326.066 315.876 324.409 315.507 324.225 316.612C323.12 324.715 326.618 333.187 333.247 338.159C333.983 338.896 334.72 337.422 333.983 336.686Z" fill="#673BB7"/>
<path d="M252.599 158.971C252.599 158.971 214.117 182.728 210.066 251.051H200.859C200.859 251.051 192.021 186.595 242.104 148.29L253.704 151.052L252.599 158.971Z" fill="#673BB7"/>
<path d="M202.701 187.884L233.082 280.148H196.257H187.418L162.745 186.595H163.85L202.701 187.884Z" fill="#FFF6EE"/>
<path d="M261.438 189.541L281.507 245.894V246.078C276.352 245.71 270.644 246.078 266.225 246.631C262.174 247.183 259.228 247.736 258.676 248.104C257.571 249.025 256.65 251.603 258.492 252.892C255.914 253.997 254.441 255.286 254.257 256.023C253.888 258.97 257.939 258.97 257.939 258.97V259.338C256.098 259.89 254.809 260.627 254.072 261.548C252.415 263.758 259.78 265.231 262.911 264.863C261.069 265.231 259.596 265.784 259.596 267.073C259.596 268.546 261.253 269.835 263.463 270.572L232.898 279.964L202.517 187.884L251.679 179.044L257.203 178.123L261.438 189.541Z" fill="#FFE4C0"/>
<path d="M162.745 186.595L187.418 280.148L169.374 269.283L123.895 172.967L153.539 183.28L162.745 186.595Z" fill="#FFE4C0"/>
<path d="M378.726 172.967C378.174 170.389 376.149 168.547 373.387 168.363C370.441 168.179 368.047 170.021 366.206 172.046C361.787 176.834 358.841 183.096 357.92 189.542C357.736 190.647 359.393 191.015 359.577 189.91C360.314 185.122 361.971 180.702 364.549 176.65C365.837 174.625 367.495 172.599 369.336 171.31C371.177 170.021 374.123 169.1 375.964 171.126C377.806 173.151 377.253 176.098 376.517 178.308C375.964 180.702 375.044 182.912 373.939 185.122C372.834 187.332 371.545 189.357 369.888 191.383C368.968 192.488 366.206 196.171 364.917 193.593C363.996 191.567 365.101 188.621 366.022 186.779C367.126 184.385 368.968 182.543 371.177 181.07C372.098 180.518 371.177 179.044 370.256 179.597C368.047 181.07 366.206 182.912 364.917 185.306C363.812 187.516 362.891 190.278 363.075 192.672C363.444 194.882 365.285 196.908 367.495 195.803C368.783 195.251 369.704 194.146 370.625 193.041C371.545 191.936 372.282 190.831 373.202 189.726C374.86 187.332 376.148 184.569 377.253 181.807C378.174 179.044 379.279 175.914 378.726 172.967Z" fill="#5AA537"/>
<path d="M333.615 148.29C323.856 145.712 314.282 143.133 304.523 140.555C303.418 140.371 303.05 141.844 304.155 142.213C313.913 144.791 323.488 147.369 333.247 149.947C334.167 150.131 334.536 148.474 333.615 148.29Z" fill="#5AA537"/>
<path d="M343.558 151.052C341.164 150.316 338.771 149.579 336.193 148.842C335.088 148.474 334.72 150.132 335.825 150.5C338.218 151.237 340.612 151.973 343.19 152.71C344.11 153.078 344.479 151.421 343.558 151.052Z" fill="#5AA537"/>
<path d="M337.482 153.262C334.351 152.341 331.405 151.421 328.275 150.684C327.171 150.316 326.802 151.973 327.907 152.341C331.037 153.262 333.983 154.183 337.113 154.92C338.034 155.104 338.402 153.446 337.482 153.262Z" fill="#5AA537"/>
<path d="M311.151 75.3625C313.545 74.9941 316.123 74.9941 318.148 76.2833C320.542 77.7565 321.831 80.5189 322.015 83.4655C322.199 86.2279 321.278 89.1745 320.358 91.7527C317.044 100.592 312.072 108.511 307.285 116.798L303.234 115.325C303.602 114.589 303.971 114.036 304.155 113.299C305.259 110.537 305.444 107.222 304.523 104.46C303.418 101.697 301.024 99.3033 298.078 98.7508C294.948 98.1983 291.634 99.8557 289.424 102.434C287.583 104.644 286.478 107.222 285.926 109.985L285.558 109.8C284.269 103.171 283.348 96.3567 282.796 89.7269C272.853 88.4378 262.91 85.8596 253.704 81.8081C249.653 79.9665 245.602 77.9407 241.92 75.1783C241.92 75.1783 241.736 75.1783 241.736 74.9941C238.237 72.2317 235.107 68.5485 233.634 64.1287C233.45 63.3921 233.082 62.4713 233.266 61.5504C233.634 59.7088 235.475 58.6039 237.317 57.8672C243.761 55.4732 250.758 54.9207 257.755 54.3682C267.145 53.8157 276.72 53.2632 285.926 55.1048C290.345 56.0256 294.764 57.3148 298.631 59.7088C304.339 63.2079 308.942 68.5485 311.151 74.81V75.3625Z" fill="#181723"/>
<path d="M307.101 116.614C301.761 125.638 296.79 134.662 294.58 144.791C293.292 138.713 292.003 132.636 290.898 126.559C294.212 125.638 296.974 123.244 299.184 120.666C300.657 119.008 302.13 117.167 303.234 115.141L307.101 116.614Z" fill="#181723"/>
<path d="M304.155 113.115C303.971 113.852 303.602 114.588 303.234 115.141C302.129 117.167 300.656 119.008 299.183 120.666C296.79 123.244 294.028 125.454 290.898 126.559C292.002 132.636 293.291 138.713 294.58 144.791C295.501 149.395 296.606 153.999 297.71 158.418C298.263 160.444 298.631 162.47 299.183 164.496C299.183 164.496 280.034 192.12 264.383 190.094C263.463 189.91 262.542 189.726 261.622 189.542H261.437L257.387 178.124L251.863 179.044V178.676C250.574 173.704 251.31 168.916 251.31 168.916L251.863 164.127C271.749 154.551 280.034 140.923 280.587 140.002C276.352 143.87 271.196 147.185 265.856 149.026C261.99 150.315 257.755 151.052 253.704 150.868C251.126 150.868 248.549 150.315 245.971 149.579C244.498 149.21 243.209 148.658 241.92 147.921C240.999 147.369 240.079 146.816 239.342 146.264C234.371 142.212 232.345 135.583 231.609 129.137C229.215 110.537 234.371 91.9367 241.92 74.6257C245.418 77.3881 249.469 79.4138 253.704 81.2554C262.91 85.307 272.853 87.8852 282.796 89.1743C283.349 95.9882 284.269 102.618 285.558 109.248L285.926 109.432C286.663 106.67 287.768 103.907 289.425 101.881C291.634 99.4873 294.764 97.6457 298.079 98.1982C301.025 98.7506 303.602 101.145 304.523 103.907C305.444 107.038 305.26 110.353 304.155 113.115Z" fill="#FFAEC3"/>
<path d="M265.672 149.211C271.196 147.369 276.167 144.054 280.402 140.187C279.85 141.108 271.564 154.551 251.679 164.312L253.336 151.236C257.571 151.236 261.806 150.5 265.672 149.211Z" fill="#181723"/>
<path d="M297.158 103.539C295.869 104.091 294.949 105.012 294.212 106.117C293.291 107.222 292.555 108.511 292.003 109.984C291.45 111.273 291.082 112.747 290.898 114.22C290.714 115.509 290.53 116.982 291.082 118.272C291.45 119.376 292.555 120.113 293.844 120.297C295.317 120.297 296.422 119.561 297.342 118.64C298.263 117.719 299.552 116.246 299.184 114.772C298.815 113.483 297.158 112.931 296.237 113.852C295.501 114.404 296.606 115.509 297.342 114.957C297.895 114.404 297.895 115.693 297.895 116.062C297.711 116.614 297.158 117.167 296.79 117.535C296.053 118.272 295.133 119.192 294.028 119.192C291.634 119.008 292.555 114.957 292.923 113.483C293.476 111.273 294.58 109.064 296.053 107.222C296.79 106.485 297.711 105.196 298.815 105.38C299.736 105.38 300.288 106.485 299.92 107.222C299.552 108.143 300.841 108.879 301.209 107.959C301.577 105.196 299.552 102.618 297.158 103.539Z" fill="#EF89A9"/>
<path d="M386.644 463.019H386.46C385.171 462.835 383.882 462.651 382.593 462.835C382.409 462.835 382.409 462.835 382.225 462.835C382.225 462.467 382.225 462.099 382.225 461.73C382.225 459.336 381.672 457.126 380.752 455.101C381.856 454.732 382.961 454.548 384.066 454.548C385.171 454.548 386.091 454.548 387.196 454.732C386.644 456.39 386.276 458.231 386.276 460.073C386.276 461.178 386.46 462.099 386.644 463.019Z" fill="#181723"/>
<path d="M410.58 459.521C411.869 457.127 412.606 454.364 412.422 451.602C414.447 453.812 415.736 456.943 415.736 460.073C415.736 467.071 410.028 472.78 403.031 472.78C402.663 471.123 403.583 469.65 404.688 468.176C406.529 465.414 408.923 462.651 410.58 459.521Z" fill="#2196F3"/>
<path d="M405.424 447.734C405.609 450.497 404.136 453.075 402.294 455.285C400.637 457.311 398.796 458.968 396.771 460.441C394.745 461.915 392.536 463.204 391.431 465.229C390.694 463.572 390.326 461.915 390.326 460.073C390.326 453.075 396.034 447.366 403.031 447.366C403.767 447.55 404.688 447.55 405.424 447.734Z" fill="#2196F3"/>
<path d="M373.202 461.178C374.491 458.784 375.228 456.022 375.043 453.259C377.069 455.469 378.358 458.6 378.358 461.731C378.358 468.729 372.65 474.438 365.653 474.438C365.285 472.78 366.205 471.307 367.31 469.834C369.151 467.071 371.545 464.309 373.202 461.178Z" fill="#2196F3"/>
<path d="M368.047 449.392C368.231 452.154 366.758 454.916 364.917 456.942C363.26 458.968 361.418 460.625 359.393 462.099C357.368 463.572 355.158 464.861 354.053 466.887C353.317 465.229 352.948 463.572 352.948 461.73C352.948 454.732 358.656 449.023 365.653 449.023C366.39 449.023 367.31 449.207 368.047 449.392Z" fill="#2196F3"/>
<path d="M468.948 548.838C468.396 551.232 467.475 553.442 466.002 555.284C465.634 555.652 465.266 556.021 464.898 556.389C463.609 557.494 462.136 558.23 460.479 558.783C454.771 560.625 448.142 559.335 443.539 555.468C438.752 551.232 436.542 544.787 434.885 538.525C434.148 535.947 433.412 533.553 432.86 530.975C431.387 525.818 430.098 520.662 428.993 515.505C426.047 502.982 423.285 490.275 421.26 477.384H421.075C419.234 478.673 416.841 478.857 414.631 478.857C413.894 478.857 413.158 478.857 412.421 478.857C410.948 478.857 409.475 478.673 408.187 478.489C406.714 478.121 405.241 477.568 403.952 476.648C412.79 476.463 419.971 469.097 419.971 460.073C419.971 450.865 412.606 443.499 403.399 443.499C400.637 443.499 398.06 444.235 395.85 445.34L395.666 444.972C395.482 444.42 395.482 443.867 395.666 443.315C396.034 441.841 397.323 440.368 398.612 439.631C400.637 438.711 402.847 438.526 405.056 438.526C408.739 438.526 412.421 438.526 415.736 439.631C416.841 440 417.945 440.552 419.05 441.289C421.812 443.315 423.653 446.445 425.31 449.392C435.069 466.519 444.828 483.83 454.587 500.957C457.717 506.481 460.847 512.19 463.977 517.899C466.187 522.319 468.396 526.739 469.501 531.527C470.421 537.236 470.421 543.129 468.948 548.838Z" fill="#FFAEC3"/>
<path d="M403.031 424.714C404.504 424.346 405.793 424.162 407.266 424.53C408.923 424.898 410.212 426.003 411.133 427.293C413.894 430.607 415.552 435.027 415.552 439.447L415.367 439.815C412.053 438.71 408.187 438.71 404.688 438.71C402.479 438.71 400.269 438.71 398.244 439.815C396.771 440.552 395.482 441.841 395.298 443.499C392.167 445.524 388.669 446.998 384.987 447.734C384.066 447.919 382.961 448.103 382.041 447.734C381.672 447.55 381.488 447.366 381.304 446.998C381.304 446.814 381.304 446.629 381.488 446.445C381.856 445.156 382.593 444.051 383.698 443.13C380.199 445.156 376.333 446.261 372.282 446.629C371.177 446.077 370.072 445.709 368.783 445.524C368.415 444.419 366.39 439.447 355.894 441.105C354.053 441.473 352.396 441.841 351.107 442.21V442.025C350.002 441.289 349.082 440.368 348.529 439.263C347.977 438.158 347.793 436.685 348.345 435.58C348.714 434.843 349.266 434.291 350.002 433.922C353.133 431.712 356.999 430.607 360.129 428.398C362.523 426.924 364.364 424.899 366.758 423.241C372.098 419.19 378.726 417.164 385.355 417.348C391.615 417.348 398.06 420.11 403.031 424.714Z" fill="#181723"/>
<path d="M412.237 451.602C410.396 449.76 408.187 448.287 405.425 447.734C404.688 447.55 403.768 447.55 402.847 447.55C395.85 447.55 390.142 453.259 390.142 460.257C390.142 462.099 390.51 463.94 391.247 465.414C393.272 469.833 397.691 472.78 402.663 472.964C409.66 472.964 415.368 467.255 415.368 460.257C415.552 456.758 414.263 453.811 412.237 451.602ZM387.196 454.732C388.669 450.681 391.615 447.182 395.298 445.34C397.507 444.235 400.085 443.498 402.847 443.498C412.053 443.498 419.418 450.865 419.418 460.073C419.418 469.097 412.237 476.463 403.399 476.647C403.215 476.647 403.031 476.647 402.847 476.647C396.955 476.647 391.799 473.517 388.853 468.913C387.749 467.071 386.828 465.045 386.46 462.835C386.275 461.914 386.276 460.994 386.276 459.889C386.276 458.231 386.644 456.39 387.196 454.732Z" fill="#181723"/>
<path d="M412.237 451.602C412.421 454.364 411.685 457.127 410.396 459.521C408.739 462.651 406.345 465.414 404.32 468.176C403.399 469.465 402.478 471.123 402.663 472.78C397.507 472.78 393.088 469.649 391.247 465.23C392.536 463.204 394.745 461.915 396.586 460.441C398.612 458.968 400.453 457.127 402.11 455.285C403.951 453.075 405.424 450.497 405.24 447.734C408.186 448.287 410.58 449.576 412.237 451.602Z" fill="#00BCD2"/>
<path d="M412.053 478.857C411.501 486.224 407.818 493.406 402.11 498.01C401.558 498.563 400.821 498.931 400.269 499.483C393.456 504.272 384.25 505.561 376.517 502.798C375.044 502.246 373.386 501.509 372.098 500.588C371.545 500.22 370.809 499.668 370.256 499.115C369.704 498.747 369.151 498.194 368.599 497.642C363.812 493.038 360.498 486.961 359.945 480.331C362.339 480.147 364.732 479.594 366.758 478.305C370.624 478.121 374.123 476.463 376.885 474.069C378.91 475.727 381.856 476.095 384.25 474.99C386.644 474.069 388.485 471.675 388.853 469.097L389.037 468.913C391.983 473.517 397.139 476.648 403.031 476.648C403.215 476.648 403.399 476.648 403.583 476.648C404.872 477.568 406.345 478.121 407.818 478.489C409.107 478.857 410.58 478.857 412.053 478.857Z" fill="#FFAEC3"/>
<path d="M402.663 500.22L405.056 509.244C405.056 509.244 402.11 523.977 387.564 523.793C380.752 523.793 375.964 520.293 373.018 516.794C373.571 516.979 395.298 517.899 402.663 500.22Z" fill="#FFAEC3"/>
<path d="M402.11 498.194L402.662 500.22C395.482 518.083 373.57 516.979 372.834 516.979C369.52 513.111 368.047 508.875 368.047 508.875L370.072 499.115C370.624 499.667 371.361 500.036 371.913 500.588C373.202 501.509 374.859 502.246 376.332 502.798C384.066 505.561 393.272 504.271 400.085 499.483C400.821 499.115 401.558 498.563 402.11 498.194Z" fill="#181723"/>
<path d="M395.113 444.972L395.298 445.34C391.431 447.366 388.485 450.681 387.196 454.732C386.091 454.548 385.171 454.548 384.066 454.548C382.961 454.548 381.856 454.732 380.752 455.101C379.094 451.233 375.964 448.103 372.098 446.445C376.148 446.261 380.015 444.972 383.513 442.946C382.593 443.867 381.856 445.156 381.304 446.261C381.304 446.445 381.12 446.629 381.12 446.814C381.12 447.182 381.488 447.366 381.856 447.55C382.777 447.918 383.882 447.734 384.802 447.55C388.485 446.629 391.983 445.34 395.113 443.314C395.113 443.867 395.113 444.419 395.113 444.972Z" fill="#FFAEC3"/>
<path d="M388.853 469.097C388.301 471.859 386.459 474.069 384.066 475.174C381.672 476.095 378.726 475.727 376.701 474.253C379.831 471.491 381.856 467.439 382.225 463.019C382.409 463.019 382.409 463.019 382.593 463.019C383.882 462.835 385.171 463.019 386.459 463.204H386.644C387.012 465.229 387.748 467.255 388.853 469.097Z" fill="#EF89A9"/>
<path d="M374.859 453.259C373.018 451.234 370.624 449.944 368.047 449.392C367.31 449.208 366.39 449.208 365.469 449.208C358.472 449.208 352.764 454.917 352.764 461.915C352.764 463.756 353.132 465.598 353.869 467.071C355.894 471.491 360.313 474.438 365.285 474.622C372.282 474.622 377.99 468.913 377.99 461.915C378.174 458.416 377.069 455.469 374.859 453.259ZM380.751 455.101C381.672 457.127 382.224 459.337 382.224 461.731C382.224 462.099 382.224 462.467 382.224 462.836C382.04 467.255 379.831 471.307 376.701 474.069C373.939 476.464 370.44 478.121 366.574 478.305C366.205 478.305 365.837 478.305 365.469 478.305C356.263 478.305 348.897 470.939 348.897 461.731C348.897 452.523 356.263 445.156 365.469 445.156C366.574 445.156 367.494 445.156 368.415 445.34C369.704 445.525 370.809 445.893 371.913 446.445C375.964 448.103 379.094 451.234 380.751 455.101Z" fill="#181723"/>
<path d="M374.86 453.259C375.044 456.022 374.307 458.784 373.018 461.178C371.361 464.309 368.968 467.071 366.942 470.018C366.021 471.307 365.101 472.964 365.285 474.622C360.129 474.622 355.71 471.491 353.869 467.071C355.158 465.045 357.368 463.756 359.209 462.283C361.234 460.81 363.075 458.968 364.733 457.127C366.574 454.917 368.047 452.338 367.863 449.576C370.809 449.944 373.202 451.233 374.86 453.259Z" fill="#00BCD2"/>
<path d="M365.653 478.305C366.021 478.305 366.39 478.305 366.758 478.305C364.732 479.594 362.339 480.146 359.945 480.331C359.761 480.331 359.393 480.331 359.209 480.331C355.71 480.699 352.212 480.883 348.713 480.699C346.688 491.933 344.663 503.166 342.637 514.216C341.717 519.373 340.796 524.529 339.875 529.685C339.323 532.448 338.955 535.21 338.402 537.789C337.482 542.393 336.745 547.181 334.904 551.601C332.879 556.573 329.38 561.177 324.225 562.65C319.437 563.939 314.098 562.098 310.047 559.151C309.679 558.967 309.31 558.599 308.942 558.414C307.285 556.941 305.628 555.284 304.523 553.258C302.129 548.654 303.234 543.129 304.891 538.157C306.917 531.895 309.679 526.002 312.44 520.109C321.647 500.772 330.669 481.436 339.875 462.099L344.294 444.972C344.294 444.972 344.847 442.946 350.739 441.473C352.028 441.105 353.685 440.736 355.526 440.368C366.021 438.71 368.047 443.683 368.415 444.788C367.494 444.604 366.39 444.604 365.469 444.604C356.263 444.604 348.898 451.97 348.898 461.178C348.898 470.938 356.447 478.305 365.653 478.305Z" fill="#FFAEC3"/>
<path d="M353.501 696.534C352.396 694.509 351.107 692.483 350.002 690.273C356.631 692.851 363.996 695.429 370.993 698.008C370.809 698.56 370.256 698.928 369.888 699.297C368.783 699.849 367.679 699.665 366.574 699.481C364.917 699.113 363.259 698.744 361.602 698.192C361.418 698.192 361.234 698.008 360.866 698.008C360.129 698.192 360.129 699.297 359.761 700.033C359.209 701.138 357.736 701.323 356.631 700.77C355.526 700.218 354.974 699.113 354.421 698.008C354.053 697.639 353.869 697.087 353.501 696.534Z" fill="#3A1D7C"/>
<path d="M486.072 678.303C491.78 681.618 494.174 703.348 490.675 714.398C490.123 716.24 488.834 717.345 487.177 718.265C484.967 716.24 482.574 714.214 480.733 711.636C478.891 709.057 477.787 706.111 477.971 702.98C478.155 700.402 479.26 697.824 480.364 695.43C482.758 689.721 484.967 683.643 484.415 677.566C485.152 677.934 485.704 678.119 486.072 678.303Z" fill="white"/>
<path d="M321.095 681.249C323.12 684.932 324.225 689.536 323.304 693.588C322.568 696.903 320.542 699.665 318.517 702.243C317.228 703.901 315.939 705.558 314.65 707.216C314.282 707.032 313.914 707.032 313.545 706.847C310.784 705.743 308.758 702.98 307.653 700.218C306.549 697.455 306.364 694.325 306.364 691.378C306.18 683.643 306.733 675.909 308.206 668.358C310.784 670.568 313.361 672.594 316.123 674.251C317.964 676.461 319.806 678.671 321.095 681.249Z" fill="white"/>
<path d="M464.714 675.909C472.999 676.277 480.733 676.83 484.415 677.75C484.968 683.828 482.758 689.905 480.364 695.614C479.26 698.008 478.155 700.586 477.971 703.165C477.787 706.295 479.075 709.242 480.733 711.82C482.574 714.398 484.783 716.424 487.177 718.45C477.787 723.054 454.034 716.977 442.25 711.636C428.256 705.374 415.552 703.165 415.552 703.165C421.26 694.693 429.729 681.802 432.491 675.356C432.491 675.356 449.799 675.356 464.714 675.909Z" fill="#181723"/>
<path d="M479.812 645.338C481.837 657.309 475.393 670.2 464.714 676.093C449.799 675.54 432.491 675.54 432.491 675.54C433.228 673.883 433.596 672.594 433.412 672.041C431.939 667.99 424.758 672.778 424.758 672.778C424.758 672.778 425.495 669.279 422.18 667.437C418.682 665.78 417.209 669.831 417.209 669.831C417.209 669.831 403.399 662.097 382.777 649.758C391.063 645.154 399.533 640.734 408.187 636.867C416.104 633.184 424.206 629.685 432.307 626.554C436.542 624.896 440.961 623.239 445.38 622.502C448.511 621.95 451.457 621.582 454.587 621.95C466.739 622.871 477.603 633 479.812 645.338Z" fill="#3A1D7C"/>
<path d="M370.993 698.192C363.812 695.614 356.631 693.036 350.002 690.457C339.323 686.406 330.117 682.723 325.698 680.328C322.936 678.855 319.621 676.829 316.123 674.435C313.545 672.594 310.783 670.568 308.206 668.542C296.606 658.782 287.031 645.522 294.212 632.447C301.945 618.451 310.783 613.11 328.275 619.371C333.983 621.397 340.796 624.712 348.714 629.5C350.187 630.421 351.844 631.342 353.501 632.447C363.996 638.892 373.755 644.786 382.409 649.942C403.215 662.281 416.841 670.015 416.841 670.015C416.841 670.015 418.498 665.964 421.812 667.621C425.31 669.279 424.39 672.962 424.39 672.962C424.39 672.962 431.571 668.174 433.044 672.225C433.228 672.778 432.86 674.067 432.123 675.724C429.361 682.17 421.075 694.877 415.183 703.533C411.869 708.505 409.291 712.004 409.291 712.004C409.291 712.004 391.063 705.374 370.993 698.192Z" fill="#311F68"/>
<path d="M348.897 629.5C351.475 630.789 374.675 641.102 407.818 637.051C399.164 641.102 390.694 645.338 382.409 649.942C373.755 644.785 363.996 638.892 353.501 632.447C352.028 631.342 350.555 630.421 348.897 629.5Z" fill="#27155E"/>
<path d="M350.003 690.457C351.107 692.483 352.396 694.509 353.501 696.719C343.926 701.138 333.984 704.453 323.857 707.032C320.726 707.768 317.596 708.321 314.65 707.584C315.939 705.927 317.228 704.269 318.517 702.612C320.542 699.849 322.568 697.087 323.304 693.956C324.409 689.721 323.304 685.301 321.095 681.617C319.806 679.223 317.964 676.829 316.123 674.804C319.438 677.198 322.752 679.039 325.698 680.697C330.117 682.538 339.323 686.222 350.003 690.457Z" fill="#181723"/>
<path d="M464.714 556.389L465.819 556.757C464.53 560.072 461.584 562.466 458.269 563.755C454.955 565.044 451.457 565.412 447.774 565.228C443.171 565.044 438.384 563.939 435.069 560.808C434.517 560.256 433.965 559.703 433.596 559.151C431.387 555.836 431.019 551.785 430.834 547.917C430.834 542.208 431.203 536.499 432.307 530.974C433.044 533.553 433.596 535.947 434.333 538.525C436.174 544.787 438.2 551.232 442.987 555.468C447.59 559.519 454.219 560.808 459.926 558.783C461.952 558.23 463.609 557.494 464.714 556.389Z" fill="#126C8C"/>
<path d="M372.834 516.978C375.964 520.478 380.567 523.977 387.38 523.977C401.926 524.161 404.872 509.428 404.872 509.428C404.872 509.428 409.66 506.297 411.869 506.85C413.894 507.402 414.447 511.454 414.447 511.454L428.441 515.505C429.729 520.662 431.018 525.818 432.307 530.975C431.202 536.499 430.65 542.208 430.834 547.917C430.834 551.785 431.202 556.02 433.596 559.151C433.964 559.704 434.517 560.256 435.069 560.809L434.885 560.993L438.567 611.084C438.567 611.084 446.669 616.057 441.329 617.714C441.329 617.714 445.933 617.714 445.012 621.581L445.196 622.318C440.777 623.239 436.358 624.712 432.123 626.37C424.021 629.5 415.92 632.999 408.002 636.683C374.675 640.734 351.66 630.421 349.082 629.132C341.164 624.344 334.352 621.029 328.644 619.003C326.618 615.872 331.774 614.215 331.774 614.215C330.853 607.954 336.377 608.322 336.377 608.322L342.637 563.018L339.323 564.492C340.612 563.571 341.901 562.466 342.821 560.993C345.399 557.31 345.583 552.337 345.031 547.917C344.479 541.656 342.637 535.394 340.06 529.686C340.98 524.529 341.901 519.373 342.821 514.216L361.05 509.244C361.05 509.244 357.183 502.246 368.231 508.507C368.047 508.875 369.52 512.927 372.834 516.978Z" fill="#3C96BC"/>
<path d="M344.847 548.286C345.215 552.89 345.031 557.678 342.638 561.361C341.717 562.65 340.612 563.755 339.139 564.86C336.377 566.702 333.063 567.991 329.933 568.911C327.723 569.464 325.33 570.016 323.12 570.016C317.044 569.832 311.52 565.412 310.047 559.519C314.098 562.466 319.438 564.307 324.225 563.018C329.38 561.545 332.879 556.941 334.904 551.969C336.745 547.549 337.482 542.761 338.403 538.157C338.955 535.394 339.323 532.632 339.876 530.054C342.453 535.763 344.295 542.024 344.847 548.286Z" fill="#126C8C"/>
</svg>
