<?xml version="1.0" standalone="no"?><svg xmlns="http://www.w3.org/2000/svg" viewBox="0 0 1440 320"><path fill="#ffffff" fill-opacity="0.2" d="M0,128L26.7,154.7C53.3,181,107,235,160,213.3C213.3,192,267,96,320,96C373.3,96,427,192,480,240C533.3,288,587,288,640,245.3C693.3,203,747,117,800,90.7C853.3,64,907,96,960,144C1013.3,192,1067,256,1120,261.3C1173.3,267,1227,213,1280,170.7C1333.3,128,1387,96,1413,80L1440,64L1440,320L1413.3,320C1386.7,320,1333,320,1280,320C1226.7,320,1173,320,1120,320C1066.7,320,1013,320,960,320C906.7,320,853,320,800,320C746.7,320,693,320,640,320C586.7,320,533,320,480,320C426.7,320,373,320,320,320C266.7,320,213,320,160,320C106.7,320,53,320,27,320L0,320Z"></path></svg>